<svg width="75" height="75" viewBox="0 0 75 75" xmlns="http://www.w3.org/2000/svg">
    <title>
        Icon
    </title>
    <g fill="none" fill-rule="evenodd">
        <ellipse fill="#88CAA0" cx="37.5" cy="37.5" rx="37.5" ry="37.5"/>
        <path d="M53 41.937c0-4.229-6.042-3.02-6.042-6.78 0 0 2.417-2.718 2.417-7.72 0-2.987-2.45-5.437-5.437-5.437a5.436 5.436 0 0 0-5.438 5.437c0 .605.034 1.142.1 1.679v.033s2.317 2.048 2.317 5.538c0 4.8-2.148 8.056-2.148 8.056s.57.537 2.013 1.007h11.614a.602.602 0 0 0 .604-.604v-1.209zm-10.875 7.25c0-4.229-6.042-3.02-6.042-6.78 0 0 2.417-2.718 2.417-7.72 0-2.987-2.45-5.437-5.437-5.437a5.436 5.436 0 0 0-5.438 5.437c0 5.002 2.417 7.72 2.417 7.72 0 3.76-6.042 2.585-6.042 6.78v1.209c0 .335.269.604.604.604h16.917a.602.602 0 0 0 .604-.604v-1.209z" fill="#FFF"/>
    </g>
</svg>
