<svg xmlns="http://www.w3.org/2000/svg" width="18" height="18" viewBox="0 0 18 18">
    <path fill="#c491d6" d="M16.991 7.5c-.016-.376-.05-.761-.09-1.154-.279-2.725-2.453-4.96-5.166-5.298A5.96 5.96 0 0 0 5.347 5a3.812 3.812 0 0 0-.34-.017c-2.195 0-4.01 1.791-4.01 3.99v.996c0 .545.475.988 1.018.988h.02c.543 0 .958-.467.958-1.011V9.16c-.115-1.187.852-2.186 2.014-2.186.058 0 .115.005.172.01l.77-.01c.452.039.869-.159 1.019-.587l.216-.617c.524-1.499 1.847-2.623 3.426-2.763 2.445-.217 4.557 1.844 4.394 4.283l-.003.21v2.563h.01c.029.521.486.937 1.013.937h.02c.519 0 .915-.426.951-.937h.007V7.5h-.011z"/>
    <path fill="#c491d6" d="M12.691 12.299L9.669 9.291a1 1 0 0 0-1.41 0l-2.952 3c-.389.387-.389 1.015 0 1.403s1.02.388 1.409 0l1.287-1.317v3.633c0 .547.441.99.985.99h.02a.987.987 0 0 0 .985-.99v-3.481l.129.021 1.118 1.114c.353.351.918.437 1.322.146a.99.99 0 0 0 .127-1.511z"/>
</svg>
