<svg width="75" height="75" viewBox="0 0 75 75" xmlns="http://www.w3.org/2000/svg">
    <title>
        Icon
    </title>
    <g fill="none" fill-rule="evenodd">
        <ellipse fill="#88CAA0" cx="37.5" cy="37.5" rx="37.5" ry="37.5"/>
        <path d="M36.868 46l-9.235 5.112c-1.454.805-2.633.113-2.633-1.533V28.994A3.001 3.001 0 0 1 27.996 26h22.008A2.997 2.997 0 0 1 53 28.994v14.012A3.001 3.001 0 0 1 50.004 46H36.868zm-4.535-8.03c1.105 0 2-.891 2-1.992 0-1.1-.895-1.993-2-1.993-1.104 0-2 .893-2 1.993s.896 1.993 2 1.993zm6.667 0c1.105 0 2-.891 2-1.992 0-1.1-.895-1.993-2-1.993s-2 .893-2 1.993.895 1.993 2 1.993zm6.667 0c1.104 0 2-.891 2-1.992 0-1.1-.896-1.993-2-1.993-1.105 0-2 .893-2 1.993s.895 1.993 2 1.993z" fill="#FFF"/>
    </g>
</svg>
