<svg width="75" height="75" viewBox="0 0 75 75" xmlns="http://www.w3.org/2000/svg">
    <title>
        Icon
    </title>
    <g fill="none" fill-rule="evenodd">
        <ellipse fill="#EBA460" cx="37.5" cy="37.5" rx="37.5" ry="37.5"/>
        <path d="M50 47.437c0-5.208-9.375-4.166-9.375-8.333 0 0 3.125-3.125 3.125-8.854A6.26 6.26 0 0 0 37.5 24a6.26 6.26 0 0 0-6.25 6.25c0 5.73 3.125 8.854 3.125 8.854 0 4.167-9.375 3.125-9.375 8.333v1.042c0 .29.231.521.52.521h23.96c.289 0 .52-.231.52-.52v-1.043z" fill="#FFF"/>
    </g>
</svg>
