<svg id="Layer_1" xmlns="http://www.w3.org/2000/svg" viewBox="0 0 180.2 50.2">
    <style>
        .st0{fill:#2e3d47}.st1{fill:#f2ae6c}.st2{fill:#b5ddc3}.st3{fill:#7cc2db}
    </style>
    <path class="st0" d="M68 34.1c.9 1.3 2.3 2 4.2 2 .7 0 1.4-.2 2-.5.6-.3 1.1-.8 1.5-1.4.4-.6.6-1.4.6-2.4 0-.8-.2-1.6-.6-2.2-.4-.7-.9-1.3-1.6-1.8-.7-.5-1.6-1.2-2.8-1.8-1.3-.8-2.3-1.4-3.1-2.1s-1.4-1.3-1.9-2.2-.7-1.8-.7-3 .3-2.2.8-3.1c.5-.8 1.3-1.5 2.2-1.9s1.9-.6 3-.6c.7 0 1.2.1 1.7.2s.9.2 1.2.4c.3.2.7.4 1 .6.5.3.8.5 1.1.5.2 0 .4-.1.5-.3.1-.2.2-.6.3-1.1h.7c-.1 1.3-.2 3.4-.2 6.6h-.7c-.1-1.1-.3-2.1-.7-3-.4-.9-1-1.7-1.7-2.3-.8-.6-1.7-.9-2.8-.9-.8 0-1.4.2-2 .5-.6.3-1.1.8-1.4 1.3-.3.6-.5 1.2-.5 1.9 0 1.2.4 2.1 1.1 2.8s1.5 1.4 2.5 1.9 1.6 1 1.9 1.2c1.3.8 2.4 1.6 3.2 2.2.8.6 1.4 1.3 1.9 2.2.5.8.7 1.8.7 2.9 0 1.3-.3 2.4-.9 3.3-.7.9-1.5 1.6-2.5 2-1 .5-2.2.7-3.5.7-1 0-1.9-.1-2.5-.3-.7-.2-1.3-.5-1.9-.9-.5-.3-.8-.5-1.1-.5-.2 0-.4.1-.5.3-.1.2-.2.6-.3 1.1h-.7c.1-1.2.1-3.7.1-7.7h.7c.3 2.3.8 4 1.7 5.4zM94.3 19.8c1 0 1.8 0 2.4-.1v.6c-.4.1-.8.2-1.1.6-.3.3-.6.9-.9 1.7l-5.3 13.8-1.1 2.8c-.4 1.1-.9 1.8-1.4 2.3-.6.6-1.4.8-2.5.8-.6 0-1.2-.2-1.6-.5s-.6-.8-.6-1.4c0-.5.2-.9.5-1.2.3-.3.7-.5 1.3-.5.5 0 .9.1 1.2.4.3.3.5.6.5 1.1 0 .6-.3 1.1-.9 1.4h.2c1.2 0 2.1-.8 2.7-2.5l1.1-2.9-5.8-14c-.4-.7-.7-1.2-1.1-1.5-.4-.2-.7-.3-1.1-.3v-.7c1 .1 2.1.2 3.2.2.9 0 2.3-.1 4.2-.2v.7c-.5 0-.9 0-1.2.1-.3 0-.5.1-.7.3-.2.2-.3.4-.3.8s.1.9.4 1.6l3.9 9.6 3.5-9.3c.2-.6.3-1.1.3-1.5 0-.5-.2-.9-.6-1.1-.4-.2-1-.4-1.8-.4v-.6c1-.1 1.9-.1 2.6-.1zM102.5 34.7c.2.3.4.6.8.7.4.1.8.2 1.4.2v.7c-2-.1-3.3-.1-3.9-.1s-1.9 0-3.9.1v-.7c.6 0 1.1-.1 1.4-.2.4-.1.6-.4.8-.7s.2-.8.2-1.4V14.9c0-1-.2-1.7-.5-2.2-.4-.4-1-.7-1.9-.7v-.7c.7.1 1.3.1 2 .1 1.4 0 2.5-.2 3.3-.5v22.2c.1.8.2 1.2.3 1.6zM111.7 34.7c.2.3.4.6.8.7.4.1.8.2 1.4.2v.7c-2-.1-3.3-.1-3.9-.1s-1.9 0-3.9.1v-.7c.6 0 1.1-.1 1.4-.2.4-.1.6-.4.8-.7s.2-.8.2-1.4V14.9c0-1-.2-1.7-.5-2.2-.4-.4-1-.7-1.9-.7v-.7c.7.1 1.3.1 2 .1 1.4 0 2.5-.2 3.3-.5v22.2c.1.8.2 1.2.3 1.6zM124.1 20.6c-.5-.5-1.3-.7-2.2-.7-1.5 0-2.6.4-3.2 1.1.4.1.8.3 1.1.7s.4.8.4 1.3-.2 1-.5 1.3c-.3.3-.8.5-1.4.5-.5 0-1-.2-1.3-.5-.3-.4-.5-.8-.5-1.4 0-.8.5-1.6 1.5-2.3.5-.3 1.2-.6 1.9-.9.8-.2 1.6-.3 2.6-.3.9 0 1.7.1 2.3.3.7.2 1.2.5 1.6.9.5.5.8 1.1 1 1.7.2.7.3 1.6.3 2.8V34c0 .5.1.9.2 1.2.2.2.4.4.8.4.3 0 .5-.1.7-.2.2-.1.5-.3.7-.5l.4.5c-.4.3-.7.5-.9.7-.3.2-.5.3-.9.4-.3.1-.7.1-1.1.1-1 0-1.8-.3-2.2-.8-.4-.5-.6-1.2-.6-2.1-.6 1-1.4 1.8-2.3 2.2-.9.4-1.8.7-2.7.7-.7 0-1.4-.1-2-.4s-1.1-.7-1.5-1.2-.6-1.2-.6-2 .2-1.5.6-2.1c.4-.6 1-1.1 1.7-1.5.7-.4 1.7-.9 2.9-1.4.2-.1.7-.3 1.5-.6s1.4-.7 1.8-1c.4-.3.5-.7.5-1.1v-2c.2-1.4-.1-2.2-.6-2.7zm0 6.5c-.4.2-1.1.6-2.3 1.2-.6.3-1.1.6-1.6.9-.4.3-.8.7-1.1 1.2-.3.5-.5 1.2-.5 1.9 0 .9.2 1.6.7 2.1.5.5 1.1.7 1.9.7 1.4 0 2.6-.8 3.6-2.4v-6.3c-.1.3-.3.5-.7.7zM138.1 20.2c.9-.6 1.9-.9 3-.9 1.2 0 2.2.3 3.2 1 .9.7 1.6 1.6 2.2 2.9.5 1.3.8 2.9.8 4.8 0 1.8-.3 3.4-1 4.7-.6 1.3-1.5 2.3-2.6 3-1.1.7-2.3 1-3.6 1-.8 0-1.5-.2-2.3-.5-.7-.3-1.4-.8-1.9-1.4l-2.3 1.9-.5-.2c.1-.5.2-1.1.2-1.8V15c0-1-.2-1.7-.5-2.2-.4-.4-1-.7-1.9-.7v-.7c.7.1 1.3.1 2 .1 1.4 0 2.5-.2 3.3-.5v11.6c.4-1 1.1-1.8 1.9-2.4zm-.3 15.4c.6.3 1.3.4 2 .4 1.4 0 2.5-.7 3.2-2 .7-1.3 1.1-3.3 1.1-6 0-2.6-.3-4.6-1-5.8-.6-1.3-1.6-1.9-3-1.9-.6 0-1.1.2-1.7.5-.5.3-1 .8-1.4 1.4-.4.6-.7 1.3-.9 2.2v10.1c.5.4 1.1.8 1.7 1.1zM164.7 35c.4.4 1 .7 1.9.7v.7c-.7-.1-1.3-.1-2-.1-1.4 0-2.5.2-3.3.5V33c-.5 1.3-1.3 2.3-2.2 2.9-.9.6-2 .9-3.1.9-1.4 0-2.6-.4-3.3-1.2-.4-.4-.7-1-.8-1.6-.2-.7-.2-1.5-.2-2.6v-8.1c0-1-.2-1.7-.5-2.2-.4-.4-1-.7-1.9-.7v-.7c.7.1 1.3.1 2 .1 1.3 0 2.5-.1 3.3-.4V32c0 .8 0 1.5.1 2s.3.9.7 1.2c.4.3.9.5 1.6.5.8 0 1.6-.3 2.2-.8s1.2-1.2 1.6-2.1.6-1.9.6-2.9v-6.6c0-1-.2-1.7-.5-2.2-.4-.4-1-.7-1.9-.7v-.7c.7.1 1.3.1 2 .1 1.4 0 2.5-.1 3.3-.4v13.4c-.1 1 .1 1.7.4 2.2zM170.7 33.4c.3.9.7 1.5 1.3 2 .6.5 1.4.7 2.4.7.5 0 .9-.1 1.4-.3.4-.2.8-.5 1.1-1 .3-.5.4-1 .4-1.8 0-.6-.1-1.1-.4-1.6s-.7-.9-1.2-1.3-1.2-.8-2-1.4c-1.1-.7-1.9-1.2-2.4-1.6-.6-.4-1-1-1.4-1.6s-.6-1.3-.6-2.2c0-.9.2-1.7.6-2.3.4-.6 1-1.1 1.7-1.4.7-.3 1.5-.5 2.4-.5.8 0 1.4.1 2 .4.6.2 1.1.5 1.5.8.2.2.4.3.6.3.4 0 .6-.5.7-1.4h.7c-.1 1-.1 2.9-.1 5.5h-.7c-.2-1.4-.7-2.6-1.4-3.5-.7-.9-1.7-1.4-3-1.4-.8 0-1.4.2-1.9.7-.5.4-.7 1-.7 1.8 0 .7.3 1.4.8 1.9s1.1 1 1.8 1.4c.7.4 1.2.8 1.5 1 1 .6 1.8 1.2 2.4 1.7.6.5 1.1 1.1 1.5 1.7s.6 1.4.6 2.2c0 1-.2 1.8-.7 2.4-.5.7-1.2 1.2-2 1.5s-1.8.5-2.7.5c-1 0-1.8-.2-2.5-.5-.4-.2-.9-.5-1.3-.9-.1-.1-.2-.1-.3-.1-.3 0-.5.4-.7 1.2h-.7c.1-1.2.1-3.4.1-6.4h.7c-.1 1.5.2 2.6.5 3.5z"/>
    <path class="st1" d="M9.7 38.7C5.4 36.4 3 32.1 2.8 26.1 2.6 20 4.6 15.6 8.7 13c1.2-.7 2.6-1.3 4.2-1.8L14.8 8c-2.7.4-5.3 1.3-7.6 2.7C3.8 12.9-.3 17.3 0 26.2c.3 8.9 4.8 13 8.4 15 2.3 1.2 4.9 1.9 7.8 2.1l-2.1-3.1c-1.5-.3-3-.8-4.4-1.5z"/>
    <path class="st2" d="M48.1 32.2c-.1-2.6-.9-5.2-2.1-7.7l-1.6 3.4c.5 1.6.9 3.1.9 4.5.2 4.9-2.3 9.1-7.5 12.3-5.1 3.2-9.9 3.7-14.3 1.4-1.2-.6-2.5-1.6-3.6-2.8h-3.7c1.7 2.2 3.7 4 6.1 5.2 1.8.9 4.1 1.7 6.9 1.7 2.9 0 6.3-.8 10.1-3.3 7.5-4.7 8.9-10.6 8.8-14.7z"/>
    <path class="st3" d="M22 4.7c4.1-2.7 9-2.6 14.3.3 5.4 2.8 8.2 6.8 8.4 11.7.1 1.5-.1 3.1-.6 4.6l1.9 3.2c1.1-2.7 1.6-5.4 1.5-7.9-.2-4.1-2-9.9-9.9-14.1C29.8-1.6 24 .1 20.5 2.3c-2.3 1.4-4.2 3.4-5.7 5.7l3.7-.3c1.1-1.3 2.3-2.3 3.5-3z"/>
    <path class="st0" d="M44.2 21.3C41.3 17 37.1 13.4 33 11.2c-4-2.1-9.2-3.5-14.4-3.5h-.1l-3.7.3-1.8 3.2c-2.2 4.6-3.3 10-3.1 14.6.2 4.6 1.6 9.9 4.2 14.4l2.1 3.1h3.7c.5 0 1-.1 1.5-.1 4.5-.6 9-2.2 12.7-4.5 3.7-2.3 7.1-5.7 9.6-9.5.3-.4.5-.8.8-1.2l1.6-3.4-1.9-3.3zM32.6 36.2c-4.1 2.6-9.7 4.3-15 4.3-2.7-3.8-4.8-9-5-14.8-.2-5.8 1.4-11.1 3.8-15.1 4.6-.5 10.1.3 15.3 3.1 5.2 2.7 9 6.8 11.2 10.9-2.2 4.8-6.2 9.1-10.3 11.6z"/>
</svg>
