<?xml version="1.0" encoding="UTF-8"?>
<svg width="75px" height="75px" viewBox="0 0 75 75" version="1.1" xmlns="http://www.w3.org/2000/svg" xmlns:xlink="http://www.w3.org/1999/xlink">
    <!-- Generator: Sketch 41.2 (35397) - http://www.bohemiancoding.com/sketch -->
    <title>Icon</title>
    <desc>Created with Sketch.</desc>
    <defs></defs>
    <g id="Marketing" stroke="none" stroke-width="1" fill="none" fill-rule="evenodd">
        <g id="Students" transform="translate(-498.000000, -1788.000000)">
            <g id="Duo" transform="translate(0.000000, 1432.000000)">
                <g id="Left" transform="translate(300.000000, 356.000000)">
                    <g id="Icon" transform="translate(198.000000, 0.000000)">
                        <ellipse id="Circle" fill="#88CAA0" cx="37.5" cy="37.5" rx="37.5" ry="37.5"></ellipse>
                        <path d="M44.4001003,48.522395 C47.5420361,48.522395 50.0890783,45.9753527 50.0890783,42.8334169 C50.0890783,39.6914811 47.5420361,37.1444389 44.4001003,37.1444389 C41.2581645,37.1444389 38.7111223,39.6914811 38.7111223,42.8334169 C38.7111223,45.9753527 41.2581645,48.522395 44.4001003,48.522395 Z M33.0221442,49.9446395 C35.3785961,49.9446395 37.2888777,48.0343578 37.2888777,45.6779059 C37.2888777,43.3214541 35.3785961,41.4111724 33.0221442,41.4111724 C30.6656924,41.4111724 28.7554107,43.3214541 28.7554107,45.6779059 C28.7554107,48.0343578 30.6656924,49.9446395 33.0221442,49.9446395 Z M47.2445893,35.7221944 C49.6010412,35.7221944 51.5113228,33.8119127 51.5113228,31.4554608 C51.5113228,29.099009 49.6010412,27.1887273 47.2445893,27.1887273 C44.8881375,27.1887273 42.9778558,29.099009 42.9778558,31.4554608 C42.9778558,33.8119127 44.8881375,35.7221944 47.2445893,35.7221944 Z M57.9114231,34.2999499 C60.267875,34.2999499 62.1781567,32.3896682 62.1781567,30.0332163 C62.1781567,27.6767645 60.267875,25.7664828 57.9114231,25.7664828 C55.5549713,25.7664828 53.6446896,27.6767645 53.6446896,30.0332163 C53.6446896,32.3896682 55.5549713,34.2999499 57.9114231,34.2999499 Z M55.7780564,49.9446395 C58.1345082,49.9446395 60.0447899,48.0343578 60.0447899,45.6779059 C60.0447899,43.3214541 58.1345082,41.4111724 55.7780564,41.4111724 C53.4216045,41.4111724 51.5113228,43.3214541 51.5113228,45.6779059 C51.5113228,48.0343578 53.4216045,49.9446395 55.7780564,49.9446395 Z M23.0664326,45.6779059 C25.4228845,45.6779059 27.3331662,43.7676243 27.3331662,41.4111724 C27.3331662,39.0547205 25.4228845,37.1444389 23.0664326,37.1444389 C20.7099808,37.1444389 18.7996991,39.0547205 18.7996991,41.4111724 C18.7996991,43.7676243 20.7099808,45.6779059 23.0664326,45.6779059 Z M40.1333668,58.4781065 C42.4898186,58.4781065 44.4001003,56.5678249 44.4001003,54.211373 C44.4001003,51.8549211 42.4898186,49.9446395 40.1333668,49.9446395 C37.7769149,49.9446395 35.8666332,51.8549211 35.8666332,54.211373 C35.8666332,56.5678249 37.7769149,58.4781065 40.1333668,58.4781065 Z M31.2443386,57.055862 C32.6189355,57.055862 33.7332665,55.941531 33.7332665,54.5669341 C33.7332665,53.1923372 32.6189355,52.0780062 31.2443386,52.0780062 C29.8697417,52.0780062 28.7554107,53.1923372 28.7554107,54.5669341 C28.7554107,55.941531 29.8697417,57.055862 31.2443386,57.055862 Z M25.5553605,59.1892288 C26.9299575,59.1892288 28.0442884,58.0748978 28.0442884,56.7003009 C28.0442884,55.325704 26.9299575,54.211373 25.5553605,54.211373 C24.1807636,54.211373 23.0664326,55.325704 23.0664326,56.7003009 C23.0664326,58.0748978 24.1807636,59.1892288 25.5553605,59.1892288 Z M24.8442383,52.7891285 C26.2188352,52.7891285 27.3331662,51.6747975 27.3331662,50.3002006 C27.3331662,48.9256037 26.2188352,47.8112727 24.8442383,47.8112727 C23.4696414,47.8112727 22.3553104,48.9256037 22.3553104,50.3002006 C22.3553104,51.6747975 23.4696414,52.7891285 24.8442383,52.7891285 Z M19.1552602,50.6557617 C20.5298572,50.6557617 21.6441881,49.5414307 21.6441881,48.1668338 C21.6441881,46.7922369 20.5298572,45.6779059 19.1552602,45.6779059 C17.7806633,45.6779059 16.6663323,46.7922369 16.6663323,48.1668338 C16.6663323,49.5414307 17.7806633,50.6557617 19.1552602,50.6557617 Z M14.1774045,42.1222947 C15.5520014,42.1222947 16.6663323,41.0079637 16.6663323,39.6333668 C16.6663323,38.2587698 15.5520014,37.1444389 14.1774045,37.1444389 C12.8028075,37.1444389 11.6884766,38.2587698 11.6884766,39.6333668 C11.6884766,41.0079637 12.8028075,42.1222947 14.1774045,42.1222947 Z M46.8890282,62.0337178 C48.2636251,62.0337178 49.3779561,60.9193868 49.3779561,59.5447899 C49.3779561,58.170193 48.2636251,57.055862 46.8890282,57.055862 C45.5144313,57.055862 44.4001003,58.170193 44.4001003,59.5447899 C44.4001003,60.9193868 45.5144313,62.0337178 46.8890282,62.0337178 Z M54.711373,57.055862 C56.0859699,57.055862 57.2003009,55.941531 57.2003009,54.5669341 C57.2003009,53.1923372 56.0859699,52.0780062 54.711373,52.0780062 C53.3367761,52.0780062 52.2224451,53.1923372 52.2224451,54.5669341 C52.2224451,55.941531 53.3367761,57.055862 54.711373,57.055862 Z M25.5553605,25.7664828 C26.9299575,25.7664828 28.0442884,24.6521518 28.0442884,23.2775549 C28.0442884,21.902958 26.9299575,20.788627 25.5553605,20.788627 C24.1807636,20.788627 23.0664326,21.902958 23.0664326,23.2775549 C23.0664326,24.6521518 24.1807636,25.7664828 25.5553605,25.7664828 Z M31.9554608,22.2108715 C33.3300578,22.2108715 34.4443887,21.0965405 34.4443887,19.7219436 C34.4443887,18.3473467 33.3300578,17.2330157 31.9554608,17.2330157 C30.5808639,17.2330157 29.4665329,18.3473467 29.4665329,19.7219436 C29.4665329,21.0965405 30.5808639,22.2108715 31.9554608,22.2108715 Z M35.5110721,15.8107712 C36.885669,15.8107712 38,14.6964402 38,13.3218433 C38,11.9472464 36.885669,10.8329154 35.5110721,10.8329154 C34.1364752,10.8329154 33.0221442,11.9472464 33.0221442,13.3218433 C33.0221442,14.6964402 34.1364752,15.8107712 35.5110721,15.8107712 Z M26.2664828,18.6552602 C27.6410797,18.6552602 28.7554107,17.5409293 28.7554107,16.1663323 C28.7554107,14.7917354 27.6410797,13.6774045 26.2664828,13.6774045 C24.8918859,13.6774045 23.7775549,14.7917354 23.7775549,16.1663323 C23.7775549,17.5409293 24.8918859,18.6552602 26.2664828,18.6552602 Z M19.8663825,21.4997493 C20.8482374,21.4997493 21.6441881,20.7037986 21.6441881,19.7219436 C21.6441881,18.7400887 20.8482374,17.944138 19.8663825,17.944138 C18.8845276,17.944138 18.0885769,18.7400887 18.0885769,19.7219436 C18.0885769,20.7037986 18.8845276,21.4997493 19.8663825,21.4997493 Z M14.1774045,47.8112727 C15.1592594,47.8112727 15.9552101,47.015322 15.9552101,46.0334671 C15.9552101,45.0516121 15.1592594,44.2556614 14.1774045,44.2556614 C13.1955495,44.2556614 12.3995988,45.0516121 12.3995988,46.0334671 C12.3995988,47.015322 13.1955495,47.8112727 14.1774045,47.8112727 Z M19.1552602,55.6336175 C20.1371152,55.6336175 20.9330659,54.8376668 20.9330659,53.8558119 C20.9330659,52.8739569 20.1371152,52.0780062 19.1552602,52.0780062 C18.1734053,52.0780062 17.3774546,52.8739569 17.3774546,53.8558119 C17.3774546,54.8376668 18.1734053,55.6336175 19.1552602,55.6336175 Z M30.5332163,62.7448401 C31.5150713,62.7448401 32.311022,61.9488894 32.311022,60.9670344 C32.311022,59.9851795 31.5150713,59.1892288 30.5332163,59.1892288 C29.5513614,59.1892288 28.7554107,59.9851795 28.7554107,60.9670344 C28.7554107,61.9488894 29.5513614,62.7448401 30.5332163,62.7448401 Z M35.5110721,62.0337178 C36.492927,62.0337178 37.2888777,61.2377671 37.2888777,60.2559122 C37.2888777,59.2740572 36.492927,58.4781065 35.5110721,58.4781065 C34.5292172,58.4781065 33.7332665,59.2740572 33.7332665,60.2559122 C33.7332665,61.2377671 34.5292172,62.0337178 35.5110721,62.0337178 Z M41.2000501,64.1670846 C42.1819051,64.1670846 42.9778558,63.3711339 42.9778558,62.3892789 C42.9778558,61.407424 42.1819051,60.6114733 41.2000501,60.6114733 C40.2181952,60.6114733 39.4222445,61.407424 39.4222445,62.3892789 C39.4222445,63.3711339 40.2181952,64.1670846 41.2000501,64.1670846 Z M58.9781065,39.9889279 C59.9599615,39.9889279 60.7559122,39.1929772 60.7559122,38.2111223 C60.7559122,37.2292673 59.9599615,36.4333166 58.9781065,36.4333166 C57.9962516,36.4333166 57.2003009,37.2292673 57.2003009,38.2111223 C57.2003009,39.1929772 57.9962516,39.9889279 58.9781065,39.9889279 Z M62.5337178,43.5445392 C63.5155727,43.5445392 64.3115234,42.7485885 64.3115234,41.7667335 C64.3115234,40.7848786 63.5155727,39.9889279 62.5337178,39.9889279 C61.5518629,39.9889279 60.7559122,40.7848786 60.7559122,41.7667335 C60.7559122,42.7485885 61.5518629,43.5445392 62.5337178,43.5445392 Z M57.555862,24.3442383 C58.537717,24.3442383 59.3336677,23.5482876 59.3336677,22.5664326 C59.3336677,21.5845777 58.537717,20.788627 57.555862,20.788627 C56.5740071,20.788627 55.7780564,21.5845777 55.7780564,22.5664326 C55.7780564,23.5482876 56.5740071,24.3442383 57.555862,24.3442383 Z M51.1557617,18.6552602 C52.1376167,18.6552602 52.9335674,17.8593095 52.9335674,16.8774546 C52.9335674,15.8955997 52.1376167,15.099649 51.1557617,15.099649 C50.1739068,15.099649 49.3779561,15.8955997 49.3779561,16.8774546 C49.3779561,17.8593095 50.1739068,18.6552602 51.1557617,18.6552602 Z M51.866884,25.7664828 C53.2414809,25.7664828 54.3558119,24.6521518 54.3558119,23.2775549 C54.3558119,21.902958 53.2414809,20.788627 51.866884,20.788627 C50.4922871,20.788627 49.3779561,21.902958 49.3779561,23.2775549 C49.3779561,24.6521518 50.4922871,25.7664828 51.866884,25.7664828 Z M53.2891285,39.2778056 C54.6637254,39.2778056 55.7780564,38.1634747 55.7780564,36.7888777 C55.7780564,35.4142808 54.6637254,34.2999499 53.2891285,34.2999499 C51.9145316,34.2999499 50.8002006,35.4142808 50.8002006,36.7888777 C50.8002006,38.1634747 51.9145316,39.2778056 53.2891285,39.2778056 Z M47.6001504,54.9224952 C48.9747474,54.9224952 50.0890783,53.8081643 50.0890783,52.4335674 C50.0890783,51.0589704 48.9747474,49.9446395 47.6001504,49.9446395 C46.2255535,49.9446395 45.1112226,51.0589704 45.1112226,52.4335674 C45.1112226,53.8081643 46.2255535,54.9224952 47.6001504,54.9224952 Z M34.0888276,39.9889279 C38.2126184,39.9889279 41.5556113,36.645935 41.5556113,32.5221442 C41.5556113,28.3983535 38.2126184,25.0553605 34.0888276,25.0553605 C29.9650368,25.0553605 26.6220439,28.3983535 26.6220439,32.5221442 C26.6220439,36.645935 29.9650368,39.9889279 34.0888276,39.9889279 Z M42.9778558,25.7664828 C46.1197916,25.7664828 48.6668338,23.2194406 48.6668338,20.0775048 C48.6668338,16.9355689 46.1197916,14.3885267 42.9778558,14.3885267 C39.83592,14.3885267 37.2888777,16.9355689 37.2888777,20.0775048 C37.2888777,23.2194406 39.83592,25.7664828 42.9778558,25.7664828 Z M18.0885769,36.4333166 C21.2305127,36.4333166 23.7775549,33.8862744 23.7775549,30.7443386 C23.7775549,27.6024028 21.2305127,25.0553605 18.0885769,25.0553605 C14.946641,25.0553605 12.3995988,27.6024028 12.3995988,30.7443386 C12.3995988,33.8862744 14.946641,36.4333166 18.0885769,36.4333166 Z" id="Combined-Shape" fill="#FFFFFF"></path>
                    </g>
                </g>
            </g>
        </g>
    </g>
</svg>