<svg xmlns="http://www.w3.org/2000/svg" width="18" height="18" viewBox="0 0 18 18">
    <path fill="#8fd2a8" d="M15 1H4a2 2 0 0 0-2 2v12a2 2 0 0 0 2 2h11a1 1 0 0 0 1-1V2a1 1 0 0 0-1-1zm-1 13.5a.5.5 0 0 1-.5.5H4.99a.99.99 0 0 1-.99-.99v-.02a.99.99 0 0 1 .99-.99h8.51a.5.5 0 0 1 .5.5v1zm0-3.969a.5.5 0 0 1-.5.5h-7a.5.5 0 0 1-.5-.5V3.5a.5.5 0 0 1 .5-.5h7a.5.5 0 0 1 .5.5v7.031z"/>
    <path fill="#8fd2a8" d="M11.5 5h-3a.5.5 0 0 0-.5.5v1a.5.5 0 0 0 .5.5h3a.5.5 0 0 0 .5-.5v-1a.5.5 0 0 0-.5-.5z"/>
</svg>
