<svg width="75" height="75" viewBox="0 0 75 75" xmlns="http://www.w3.org/2000/svg">
    <title>
        Icon
    </title>
    <g fill="none" fill-rule="evenodd">
        <ellipse fill="#88CAA0" cx="37.5" cy="37.5" rx="37.5" ry="37.5"/>
        <path d="M44.4 48.522a5.689 5.689 0 1 0 0-11.378 5.689 5.689 0 0 0 0 11.378zm-11.378 1.423a4.267 4.267 0 1 0 0-8.534 4.267 4.267 0 0 0 0 8.534zm14.223-14.223a4.267 4.267 0 1 0 0-8.533 4.267 4.267 0 0 0 0 8.533zM57.91 34.3a4.267 4.267 0 1 0 0-8.534 4.267 4.267 0 0 0 0 8.534zm-2.133 15.645a4.267 4.267 0 1 0 0-8.534 4.267 4.267 0 0 0 0 8.534zm-32.712-4.267a4.267 4.267 0 1 0 0-8.534 4.267 4.267 0 0 0 0 8.534zm17.067 12.8a4.267 4.267 0 1 0 0-8.533 4.267 4.267 0 0 0 0 8.533zm-8.889-1.422a2.489 2.489 0 1 0 0-4.978 2.489 2.489 0 0 0 0 4.978zm-5.689 2.133a2.489 2.489 0 1 0 0-4.978 2.489 2.489 0 0 0 0 4.978zm-.71-6.4a2.489 2.489 0 1 0 0-4.978 2.489 2.489 0 0 0 0 4.978zm-5.69-2.133a2.489 2.489 0 1 0 0-4.978 2.489 2.489 0 0 0 0 4.978zm-4.978-8.534a2.489 2.489 0 1 0 0-4.978 2.489 2.489 0 0 0 0 4.978zM46.89 62.034a2.489 2.489 0 1 0 0-4.978 2.489 2.489 0 0 0 0 4.978zm7.822-4.978a2.489 2.489 0 1 0 0-4.978 2.489 2.489 0 0 0 0 4.978zm-29.156-31.29a2.489 2.489 0 1 0 0-4.977 2.489 2.489 0 0 0 0 4.977zm6.4-3.555a2.489 2.489 0 1 0 0-4.978 2.489 2.489 0 0 0 0 4.978zm3.556-6.4a2.489 2.489 0 1 0 0-4.978 2.489 2.489 0 0 0 0 4.978zm-9.245 2.844a2.489 2.489 0 1 0 0-4.978 2.489 2.489 0 0 0 0 4.978zm-6.4 2.845a1.778 1.778 0 1 0 0-3.556 1.778 1.778 0 0 0 0 3.556zm-5.69 26.31a1.778 1.778 0 1 0 0-3.555 1.778 1.778 0 0 0 0 3.555zm4.978 7.823a1.778 1.778 0 1 0 0-3.556 1.778 1.778 0 0 0 0 3.556zm11.378 7.11a1.778 1.778 0 1 0 0-3.555 1.778 1.778 0 0 0 0 3.556zm4.978-.71a1.778 1.778 0 1 0 0-3.556 1.778 1.778 0 0 0 0 3.556zm5.69 2.133a1.778 1.778 0 1 0 0-3.556 1.778 1.778 0 0 0 0 3.556zM58.977 39.99a1.778 1.778 0 1 0 0-3.556 1.778 1.778 0 0 0 0 3.556zm3.556 3.556a1.778 1.778 0 1 0 0-3.556 1.778 1.778 0 0 0 0 3.556zm-4.978-19.2a1.778 1.778 0 1 0 0-3.556 1.778 1.778 0 0 0 0 3.555zm-6.4-5.69a1.778 1.778 0 1 0 0-3.555 1.778 1.778 0 0 0 0 3.555zm.71 7.111a2.489 2.489 0 1 0 0-4.977 2.489 2.489 0 0 0 0 4.977zm1.423 13.512a2.489 2.489 0 1 0 0-4.978 2.489 2.489 0 0 0 0 4.978zM47.6 54.922a2.489 2.489 0 1 0 0-4.977 2.489 2.489 0 0 0 0 4.977zM34.09 39.99a7.467 7.467 0 1 0 0-14.934 7.467 7.467 0 0 0 0 14.934zm8.889-14.223a5.689 5.689 0 1 0 0-11.377 5.689 5.689 0 0 0 0 11.377zm-24.89 10.667a5.689 5.689 0 1 0 0-11.378 5.689 5.689 0 0 0 0 11.378z" fill="#FFF"/>
    </g>
</svg>
