<svg width="159" height="59" viewBox="0 0 159 59" xmlns="http://www.w3.org/2000/svg">
    <title>
        Logo
    </title>
    <g fill="none" fill-rule="evenodd">
        <path d="M80.214 36.811c3.024 0 5.568-1.752 5.568-4.752 0-2.664-1.728-3.888-4.992-5.256-2.688-1.128-3.528-1.848-3.528-3.696 0-1.632 1.104-2.856 3.024-2.856 2.304 0 3.744 1.416 4.104 4.152h.696v-3.528c-1.224-.864-2.952-1.392-4.8-1.392-3.168 0-5.04 1.968-5.04 4.464 0 2.76 1.848 3.816 4.32 4.848 3.12 1.32 4.176 2.088 4.176 4.104 0 1.824-1.32 3.144-3.528 3.144-2.448 0-3.912-1.776-4.464-4.848h-.696l.144 4.056c1.008.888 2.856 1.56 5.016 1.56zm13.32-2.496L90.27 26.18c-.096-.288-.144-.48-.144-.672 0-.576.48-.648 1.68-.792v-.624h-5.304v.624c.888.216 1.008.384 1.224.888l4.824 11.304-.456 1.224c-.576 1.632-1.44 1.992-2.712 1.992-.648 0-.984-.096-1.392-.216v.696c.192.768 1.008 1.2 1.728 1.2 1.44 0 2.16-.984 2.832-2.736l5.088-13.464c.192-.48.336-.672 1.224-.888v-.624h-3.864v.624c1.2.144 1.68.216 1.68.792 0 .192-.048.384-.144.648l-3 8.16zm9.36-16.536h-.288l-3.432 1.2v.264l1.56.84v14.664c0 .936-.384 1.128-1.656 1.2v.624h5.472v-.624c-1.272-.072-1.656-.264-1.656-1.2V17.78zm6.288 0h-.288l-3.432 1.2v.264l1.56.84v14.664c0 .936-.384 1.128-1.656 1.2v.624h5.472v-.624c-1.272-.072-1.656-.264-1.656-1.2V17.78zm6.912 17.616c-1.368 0-2.088-.888-2.088-2.184 0-1.272.696-1.944 1.896-2.424l2.88-1.176v4.512c-.984.816-1.704 1.272-2.688 1.272zm4.872-7.848c0-2.52-1.344-3.696-4.08-3.696-2.424 0-4.296 1.056-4.296 2.856 0 .672.336 1.128.936 1.32l1.272-.192c-.12-.48-.168-.84-.168-1.248 0-1.224.576-2.136 1.944-2.136 1.584 0 2.208 1.2 2.208 2.856v1.632l-3.456 1.296c-1.896.72-3.408 1.56-3.408 3.576 0 1.776 1.176 3 3.048 3 1.68 0 3.024-1.2 3.864-2.184.12 1.344.816 2.184 1.992 2.184.912 0 1.728-.408 2.304-1.272l-.12-.36c-.36.168-.72.312-1.104.312-.696 0-.936-.528-.936-1.584v-6.36zm3.6-7.464v15c1.176 1.056 2.88 1.728 4.896 1.728 3.336 0 6.024-2.76 6.024-7.2 0-3.456-1.704-5.76-4.728-5.76-1.8 0-3.096.864-4.032 2.136V17.78h-.288l-3.432 1.2v.264l1.56.84zm4.896 16.08c-1.704 0-2.736-.888-2.736-3.024v-6.6c.672-.768 1.776-1.296 2.856-1.296 2.736 0 3.744 2.64 3.744 5.352 0 3.096-1.512 5.568-3.864 5.568zm18.072-9.744l.096-2.52h-.264l-3.648.672v.552l.36.048c1.152.144 1.32.384 1.32 1.248v7.608c-.912.72-1.872 1.368-3.12 1.368-1.488 0-2.136-1.008-2.136-2.76v-6.12l.12-2.616h-.264l-3.696.672v.552l.384.048c1.128.144 1.32.384 1.32 1.248v6.648c0 2.616 1.224 3.744 3.288 3.744 1.68 0 2.952-1.104 4.104-2.256l-.096 2.256h.36l3.624-.888v-.504l-.624-.072c-1.08-.12-1.128-.288-1.128-1.104V26.42zm7.104 10.392c2.64 0 4.368-1.392 4.368-3.696 0-2.064-1.44-3.048-3.744-3.912-2.136-.792-2.904-1.44-2.904-2.688 0-1.152.744-1.992 2.136-1.992 1.752 0 2.712 1.392 3.192 3.24h.576V24.86c-.984-.624-2.16-1.008-3.648-1.008-2.4 0-3.96 1.32-3.96 3.384 0 2.016 1.176 2.904 3.576 3.84 2.136.84 3.024 1.44 3.024 2.832 0 1.512-1.104 2.232-2.52 2.232-1.872 0-3.024-1.632-3.624-3.816h-.648l.144 3.312c.888.696 2.4 1.176 4.032 1.176z" fill="#ffffff"/>
        <path d="M27.603 51.332c14.175 0 25.666-11.491 25.666-25.666S41.778 0 27.603 0 1.937 11.491 1.937 25.666s11.491 25.666 25.666 25.666zm0-1.33c-13.44 0-24.336-10.896-24.336-24.336 0-13.44 10.895-24.336 24.336-24.336 13.44 0 24.336 10.895 24.336 24.336 0 13.44-10.896 24.336-24.336 24.336z" fill="#ffffff"/>
        <path d="M31.477 55.206c14.175 0 25.666-11.491 25.666-25.666S45.652 3.874 31.477 3.874 5.811 15.365 5.811 29.54s11.491 25.666 25.666 25.666zm0-1.33c-13.44 0-24.336-10.896-24.336-24.336 0-13.44 10.896-24.336 24.336-24.336 13.44 0 24.336 10.896 24.336 24.336 0 13.44-10.896 24.336-24.336 24.336z" fill="#ffffff"/>
        <path d="M25.666 58.111c14.175 0 25.666-11.49 25.666-25.665C51.332 18.27 39.84 6.78 25.666 6.78S0 18.27 0 32.446C0 46.62 11.491 58.11 25.666 58.11zm0-1.33c-13.44 0-24.336-10.895-24.336-24.335 0-13.44 10.895-24.337 24.336-24.337 13.44 0 24.336 10.896 24.336 24.337 0 13.44-10.896 24.336-24.336 24.336z" fill="#ffffff"/>
        <path d="M28.332 38.74c3.55 0 6.535-1.958 6.535-5.311 0-2.978-2.028-4.346-5.859-5.876-3.155-1.26-4.14-2.066-4.14-4.131 0-1.825 1.295-3.193 3.549-3.193 2.704 0 4.394 1.583 4.816 4.641h.817v-3.943c-1.437-.966-3.465-1.557-5.633-1.557-3.719 0-5.916 2.2-5.916 4.99 0 3.086 2.17 4.266 5.07 5.42 3.662 1.476 4.902 2.334 4.902 4.588 0 2.039-1.55 3.514-4.141 3.514-2.873 0-4.591-1.985-5.24-5.419h-.816l.169 4.534c1.183.993 3.352 1.744 5.887 1.744z" fill="#ffffff"/>
    </g>
</svg>
