<?xml version="1.0" encoding="utf-8"?>
<!-- Generator: Adobe Illustrator 20.1.0, SVG Export Plug-In . SVG Version: 6.00 Build 0)  -->
<svg version="1.1" id="Layer_1" xmlns="http://www.w3.org/2000/svg" xmlns:xlink="http://www.w3.org/1999/xlink" x="0px" y="0px"
	 viewBox="0 0 180.2 50.2" style="enable-background:new 0 0 180.2 50.2;" xml:space="preserve">
<style type="text/css">
	.st0{fill:#2E3D47;}
	.st1{fill:#F2AE6C;}
	.st2{fill:#B5DDC3;}
	.st3{fill:#7CC2DB;}
</style>
<path class="st0" d="M68,34.1c0.9,1.3,2.3,2,4.2,2c0.7,0,1.4-0.2,2-0.5c0.6-0.3,1.1-0.8,1.5-1.4c0.4-0.6,0.6-1.4,0.6-2.4
	c0-0.8-0.2-1.6-0.6-2.2c-0.4-0.7-0.9-1.3-1.6-1.8c-0.7-0.5-1.6-1.2-2.8-1.8c-1.3-0.8-2.3-1.4-3.1-2.1s-1.4-1.3-1.9-2.2
	s-0.7-1.8-0.7-3c0-1.2,0.3-2.2,0.8-3.1c0.5-0.8,1.3-1.5,2.2-1.9s1.9-0.6,3-0.6c0.7,0,1.2,0.1,1.7,0.2c0.5,0.1,0.9,0.2,1.2,0.4
	c0.3,0.2,0.7,0.4,1,0.6c0.5,0.3,0.8,0.5,1.1,0.5c0.2,0,0.4-0.1,0.5-0.3c0.1-0.2,0.2-0.6,0.3-1.1h0.7c-0.1,1.3-0.2,3.4-0.2,6.6h-0.7
	c-0.1-1.1-0.3-2.1-0.7-3c-0.4-0.9-1-1.7-1.7-2.3c-0.8-0.6-1.7-0.9-2.8-0.9c-0.8,0-1.4,0.2-2,0.5c-0.6,0.3-1.1,0.8-1.4,1.3
	c-0.3,0.6-0.5,1.2-0.5,1.9c0,1.2,0.4,2.1,1.1,2.8s1.5,1.4,2.5,1.9s1.6,1,1.9,1.2c1.3,0.8,2.4,1.6,3.2,2.2c0.8,0.6,1.4,1.3,1.9,2.2
	c0.5,0.8,0.7,1.8,0.7,2.9c0,1.3-0.3,2.4-0.9,3.3C77.8,34.9,77,35.6,76,36c-1,0.5-2.2,0.7-3.5,0.7c-1,0-1.9-0.1-2.5-0.3
	c-0.7-0.2-1.3-0.5-1.9-0.9c-0.5-0.3-0.8-0.5-1.1-0.5c-0.2,0-0.4,0.1-0.5,0.3c-0.1,0.2-0.2,0.6-0.3,1.1h-0.7c0.1-1.2,0.1-3.7,0.1-7.7
	h0.7C66.6,31,67.1,32.7,68,34.1z"/>
<path class="st0" d="M94.3,19.8c1,0,1.8,0,2.4-0.1v0.6c-0.4,0.1-0.8,0.2-1.1,0.6c-0.3,0.3-0.6,0.9-0.9,1.7l-5.3,13.8l-1.1,2.8
	c-0.4,1.1-0.9,1.8-1.4,2.3c-0.6,0.6-1.4,0.8-2.5,0.8c-0.6,0-1.2-0.2-1.6-0.5s-0.6-0.8-0.6-1.4c0-0.5,0.2-0.9,0.5-1.2
	c0.3-0.3,0.7-0.5,1.3-0.5c0.5,0,0.9,0.1,1.2,0.4c0.3,0.3,0.5,0.6,0.5,1.1c0,0.6-0.3,1.1-0.9,1.4c0,0,0.1,0,0.2,0
	c1.2,0,2.1-0.8,2.7-2.5l1.1-2.9l-5.8-14c-0.4-0.7-0.7-1.2-1.1-1.5c-0.4-0.2-0.7-0.3-1.1-0.3v-0.7c1,0.1,2.1,0.2,3.2,0.2
	c0.9,0,2.3-0.1,4.2-0.2v0.7c-0.5,0-0.9,0-1.2,0.1c-0.3,0-0.5,0.1-0.7,0.3c-0.2,0.2-0.3,0.4-0.3,0.8c0,0.4,0.1,0.9,0.4,1.6l3.9,9.6
	l3.5-9.3c0.2-0.6,0.3-1.1,0.3-1.5c0-0.5-0.2-0.9-0.6-1.1c-0.4-0.2-1-0.4-1.8-0.4v-0.6C92.7,19.8,93.6,19.8,94.3,19.8z"/>
<path class="st0" d="M102.5,34.7c0.2,0.3,0.4,0.6,0.8,0.7c0.4,0.1,0.8,0.2,1.4,0.2v0.7c-2-0.1-3.3-0.1-3.9-0.1s-1.9,0-3.9,0.1v-0.7
	c0.6,0,1.1-0.1,1.4-0.2c0.4-0.1,0.6-0.4,0.8-0.7s0.2-0.8,0.2-1.4V14.9c0-1-0.2-1.7-0.5-2.2c-0.4-0.4-1-0.7-1.9-0.7v-0.7
	c0.7,0.1,1.3,0.1,2,0.1c1.4,0,2.5-0.2,3.3-0.5v22.2C102.3,33.9,102.4,34.3,102.5,34.7z"/>
<path class="st0" d="M111.7,34.7c0.2,0.3,0.4,0.6,0.8,0.7c0.4,0.1,0.8,0.2,1.4,0.2v0.7c-2-0.1-3.3-0.1-3.9-0.1s-1.9,0-3.9,0.1v-0.7
	c0.6,0,1.1-0.1,1.4-0.2c0.4-0.1,0.6-0.4,0.8-0.7s0.2-0.8,0.2-1.4V14.9c0-1-0.2-1.7-0.5-2.2c-0.4-0.4-1-0.7-1.9-0.7v-0.7
	c0.7,0.1,1.3,0.1,2,0.1c1.4,0,2.5-0.2,3.3-0.5v22.2C111.5,33.9,111.6,34.3,111.7,34.7z"/>
<path class="st0" d="M124.1,20.6c-0.5-0.5-1.3-0.7-2.2-0.7c-1.5,0-2.6,0.4-3.2,1.1c0.4,0.1,0.8,0.3,1.1,0.7s0.4,0.8,0.4,1.3
	c0,0.5-0.2,1-0.5,1.3c-0.3,0.3-0.8,0.5-1.4,0.5c-0.5,0-1-0.2-1.3-0.5c-0.3-0.4-0.5-0.8-0.5-1.4c0-0.8,0.5-1.6,1.5-2.3
	c0.5-0.3,1.2-0.6,1.9-0.9c0.8-0.2,1.6-0.3,2.6-0.3c0.9,0,1.7,0.1,2.3,0.3c0.7,0.2,1.2,0.5,1.6,0.9c0.5,0.5,0.8,1.1,1,1.7
	c0.2,0.7,0.3,1.6,0.3,2.8v8.9c0,0.5,0.1,0.9,0.2,1.2c0.2,0.2,0.4,0.4,0.8,0.4c0.3,0,0.5-0.1,0.7-0.2c0.2-0.1,0.5-0.3,0.7-0.5
	l0.4,0.5c-0.4,0.3-0.7,0.5-0.9,0.7c-0.3,0.2-0.5,0.3-0.9,0.4c-0.3,0.1-0.7,0.1-1.1,0.1c-1,0-1.8-0.3-2.2-0.8
	c-0.4-0.5-0.6-1.2-0.6-2.1c-0.6,1-1.4,1.8-2.3,2.2c-0.9,0.4-1.8,0.7-2.7,0.7c-0.7,0-1.4-0.1-2-0.4s-1.1-0.7-1.5-1.2s-0.6-1.2-0.6-2
	c0-0.8,0.2-1.5,0.6-2.1c0.4-0.6,1-1.1,1.7-1.5c0.7-0.4,1.7-0.9,2.9-1.4c0.2-0.1,0.7-0.3,1.5-0.6c0.8-0.3,1.4-0.7,1.8-1
	c0.4-0.3,0.5-0.7,0.5-1.1v-2C124.9,21.9,124.6,21.1,124.1,20.6z M124.1,27.1c-0.4,0.2-1.1,0.6-2.3,1.2c-0.6,0.3-1.1,0.6-1.6,0.9
	c-0.4,0.3-0.8,0.7-1.1,1.2c-0.3,0.5-0.5,1.2-0.5,1.9c0,0.9,0.2,1.6,0.7,2.1c0.5,0.5,1.1,0.7,1.9,0.7c1.4,0,2.6-0.8,3.6-2.4v-6.3
	C124.7,26.7,124.5,26.9,124.1,27.1z"/>
<path class="st0" d="M138.1,20.2c0.9-0.6,1.9-0.9,3-0.9c1.2,0,2.2,0.3,3.2,1c0.9,0.7,1.6,1.6,2.2,2.9c0.5,1.3,0.8,2.9,0.8,4.8
	c0,1.8-0.3,3.4-1,4.7c-0.6,1.3-1.5,2.3-2.6,3c-1.1,0.7-2.3,1-3.6,1c-0.8,0-1.5-0.2-2.3-0.5c-0.7-0.3-1.4-0.8-1.9-1.4l-2.3,1.9
	l-0.5-0.2c0.1-0.5,0.2-1.1,0.2-1.8V15c0-1-0.2-1.7-0.5-2.2c-0.4-0.4-1-0.7-1.9-0.7v-0.7c0.7,0.1,1.3,0.1,2,0.1
	c1.4,0,2.5-0.2,3.3-0.5v11.6C136.6,21.6,137.3,20.8,138.1,20.2z M137.8,35.6c0.6,0.3,1.3,0.4,2,0.4c1.4,0,2.5-0.7,3.2-2
	c0.7-1.3,1.1-3.3,1.1-6c0-2.6-0.3-4.6-1-5.8c-0.6-1.3-1.6-1.9-3-1.9c-0.6,0-1.1,0.2-1.7,0.5c-0.5,0.3-1,0.8-1.4,1.4
	c-0.4,0.6-0.7,1.3-0.9,2.2v10.1C136.6,34.9,137.2,35.3,137.8,35.6z"/>
<path class="st0" d="M164.7,35c0.4,0.4,1,0.7,1.9,0.7v0.7c-0.7-0.1-1.3-0.1-2-0.1c-1.4,0-2.5,0.2-3.3,0.5v-3.8
	c-0.5,1.3-1.3,2.3-2.2,2.9c-0.9,0.6-2,0.9-3.1,0.9c-1.4,0-2.6-0.4-3.3-1.2c-0.4-0.4-0.7-1-0.8-1.6c-0.2-0.7-0.2-1.5-0.2-2.6v-8.1
	c0-1-0.2-1.7-0.5-2.2c-0.4-0.4-1-0.7-1.9-0.7v-0.7c0.7,0.1,1.3,0.1,2,0.1c1.3,0,2.5-0.1,3.3-0.4V32c0,0.8,0,1.5,0.1,2
	c0.1,0.5,0.3,0.9,0.7,1.2c0.4,0.3,0.9,0.5,1.6,0.5c0.8,0,1.6-0.3,2.2-0.8s1.2-1.2,1.6-2.1s0.6-1.9,0.6-2.9v-6.6c0-1-0.2-1.7-0.5-2.2
	c-0.4-0.4-1-0.7-1.9-0.7v-0.7c0.7,0.1,1.3,0.1,2,0.1c1.4,0,2.5-0.1,3.3-0.4v13.4C164.2,33.8,164.4,34.5,164.7,35z"/>
<path class="st0" d="M170.7,33.4c0.3,0.9,0.7,1.5,1.3,2c0.6,0.5,1.4,0.7,2.4,0.7c0.5,0,0.9-0.1,1.4-0.3c0.4-0.2,0.8-0.5,1.1-1
	c0.3-0.5,0.4-1,0.4-1.8c0-0.6-0.1-1.1-0.4-1.6s-0.7-0.9-1.2-1.3s-1.2-0.8-2-1.4c-1.1-0.7-1.9-1.2-2.4-1.6c-0.6-0.4-1-1-1.4-1.6
	s-0.6-1.3-0.6-2.2c0-0.9,0.2-1.7,0.6-2.3c0.4-0.6,1-1.1,1.7-1.4c0.7-0.3,1.5-0.5,2.4-0.5c0.8,0,1.4,0.1,2,0.4
	c0.6,0.2,1.1,0.5,1.5,0.8c0.2,0.2,0.4,0.3,0.6,0.3c0.4,0,0.6-0.5,0.7-1.4h0.7c-0.1,1-0.1,2.9-0.1,5.5h-0.7c-0.2-1.4-0.7-2.6-1.4-3.5
	c-0.7-0.9-1.7-1.4-3-1.4c-0.8,0-1.4,0.2-1.9,0.7c-0.5,0.4-0.7,1-0.7,1.8c0,0.7,0.3,1.4,0.8,1.9c0.5,0.5,1.1,1,1.8,1.4
	c0.7,0.4,1.2,0.8,1.5,1c1,0.6,1.8,1.2,2.4,1.7c0.6,0.5,1.1,1.1,1.5,1.7s0.6,1.4,0.6,2.2c0,1-0.2,1.8-0.7,2.4c-0.5,0.7-1.2,1.2-2,1.5
	s-1.8,0.5-2.7,0.5c-1,0-1.8-0.2-2.5-0.5c-0.4-0.2-0.9-0.5-1.3-0.9c-0.1-0.1-0.2-0.1-0.3-0.1c-0.3,0-0.5,0.4-0.7,1.2h-0.7
	c0.1-1.2,0.1-3.4,0.1-6.4h0.7C170.1,31.4,170.4,32.5,170.7,33.4z"/>
<path class="st1" d="M9.7,38.7C5.4,36.4,3,32.1,2.8,26.1C2.6,20,4.6,15.6,8.7,13c1.2-0.7,2.6-1.3,4.2-1.8L14.8,8
	c-2.7,0.4-5.3,1.3-7.6,2.7C3.8,12.9-0.3,17.3,0,26.2c0.3,8.9,4.8,13,8.4,15c2.3,1.2,4.9,1.9,7.8,2.1l-2.1-3.1
	C12.6,39.9,11.1,39.4,9.7,38.7z"/>
<path class="st2" d="M48.1,32.2c-0.1-2.6-0.9-5.2-2.1-7.7l-1.6,3.4c0.5,1.6,0.9,3.1,0.9,4.5c0.2,4.9-2.3,9.1-7.5,12.3
	c-5.1,3.2-9.9,3.7-14.3,1.4c-1.2-0.6-2.5-1.6-3.6-2.8l-3.7,0c1.7,2.2,3.7,4,6.1,5.2c1.8,0.9,4.1,1.7,6.9,1.7c2.9,0,6.3-0.8,10.1-3.3
	C46.8,42.2,48.2,36.3,48.1,32.2z"/>
<path class="st3" d="M22,4.7C26.1,2,31,2.1,36.3,5c5.4,2.8,8.2,6.8,8.4,11.7c0.1,1.5-0.1,3.1-0.6,4.6l1.9,3.2
	c1.1-2.7,1.6-5.4,1.5-7.9c-0.2-4.1-2-9.9-9.9-14.1v0C29.8-1.6,24,0.1,20.5,2.3c-2.3,1.4-4.2,3.4-5.7,5.7l3.7-0.3
	C19.6,6.4,20.8,5.4,22,4.7z"/>
<path class="st0" d="M44.2,21.3C41.3,17,37.1,13.4,33,11.2c-4-2.1-9.2-3.5-14.4-3.5c0,0-0.1,0-0.1,0L14.8,8L13,11.2
	c-2.2,4.6-3.3,10-3.1,14.6c0.2,4.6,1.6,9.9,4.2,14.4l2.1,3.1l3.7,0c0.5,0,1-0.1,1.5-0.1c4.5-0.6,9-2.2,12.7-4.5
	c3.7-2.3,7.1-5.7,9.6-9.5c0.3-0.4,0.5-0.8,0.8-1.2l1.6-3.4L44.2,21.3z M32.6,36.2c-4.1,2.6-9.7,4.3-15,4.3c-2.7-3.8-4.8-9-5-14.8
	c-0.2-5.8,1.4-11.1,3.8-15.1c4.6-0.5,10.1,0.3,15.3,3.1c5.2,2.7,9,6.8,11.2,10.9C40.7,29.4,36.7,33.7,32.6,36.2z"/>
</svg>
