<svg id="Layer_1" data-name="Layer 1" xmlns="http://www.w3.org/2000/svg" viewBox="0 0 1120.1 368.05">
    <defs>
        <style>
            .cls-1{fill:#f2f6f7;stroke:#334c54;stroke-miterlimit:10}.cls-2{fill:#bbe0ea}.cls-3{fill:#334c54}.cls-4{fill:#bae0ea}.cls-5{fill:#fff}.cls-6{fill:#f6dbc6}.cls-7{fill:#bee1c8}
        </style>
    </defs>
    <title>
        Artboard 1
    </title>
    <path class="cls-1" d="M16.3 364c-56-111.46 48.74-177 129.1-149.72s89.92-40.83 146.91-87.26 143.11-69.4 231.05-19.91 100.89 44.48 171.91 37.48 79.47 83 159.75 66S1128.3 200.42 1119.3 364z"/>
    <path class="cls-2" d="M561.95 158.72l13.88-79.31 9.47 79.31h-23.35z"/>
    <path class="cls-3" d="M561.85 158.7q.3-2.5.66-5l.69-5 1.5-10 1.61-9.94c.56-3.31 1.1-6.62 1.7-9.92s1.22-6.6 1.89-9.89l2-9.87c.67-3.29 1.31-6.58 1.9-9.88s1.14-6.61 1.7-9.92l.41-2.39.29 2.41c.4 3.3.9 6.6 1.35 9.89l1.41 9.89 1.34 9.9 1.27 9.9 1.26 9.9c.4 3.3.81 6.61 1.17 9.92s.75 6.61 1.08 9.93l1 9.93.09.89h-.88c-3.89-.05-7.79-.19-11.68-.28s-7.79-.24-11.68-.41h-.11zm.22-.09q5.78-.25 11.55-.41c3.89-.09 7.79-.23 11.68-.28l-.78.88-1.34-9.89c-.46-3.3-.86-6.6-1.29-9.9s-.81-6.61-1.2-9.91l-1.11-9.92-1.1-9.92-1-9.93-1-9.94c-.34-3.31-.63-6.63-1-9.93h.7c-.6 3.3-1.23 6.6-1.77 9.91s-1.08 6.62-1.57 9.94l-1.49 10q-.73 5-1.58 9.94c-.56 3.31-1.17 6.61-1.77 9.91l-1.87 9.84-2 9.87-1 4.93q-.51 2.42-1.06 4.81z"/>
    <path class="cls-4" d="M396.71 340.15h353.82v14.12H396.71z"/>
    <path class="cls-5" d="M437.82 238.03l135.8-59.76 135.81 59.76H437.82z"/>
    <path class="cls-3" d="M437.78 237.93c11.26-5.11 22.49-10.29 33.77-15.34s22.54-10.17 33.85-15.16l33.9-15 34-14.84.32-.14.31.14 33.83 15.21c11.26 5.1 22.58 10.07 33.88 15.1 5.64 2.52 11.32 5 17 7.45l17 7.42 34 14.72 2.73 1.18h-3l-34 .21-34 .13-34 .09h-34c-11.32 0-22.63 0-34-.08l-34-.17-34-.27-34.4-.4zm.54 0l33.45-.39 34-.27 34-.17c11.32-.08 22.63-.07 34-.08h34l34 .09 34 .13 34 .21-.25 1.2-33.85-15.16-17-7.52c-5.66-2.49-11.29-5-17-7.49-11.34-4.93-22.65-9.92-34-14.78L573.31 179h.64L540 194l-34 14.83c-11.32 5-22.7 9.81-34 14.72-11.2 4.87-22.45 9.59-33.67 14.37z"/>
    <path class="cls-4" d="M431.3 255.41h284.64v66.27H431.3zm-9.11-15.21h302.87v8.69H422.19z"/>
    <path class="cls-5" d="M412.29 321.68h322.66v14.12H412.29z"/>
    <path class="cls-3" d="M735.06 335.9l-40.43.41-40.33.24-40.33.11h-40.34l-80.63-.48c-13.44 0-26.89-.11-40.33 0s-26.89 0-40.33.14h-.47v-.47l-.08-14.12v-.54h.55l80.67-.38 40.33-.1H614l40.33.17 40.33.23 40.33.35h.25v.24zm-.2-.2l-.14-14 .24.24-40.33.35-40.33.23-40.33.17h-80.68l-40.33-.1-80.67-.38.55-.55-.08 14.12-.47-.47q20.17.14 40.33.14c13.44.06 26.89 0 40.33 0l80.67-.47h40.34l40.33.11 40.33.24z"/>
    <path class="cls-5" d="M412.29 246.72h322.66v8.69H412.29z"/>
    <path class="cls-3" d="M734.86 246.82l-40.23.42-40.33.24-40.33.11c-13.44.07-26.89 0-40.33 0l-40.33-.24c-13.44-.08-26.89-.22-40.33-.23l-20.19-.12h-20.17q-20.17 0-40.33.16l.5-.5v8.69l-.55-.55 80.67-.39 40.33-.1h80.66l40.33.18 40.33.25 40.33.37-.19.19zm.2-.2l.09 8.79v.19H735l-40.33.37-40.33.25-40.34.18h-80.71l-40.33-.1-80.67-.3h-.55v-9.73h.5q20.17.13 40.33.16h20.17l20.17-.06c13.44 0 26.89-.15 40.33-.23l40.33-.24c13.44 0 26.89-.1 40.33 0l40.33.11 40.33.24z"/>
    <path class="cls-5" d="M380.47 349.93h386.31v14.12H380.47z"/>
    <path class="cls-3" d="M766.88 364.15l-48.39.42-48.29.24-48.29.11c-16.1.06-32.19 0-48.29 0l-96.62-.5-24.14-.06h-24.14l-48.29.15H380V364l-.07-14.12v-.55h.55L477 349l48.29-.1h96.58l48.29.22 48.29.22 24.14.12 24.14.21h.27v.22zm-.2-.2l-.12-14 .22.22-24.14.21-24.14.12-48.29.22-48.29.22h-96.58l-48.29-.1-96.58-.39.55-.55L381 364l-.48-.48 48.29.15h24.14l24.14-.06 96.58-.47c16.1 0 32.19-.09 48.29 0l48.29.11 48.29.24zM395.43 246.72l14.57-.19 38.41-.37c15.89-.08 34.44-.27 54.31-.31l62.25-.13 62.25.13c19.87 0 38.41.22 54.31.3l38.41.37 14.57.19-14.57.19-38.41.37c-15.89.08-34.44.27-54.31.3l-62.25.13-62.25-.13c-19.87 0-38.41-.22-54.31-.31l-38.41-.35zm21.72 8.69l14.57-.19 38.41-.37c15.89-.08 34.44-.27 54.31-.31l62.25-.13 62.25.13c19.87 0 38.41.22 54.31.3l38.41.37 14.57.19-14.57.19-38.41.37c-15.89.08-34.44.27-54.31.3l-62.25.13-62.25-.13c-19.87 0-38.41-.22-54.31-.31l-38.41-.37z"/>
    <path class="cls-3" d="M359.94 349.93l18.55-.19 48.91-.37 69.15-.31 79.27-.13 79.27.13 69.15.3 48.91.37 18.55.19-18.55.19-48.91.37-69.15.3-79.27.13-79.27-.13-69.15-.31-48.91-.37zm36.34-14.13l16.57-.19 43.69-.37 61.77-.31 70.81-.13 70.81.13c22.6 0 43.69.22 61.77.3l43.69.37 16.57.19-16.57.19-43.69.37c-18.08.08-39.17.27-61.77.3l-70.81.13-70.81-.13-61.77-.31-43.69-.34zm35.02-30.17s-.07-.67-.15-1.84-.2-2.85-.28-4.86-.18-4.35-.23-6.87-.07-5.19-.09-7.87 0-5.36.09-7.87.13-4.86.23-6.87.22-3.68.28-4.86.15-1.84.15-1.84.07.67.15 1.84.2 2.85.28 4.86.18 4.35.23 6.87.07 5.19.09 7.87 0 5.36-.09 7.87-.13 4.86-.23 6.87-.22 3.68-.28 4.86-.15 1.84-.15 1.84zM444.78 317s-.12-.67-.24-1.84-.25-2.85-.32-4.86c0-1-.05-2.09 0-3.24s.16-2.37.25-3.62.18-2.55.18-3.87-.09-2.66-.18-4-.22-2.68-.25-4l-.11-3.87v-3.62c0-1.15.07-2.24.11-3.24s.11-1.93.18-2.74.12-1.53.19-2.11c.13-1.17.22-1.84.22-1.84h.15s.1.67.22 1.84c.07.59.11 1.3.19 2.11s.13 1.74.18 2.74.09 2.09.11 3.24 0 2.37 0 3.62l-.11 3.87c0 1.32-.15 2.66-.25 4s-.19 2.68-.18 4 .06 2.62.18 3.87.22 2.47.25 3.62 0 2.24 0 3.24c-.07 2-.19 3.68-.32 4.86s-.24 1.84-.24 1.84zm13.63-7s-.07-.67-.15-1.84-.2-2.85-.28-4.86-.18-4.35-.23-6.87-.07-5.19-.09-7.87 0-5.36.09-7.87.13-4.86.23-6.87.22-3.68.28-4.86.15-1.84.15-1.84.07.67.15 1.84.2 2.85.28 4.86.18 4.35.23 6.87.07 5.19.09 7.87 0 5.36-.09 7.87-.13 4.86-.23 6.87-.22 3.68-.28 4.86-.15 1.84-.15 1.84zm13.48 4.87s-.12-.67-.24-1.84-.25-2.85-.32-4.86c0-1-.05-2.09 0-3.24s.16-2.37.25-3.62.18-2.55.18-3.87-.09-2.66-.18-4-.22-2.68-.25-4l-.11-3.87v-3.62c0-1.15.07-2.24.11-3.24s.11-1.93.18-2.74.12-1.53.19-2.11c.13-1.17.22-1.84.22-1.84h.08s.1.67.22 1.84c.07.59.11 1.3.19 2.11s.13 1.74.18 2.74.09 2.09.11 3.24 0 2.37 0 3.62l-.11 3.87c0 1.32-.15 2.66-.25 4s-.19 2.68-.18 4 .06 2.62.18 3.87.22 2.47.25 3.62 0 2.24 0 3.24c-.07 2-.19 3.68-.32 4.86s-.24 1.84-.24 1.84zm13.63-7.87s-.07-.67-.15-1.84-.2-2.85-.28-4.86-.18-4.35-.23-6.87-.07-5.19-.09-7.87 0-5.36.09-7.87.13-4.86.23-6.87.22-3.68.28-4.86.15-1.84.15-1.84.07.67.15 1.84.2 2.85.28 4.86.18 4.35.23 6.87.07 5.19.09 7.87 0 5.36-.09 7.87-.13 4.86-.23 6.87-.22 3.68-.28 4.86-.15 1.84-.15 1.84zm13.48-5.71s-.12-.67-.24-1.84-.25-2.85-.32-4.86c0-1-.05-2.09 0-3.24s.16-2.37.25-3.62.18-2.55.18-3.87-.09-2.66-.18-4-.22-2.68-.25-4l-.14-3.86v-3.62c0-1.15.07-2.24.11-3.24s.11-1.93.18-2.74.12-1.53.19-2.11c.13-1.17.22-1.84.22-1.84h.15s.1.67.22 1.84c.07.59.11 1.3.19 2.11s.13 1.74.18 2.74.09 2.09.11 3.24 0 2.37 0 3.62l-.11 3.87c0 1.32-.15 2.66-.25 4s-.19 2.68-.18 4 .06 2.62.18 3.87.22 2.47.25 3.62 0 2.24 0 3.24c-.07 2-.19 3.68-.32 4.86s-.24 1.84-.24 1.84zm13.63 14.96s-.07-.67-.15-1.84-.2-2.85-.28-4.86-.18-4.35-.23-6.87-.07-5.19-.09-7.87 0-5.36.09-7.87.13-4.86.23-6.87.22-3.68.28-4.86.15-1.84.15-1.84.07.67.15 1.84.2 2.85.28 4.86.18 4.35.23 6.87.07 5.19.09 7.87 0 5.36-.09 7.87-.13 4.86-.23 6.87-.22 3.68-.28 4.86-.15 1.84-.15 1.84zm13.48-12.79s-.12-.67-.24-1.84-.25-2.85-.32-4.86c0-1-.05-2.09 0-3.24s.16-2.37.25-3.62.18-2.55.18-3.87-.09-2.66-.18-4-.22-2.68-.25-4l-.11-3.87v-3.62c0-1.15.07-2.24.11-3.24s.11-1.93.18-2.74.12-1.53.19-2.11c.13-1.17.22-1.84.22-1.84h.15s.1.67.22 1.84c.07.59.11 1.3.19 2.11s.13 1.74.18 2.74.09 2.09.11 3.24 0 2.37 0 3.62l-.11 3.87c0 1.32-.15 2.66-.25 4s-.19 2.68-.18 4 .06 2.62.18 3.87.22 2.47.25 3.62 0 2.24 0 3.24c-.07 2-.19 3.68-.32 4.86s-.24 1.84-.24 1.84zm13.63 11.95s-.07-.67-.15-1.84-.2-2.85-.28-4.86-.18-4.35-.23-6.87-.08-5.19-.08-7.84 0-5.36.09-7.87.13-4.86.23-6.87.22-3.68.28-4.86.15-1.84.15-1.84.07.67.15 1.84.2 2.85.28 4.86.18 4.35.23 6.87.07 5.19.09 7.87 0 5.36-.09 7.87-.13 4.86-.23 6.87-.22 3.68-.28 4.86-.16 1.81-.16 1.81zm13.48 2.18s-.12-.67-.24-1.84-.25-2.85-.32-4.86c0-1-.05-2.09 0-3.24s.16-2.37.25-3.62.18-2.55.18-3.87-.09-2.66-.18-4-.22-2.68-.25-4l-.11-3.87v-3.62c0-1.15.07-2.24.11-3.24s.11-1.93.18-2.74.12-1.53.19-2.11c.13-1.17.22-1.84.22-1.84h.15s.1.67.22 1.84c.07.59.11 1.3.19 2.11s.13 1.74.18 2.74.09 2.09.11 3.24 0 2.37 0 3.62l-.11 3.87c0 1.32-.15 2.66-.25 4s-.19 2.68-.18 4 .06 2.62.18 3.87.22 2.47.25 3.62 0 2.24 0 3.24c-.07 2-.19 3.68-.32 4.86s-.24 1.84-.24 1.84zm13.63-16.3s-.07-.67-.15-1.84-.2-2.85-.28-4.86-.18-4.35-.23-6.87-.07-5.19-.09-7.87 0-5.36.09-7.87.13-4.86.23-6.87.22-3.68.28-4.86.15-1.84.15-1.84.07.67.15 1.84.2 2.85.28 4.86.18 4.35.23 6.87.07 5.19.09 7.87 0 5.36-.09 7.87-.13 4.86-.23 6.87-.22 3.68-.28 4.86-.15 1.84-.15 1.84zm13.48 2.17s-.12-.67-.24-1.84-.25-2.85-.32-4.86c0-1-.05-2.09 0-3.24s.16-2.37.25-3.62.18-2.55.18-3.87-.09-2.66-.18-4-.22-2.68-.25-4l-.11-3.87v-3.62c0-1.15.07-2.24.11-3.24s.11-1.93.18-2.74.12-1.53.19-2.11c.13-1.17.22-1.84.22-1.84h.15s.1.67.22 1.84c.07.59.11 1.3.19 2.11s.13 1.74.18 2.74.09 2.09.11 3.24 0 2.37 0 3.62l-.11 3.87c0 1.32-.15 2.66-.25 4s-.19 2.68-.18 4 .06 2.62.18 3.87.22 2.47.25 3.62 0 2.24 0 3.24c-.07 2-.19 3.68-.32 4.86s-.24 1.84-.24 1.84zM594 317.59s-.07-.67-.15-1.84-.2-2.85-.28-4.86-.18-4.35-.23-6.87-.07-5.19-.09-7.87 0-5.36.09-7.87.13-4.86.23-6.87.22-3.68.28-4.86.15-1.84.15-1.84.07.67.15 1.84.2 2.85.28 4.86.18 4.35.23 6.87.07 5.19.09 7.87 0 5.36-.09 7.87-.13 4.86-.23 6.87-.22 3.68-.28 4.86-.15 1.84-.15 1.84zm13.44-7.59s-.12-.67-.24-1.84-.25-2.85-.32-4.86c0-1-.05-2.09 0-3.24s.16-2.37.25-3.62.18-2.55.18-3.87-.09-2.66-.18-4-.22-2.68-.25-4l-.11-3.87v-3.62c0-1.15.07-2.24.11-3.24s.11-1.93.18-2.74.12-1.53.19-2.11c.13-1.17.22-1.84.22-1.84h.15s.1.67.22 1.84c.07.59.11 1.3.19 2.11s.13 1.74.18 2.74.09 2.09.11 3.24 0 2.37 0 3.62l-.11 3.87c0 1.32-.15 2.66-.25 4s-.19 2.68-.18 4 .06 2.62.18 3.87.22 2.47.25 3.62 0 2.24 0 3.24c-.07 2-.19 3.68-.32 4.86s-.24 1.84-.24 1.84zm13.62-6.54s-.07-.67-.15-1.84-.2-2.85-.28-4.86-.18-4.35-.23-6.87-.07-5.19-.09-7.87 0-5.36.09-7.87.13-4.86.23-6.87.22-3.68.28-4.86.15-1.84.15-1.84.07.67.15 1.84.2 2.85.28 4.86.18 4.35.23 6.87.07 5.19.09 7.87 0 5.36-.09 7.87-.13 4.86-.23 6.87-.22 3.68-.28 4.86-.15 1.84-.15 1.84zm13.48 6.54s-.12-.67-.24-1.84-.25-2.85-.32-4.86c0-1-.05-2.09 0-3.24s.16-2.37.25-3.62.18-2.55.18-3.87-.09-2.66-.18-4-.22-2.68-.25-4l-.11-3.87v-3.62c0-1.15.07-2.24.11-3.24s.11-1.93.18-2.74.12-1.53.19-2.11c.13-1.17.22-1.84.22-1.84h.15s.1.67.22 1.84c.07.59.11 1.3.19 2.11s.13 1.74.18 2.74.09 2.09.11 3.24 0 2.37 0 3.62l-.11 3.87c0 1.32-.15 2.66-.25 4s-.19 2.68-.18 4 .06 2.62.18 3.87.22 2.47.25 3.62 0 2.24 0 3.24c-.07 2-.19 3.68-.32 4.86s-.24 1.84-.24 1.84zm13.63-6.54s-.07-.67-.15-1.84-.2-2.85-.28-4.86-.18-4.35-.23-6.87-.07-5.19-.09-7.87 0-5.36.09-7.87.13-4.86.23-6.87.22-3.68.28-4.86.15-1.84.15-1.84.07.67.15 1.84.2 2.85.28 4.86.18 4.35.23 6.87.07 5.19.09 7.87 0 5.36-.09 7.87-.13 4.86-.23 6.87-.22 3.68-.28 4.86-.15 1.84-.15 1.84zm13.48 6.54s-.12-.67-.24-1.84-.25-2.85-.32-4.86c0-1-.05-2.09 0-3.24s.16-2.37.25-3.62.18-2.55.18-3.87-.09-2.66-.18-4-.22-2.68-.25-4l-.11-3.87v-3.62c0-1.15.07-2.24.11-3.24s.11-1.93.18-2.74.12-1.53.19-2.11c.13-1.17.22-1.84.22-1.84h.15s.1.67.22 1.84c.07.59.11 1.3.19 2.11s.13 1.74.18 2.74.09 2.09.11 3.24 0 2.37 0 3.62l-.11 3.87c0 1.32-.15 2.66-.25 4s-.19 2.68-.18 4 .06 2.62.18 3.87.22 2.47.25 3.62 0 2.24 0 3.24c-.07 2-.19 3.68-.32 4.86s-.24 1.84-.24 1.84zm13.63 7.59s-.07-.67-.15-1.84-.2-2.85-.28-4.86-.18-4.35-.23-6.87-.07-5.19-.09-7.87 0-5.36.09-7.87.13-4.86.23-6.87.22-3.68.28-4.86.15-1.84.15-1.84.07.67.15 1.84.2 2.85.28 4.86.18 4.35.23 6.87.07 5.19.09 7.87 0 5.36-.09 7.87-.13 4.86-.23 6.87-.22 3.68-.28 4.86-.15 1.84-.15 1.84zm13.48-7.59s-.12-.67-.24-1.84-.25-2.85-.32-4.86c0-1-.05-2.09 0-3.24s.16-2.37.25-3.62.18-2.55.18-3.87-.09-2.66-.18-4-.22-2.68-.25-4l-.11-3.87v-3.62c0-1.15.07-2.24.11-3.24s.11-1.93.18-2.74.12-1.53.19-2.11c.13-1.17.22-1.84.22-1.84h.15s.1.67.22 1.84c.07.59.11 1.3.19 2.11s.13 1.74.18 2.74.09 2.09.11 3.24 0 2.37 0 3.62l-.11 3.87c0 1.32-.15 2.66-.25 4s-.19 2.68-.18 4 .06 2.62.18 3.87.22 2.47.25 3.62 0 2.24 0 3.24c-.07 2-.19 3.68-.32 4.86s-.24 1.84-.24 1.84zm13.63-6.54s-.07-.67-.15-1.84-.2-2.85-.28-4.86-.18-4.35-.23-6.87-.07-5.19-.09-7.87 0-5.36.09-7.87.13-4.86.23-6.87.22-3.68.28-4.86.15-1.84.15-1.84.07.67.15 1.84.2 2.85.28 4.86.18 4.35.23 6.87.07 5.19.09 7.87 0 5.36-.09 7.87-.13 4.86-.23 6.87-.22 3.68-.28 4.86-.15 1.84-.15 1.84zm13.48 9.78s-.12-.67-.24-1.84-.25-2.85-.32-4.86c0-1-.05-2.09 0-3.24s.16-2.37.25-3.62.18-2.55.18-3.87-.09-2.66-.18-4-.22-2.68-.25-4l-.11-3.87v-3.62c0-1.15.07-2.24.11-3.24s.11-1.93.18-2.74.12-1.53.19-2.11c.13-1.17.22-1.84.22-1.84h.1s.1.67.22 1.84c.07.59.11 1.3.19 2.11s.13 1.74.18 2.74.09 2.09.11 3.24 0 2.37 0 3.62l-.11 3.87c0 1.32-.15 2.66-.25 4s-.19 2.68-.18 4 .06 2.62.18 3.87.22 2.47.25 3.62 0 2.24 0 3.24c-.07 2-.19 3.68-.32 4.86s-.24 1.84-.24 1.84z"/>
    <path class="cls-2" d="M551.08 175.01h45.09v63.01h-45.09z"/>
    <path class="cls-3" d="M551.19 175.12c.12 2.59.19 5.18.27 7.77s.14 5.25.19 7.88l.16 7.88.1 7.88.05 7.88v7.88c0 5.25-.12 10.5-.24 15.75l-.65-.65 11.27.24q5.64.1 11.27.11l11.27-.06 11.27-.18-.55.55c-.1-5.25-.22-10.5-.28-15.75l-.15-15.75c0-5.25-.1-10.5-.09-15.75s0-10.5.05-15.75l1 1-11.27-.14c-3.76-.06-7.51-.08-11.27-.17l-11.27-.25c-3.69-.14-7.41-.22-11.13-.37zm-.1-.2c3.76-.15 7.51-.24 11.27-.36l11.27-.25c3.76-.09 7.51-.11 11.27-.17l11.27-.14h1v1c0 5.25.07 10.5.05 15.75s-.06 10.5-.09 15.75l-.13 15.77c-.05 5.25-.17 10.5-.28 15.75v.56h-.54l-11.27-.18-11.27-.06q-5.64 0-11.27.11l-11.27.24h-.64V238c-.12-5.25-.23-10.5-.24-15.75v-7.88l.05-7.88.1-7.88.16-7.88c.05-2.63.1-5.25.19-7.88s.16-5.25.28-7.88v-.1z"/>
    <path class="cls-3" d="M539.74 174.94s1.06-.11 2.91-.24 4.5-.26 7.68-.32c1.59 0 3.31-.05 5.13 0s3.74.16 5.72.25 4 .18 6.12.18 4.2-.09 6.32-.18 4.24-.2 6.32-.25l6.12-.12h5.72c1.82 0 3.54.07 5.13.13s3 .09 4.33.17 2.42.12 3.34.19c1.85.13 2.91.22 2.91.22v.15s-1.06.1-2.91.22c-.93.07-2.05.11-3.34.19s-2.75.12-4.33.17-3.31.11-5.13.13-3.74 0-5.72 0l-6.12-.12c-2.08-.05-4.2-.14-6.32-.25s-4.24-.19-6.32-.18-4.14.06-6.12.18-3.9.22-5.72.25-3.54 0-5.13 0c-3.18-.07-5.82-.19-7.68-.32s-2.91-.24-2.91-.24zM434.83 238l13-.19c8.28-.08 20.11-.28 34.31-.37s30.76-.27 48.51-.31l55.6-.13 55.6.13c17.75 0 34.31.22 48.51.3s26 .29 34.31.37l13 .19-13 .19c-8.28.08-20.11.28-34.31.37s-30.76.27-48.51.3l-55.6.13-55.6-.13c-17.75 0-34.31-.22-48.51-.31s-26-.29-34.31-.37z"/>
    <circle class="cls-5" cx="573.62" cy="206.52" r="13.07"/>
    <path class="cls-3" d="M586.79 206.52v.92a7.51 7.51 0 0 1-.11 1.11 11.88 11.88 0 0 1-.27 1.49 14.91 14.91 0 0 1-1.47 3.86 13.2 13.2 0 0 1-3.58 4.13 12.49 12.49 0 0 1-6.12 2.33c-.6 0-1.15.06-1.81 0a13.32 13.32 0 0 1-1.75-.24 13.14 13.14 0 0 1-3.53-1.21 15.76 15.76 0 0 1-3.11-2.15 16.82 16.82 0 0 1-2.52-2.89 14.18 14.18 0 0 1-2.08-11.4 13.81 13.81 0 0 1 1.6-3.71 14 14 0 0 1 5.91-5.17 12.75 12.75 0 0 1 3.66-1.08 13.3 13.3 0 0 1 1.85-.16h.91c.29 0 .54 0 .85.07a13 13 0 0 1 6.18 2.45 13.42 13.42 0 0 1 3.57 4.16 14.87 14.87 0 0 1 1.46 3.87 11.68 11.68 0 0 1 .26 1.49 7.51 7.51 0 0 1 .11 1.11v.93zm-.2 0l-.06-.91a7.31 7.31 0 0 0-.14-1.09 8.18 8.18 0 0 0-.36-1.43 10.93 10.93 0 0 0-1.85-3.48 13.07 13.07 0 0 0-3.76-3.25 14.14 14.14 0 0 0-5.38-1.77 13.18 13.18 0 0 0-6.28.94 12.66 12.66 0 0 0-2.9 1.72 13.51 13.51 0 0 0-2.38 2.54 14.34 14.34 0 0 0-1.64 3.16 13.62 13.62 0 0 0-.73 3.57 13.87 13.87 0 0 0 .37 3.68 12.38 12.38 0 0 0 1.52 3.38 12 12 0 0 0 2.47 2.68 11.85 11.85 0 0 0 3.09 1.71 12.17 12.17 0 0 0 3.26.73 13.53 13.53 0 0 0 1.67 0c.47 0 1-.06 1.53-.13a14.93 14.93 0 0 0 5.44-1.9 13.34 13.34 0 0 0 3.75-3.28A10.91 10.91 0 0 0 586 210a8.09 8.09 0 0 0 .36-1.43 7.29 7.29 0 0 0 .14-1.09l.06-.92z"/>
    <path class="cls-6" d="M133.53 356.85h183.56v11.2H133.53z"/>
    <path class="cls-5" d="M148.85 289.2l76.9-45.69 76.89 45.69H148.85z"/>
    <path class="cls-3" d="M148.8 289.12c3.15-2 6.32-4 9.48-5.93s6.33-3.94 9.52-5.87c6.36-3.88 12.7-7.81 19.1-11.63l19.17-11.52c6.43-3.76 12.82-7.6 19.3-11.3l.4-.23.37.23 19.07 11.69c3.17 2 6.38 3.86 9.57 5.79l9.59 5.76c6.43 3.77 12.83 7.6 19.29 11.31L303 288.59l2.24 1.29h-2.6q-19.22.22-38.45.28l-19.22.07h-19.22q-9.61 0-19.22-.1L187.3 290l-19.22-.27-19.56-.39zm.45 0l18.83-.38 19.22-.27 19.22-.17q9.61-.11 19.22-.1h19.22l19.22.07q19.22.08 38.45.28l-.36 1.32-19.08-11.66c-6.35-3.9-12.77-7.69-19.16-11.54L254.4 261c-3.22-1.88-6.42-3.79-9.66-5.63l-19.38-11.16h.77c-6.34 3.91-12.77 7.69-19.15 11.54L187.7 267c-6.41 3.8-12.89 7.48-19.35 11.22q-4.84 2.81-9.71 5.55c-3.12 1.8-6.25 3.58-9.39 5.32z"/>
    <path class="cls-6" d="M147.58 302.49h155.45v50.67H147.58zM140 290.86h171.49v6.65H140z"/>
    <path class="cls-3" d="M317.44 364.06l-11.6.23-11.5.18-23 .25-23 .1c-3.83 0-7.67.06-11.5 0h-11.5c-7.67 0-15.34-.14-23-.21l-11.5-.14c-3.83 0-7.67-.11-11.5-.12-7.67 0-15.34-.12-23-.07s-15.34 0-23 .13h-.44V364l-.1-10.8v-.54h.55l23-.24 23-.15 23-.1h46l23 .16q11.5.07 23 .22c7.67.09 15.34.18 23 .33h.3v.28zm-.2-.2l-.19-10.7.29.29c-7.67.15-15.34.24-23 .33s-15.34.17-23 .22l-23 .16h-46l-23-.1-23-.15-23-.24.55-.55-.1 10.8-.44-.44c7.67.1 15.34.09 23 .13s15.34 0 23-.07c3.83 0 7.67-.08 11.5-.12l11.5-.14c7.67-.08 15.34-.21 23-.21h23l23 .1 23 .25 11.5.18z"/>
    <path class="cls-5" d="M134.4 295.85h182.7v6.65H134.4z"/>
    <path class="cls-3" d="M317 295.95l-11.32.23-11.42.18-22.84.24-22.84.11c-7.61.06-15.22 0-22.84 0s-15.22-.16-22.84-.23-15.22-.23-22.84-.24l-11.42-.06H145.8l-11.42.11.48-.48.07 6.65-.55-.55 22.84-.24 22.84-.15 22.84-.1c7.61-.05 15.22 0 22.84 0h22.84l22.84.18c7.61 0 15.22.14 22.84.24s15.22.21 22.84.36l-.22.22zm.2-.2l.12 6.74v.22h-.22c-7.61.15-15.22.28-22.84.36s-15.22.2-22.84.24l-22.84.18H202.9l-22.84-.1-22.84-.15-22.82-.24h-.55v-.54l.07-6.65v-.49h.48l11.42.11h11.42c3.81 0 7.61.05 11.42 0l11.42-.06c7.61 0 15.22-.16 22.84-.24s15.22-.22 22.84-.23 15.22-.09 22.84 0l22.84.11 22.84.24 11.42.18z"/>
    <path class="cls-3" d="M124.85 295.85l8.25-.19c5.25-.08 12.75-.28 21.75-.37s19.5-.27 30.75-.31l35.25-.13 35.25.13c11.25 0 21.75.22 30.75.3s16.5.29 21.75.37l8.25.19-8.25.19c-5.25.08-12.75.28-21.75.37s-19.5.27-30.75.3l-35.25.13-35.25-.13c-11.25 0-21.75-.22-30.75-.31s-16.5-.29-21.75-.37zm12.3 6.64l8.25-.19c5.25-.08 12.75-.28 21.75-.37s19.5-.27 30.75-.31l35.25-.13 35.25.13c11.25 0 21.75.22 30.75.3s16.5.29 21.75.37l8.25.19-8.25.19c-5.25.08-12.75.28-21.75.37s-19.5.27-30.75.3l-35.25.13-35.25-.13c-11.25 0-21.75-.22-30.75-.31s-16.5-.29-21.75-.37zM147.51 348s-.12-.51-.24-1.41-.25-2.18-.32-3.71c0-.77-.05-1.6 0-2.48s.15-1.81.25-2.77a22.91 22.91 0 0 0 .18-3c0-1-.09-2-.18-3.06s-.22-2-.25-3.06l-.11-3v-2.77c0-.88.07-1.71.11-2.48a46.31 46.31 0 0 1 .59-5.12h.15a46.29 46.29 0 0 1 .59 5.12c0 .77.09 1.6.11 2.48s0 1.81 0 2.77l-.11 3c0 1-.15 2-.25 3.06s-.19 2-.18 3.06a22.91 22.91 0 0 0 .18 3c.1 1 .23 1.89.25 2.77s0 1.71 0 2.48c-.07 1.54-.19 2.82-.32 3.71s-.24 1.41-.24 1.41zm10.43-6.08s-.25-2-.43-5.12c-.1-1.54-.18-3.33-.23-5.25s-.07-4-.09-6 0-4.1.09-6 .13-3.71.23-5.25c.18-3.07.43-5.12.43-5.12s.25 2 .43 5.12c.1 1.54.18 3.33.23 5.25s.07 4 .09 6 0 4.1-.09 6-.13 3.71-.23 5.25c-.17 3.07-.43 5.12-.43 5.12zm10.29-4.35s-.12-.51-.24-1.41-.25-2.18-.32-3.71c0-.77-.05-1.6 0-2.48s.15-1.81.25-2.77a22.91 22.91 0 0 0 .18-3c0-1-.09-2-.18-3.06s-.22-2-.25-3.06l-.11-3v-2.77c0-.88.07-1.71.11-2.48a46.3 46.3 0 0 1 .59-5.12h.15a46.31 46.31 0 0 1 .59 5.12c0 .77.09 1.6.11 2.48s0 1.81 0 2.77l-.11 3c0 1-.15 2-.25 3.06s-.19 2-.18 3.06a22.91 22.91 0 0 0 .18 3c.1 1 .23 1.89.25 2.77s0 1.71 0 2.48c-.07 1.54-.19 2.82-.32 3.71s-.24 1.41-.24 1.41zM178.67 349s-.25-2-.43-5.12c-.1-1.54-.18-3.33-.23-5.25s-.07-4-.09-6 0-4.1.09-6 .13-3.71.23-5.25c.18-3.07.43-5.12.43-5.12s.25 2 .43 5.12c.1 1.54.18 3.33.23 5.25s.07 4 .09 6 0 4.1-.09 6-.13 3.71-.23 5.25c-.18 3.12-.43 5.12-.43 5.12zm10.33-9.77s-.12-.51-.24-1.41-.25-2.18-.32-3.71c0-.77-.05-1.6 0-2.48s.15-1.81.25-2.77a22.91 22.91 0 0 0 .18-3c0-1-.09-2-.18-3.06s-.22-2-.25-3.06l-.11-3v-2.77c0-.88.07-1.71.11-2.48a46.3 46.3 0 0 1 .59-5.12h.15a46.3 46.3 0 0 1 .59 5.12c0 .77.09 1.6.11 2.48s0 1.81 0 2.77l-.11 3c0 1-.15 2-.25 3.06s-.19 2-.18 3.06a22.9 22.9 0 0 0 .18 3c.1 1 .23 1.89.25 2.77s0 1.71 0 2.48c-.07 1.54-.19 2.82-.32 3.71s-.24 1.41-.24 1.41zm10.4 9.14s-.25-2-.43-5.12c-.1-1.54-.18-3.33-.23-5.25s-.07-4-.09-6 0-4.1.09-6 .13-3.71.23-5.25c.18-3.07.43-5.12.43-5.12s.25 2 .43 5.12c.1 1.54.18 3.33.23 5.25s.07 4 .09 6 0 4.1-.09 6-.13 3.71-.23 5.25c-.18 3.07-.43 5.12-.43 5.12zm10.29 1.63s-.12-.51-.24-1.41-.25-2.18-.32-3.71c0-.77-.05-1.6 0-2.48s.15-1.81.25-2.77a22.91 22.91 0 0 0 .18-3c0-1-.09-2-.18-3.06s-.22-2-.25-3.06l-.11-3v-2.77c0-.88.07-1.71.11-2.48a46.29 46.29 0 0 1 .59-5.12h.15a46.29 46.29 0 0 1 .59 5.12c0 .77.09 1.6.11 2.48s0 1.81 0 2.77l-.11 3c0 1-.15 2-.25 3.06s-.19 2-.18 3.06a22.91 22.91 0 0 0 .18 3c.1 1 .23 1.89.25 2.77s0 1.71 0 2.48c-.07 1.54-.19 2.82-.32 3.71s-.24 1.41-.24 1.41zm10.44-12.43s-.25-2-.43-5.12c-.1-1.54-.18-3.33-.23-5.25s-.07-4-.09-6 0-4.1.09-6 .13-3.71.23-5.25c.18-3.07.43-5.12.43-5.12s.25 2 .43 5.12c.1 1.54.18 3.33.23 5.25s.07 4 .09 6 0 4.1-.09 6-.13 3.71-.23 5.25c-.18 3.07-.43 5.12-.43 5.12zm10.28 1.66s-.12-.51-.24-1.41-.25-2.18-.32-3.71c0-.77-.05-1.6 0-2.48s.15-1.81.25-2.77a22.9 22.9 0 0 0 .18-3c0-1-.09-2-.18-3.06s-.22-2-.25-3.06l-.11-3v-2.77c0-.88.07-1.71.11-2.48a46.3 46.3 0 0 1 .59-5.12h.15a46.3 46.3 0 0 1 .59 5.12c0 .77.09 1.6.11 2.48s0 1.81 0 2.77l-.11 3c0 1-.15 2-.25 3.06s-.19 2-.18 3.06a22.9 22.9 0 0 0 .18 3c.1 1 .23 1.89.25 2.77s0 1.71 0 2.48c-.07 1.54-.19 2.82-.32 3.71s-.24 1.41-.24 1.41zM240.85 350s-.25-2-.43-5.12c-.1-1.54-.18-3.33-.23-5.25s-.07-4-.09-6 0-4.1.09-6 .13-3.71.23-5.25c.18-3.07.43-5.12.43-5.12s.25 2 .43 5.12c.1 1.54.18 3.33.23 5.25s.07 4 .09 6 0 4.1-.09 6-.13 3.71-.23 5.25c-.18 3.12-.43 5.12-.43 5.12zm10.29-5.78s-.12-.51-.24-1.41-.25-2.18-.32-3.71c0-.77-.05-1.6 0-2.48s.15-1.81.25-2.77a22.91 22.91 0 0 0 .18-3c0-1-.09-2-.18-3.06s-.22-2-.25-3.06l-.11-3v-2.77c0-.88.07-1.71.11-2.48a46.29 46.29 0 0 1 .59-5.12h.15a46.29 46.29 0 0 1 .59 5.12c0 .77.09 1.6.11 2.48s0 1.81 0 2.77l-.11 3c0 1-.15 2-.25 3.06s-.19 2-.18 3.06a22.91 22.91 0 0 0 .18 3c.1 1 .23 1.89.25 2.77s0 1.71 0 2.48c-.07 1.54-.19 2.82-.32 3.71s-.24 1.41-.24 1.41zm10.44-4.99s-.25-2-.43-5.12c-.1-1.54-.18-3.33-.23-5.25s-.07-4-.09-6 0-4.1.09-6 .13-3.71.23-5.25c.18-3.07.43-5.12.43-5.12s.25 2 .43 5.12c.1 1.54.18 3.33.23 5.25s.07 4 .09 6 0 4.1-.09 6-.13 3.71-.23 5.25c-.18 3.07-.43 5.12-.43 5.12zm10.29 4.99s-.12-.51-.24-1.41-.25-2.18-.32-3.71c0-.77-.05-1.6 0-2.48s.15-1.81.25-2.77a22.9 22.9 0 0 0 .18-3c0-1-.09-2-.18-3.06s-.22-2-.25-3.06l-.11-3v-2.77c0-.88.07-1.71.11-2.48a46.3 46.3 0 0 1 .59-5.12h.1a46.3 46.3 0 0 1 .59 5.12c0 .77.09 1.6.11 2.48s0 1.81 0 2.77l-.11 3c0 1-.15 2-.25 3.06s-.19 2-.18 3.06a22.91 22.91 0 0 0 .18 3c.1 1 .23 1.89.25 2.77s0 1.71 0 2.48c-.07 1.54-.19 2.82-.32 3.71s-.24 1.41-.24 1.41zm10.44-4.99s-.25-2-.43-5.12c-.1-1.54-.18-3.33-.23-5.25s-.07-4-.09-6 0-4.1.09-6 .13-3.71.23-5.25c.18-3.07.43-5.12.43-5.12s.25 2 .43 5.12c.1 1.54.18 3.33.23 5.25s.07 4 .09 6 0 4.1-.09 6-.13 3.71-.23 5.25c-.18 3.07-.43 5.12-.43 5.12zm10.28 4.99s-.12-.51-.24-1.41-.25-2.18-.32-3.71c0-.77-.05-1.6 0-2.48s.15-1.81.25-2.77a22.91 22.91 0 0 0 .18-3c0-1-.09-2-.18-3.06s-.22-2-.25-3.06l-.11-3v-2.77c0-.88.07-1.71.11-2.48a46.31 46.31 0 0 1 .59-5.12h.15a46.3 46.3 0 0 1 .59 5.12c0 .77.09 1.6.11 2.48s0 1.81 0 2.77l-.11 3c0 1-.15 2-.25 3.06s-.19 2-.18 3.06a22.91 22.91 0 0 0 .18 3c.1 1 .23 1.89.25 2.77s0 1.71 0 2.48c-.07 1.54-.19 2.82-.32 3.71s-.24 1.41-.24 1.41zM303 350s-.25-2-.43-5.12c-.1-1.54-.18-3.33-.23-5.25s-.07-4-.09-6 0-4.1.09-6 .13-3.71.23-5.25c.18-3.07.43-5.12.43-5.12s.25 2 .43 5.12c.1 1.54.18 3.33.23 5.25s.07 4 .09 6 0 4.1-.09 6-.13 3.71-.23 5.25C303.28 348 303 350 303 350zm-155.84-60.8l7.37-.19c4.69-.08 11.39-.28 19.43-.37s17.42-.27 27.47-.31l31.48-.13 31.48.13c10 0 19.43.22 27.47.3s14.74.29 19.43.37l7.37.19-7.37.19c-4.69.08-11.39.28-19.43.37s-17.42.27-27.47.3l-31.48.13-31.48-.13c-10 0-19.43-.22-27.47-.31s-14.74-.29-19.43-.37z"/>
    <circle class="cls-6" cx="225.31" cy="268.52" r="9.99"/>
    <path class="cls-3" d="M235.4 268.53v.7a5.78 5.78 0 0 1-.08.85 9.78 9.78 0 0 1-.19 1.15 12 12 0 0 1-1.08 3 9.77 9.77 0 0 1-2.72 3.26 9.4 9.4 0 0 1-4.76 1.83h-1.42a10.62 10.62 0 0 1-1.35-.2 10.26 10.26 0 0 1-2.73-1 12.38 12.38 0 0 1-4.31-3.93 11.83 11.83 0 0 1-2-5.69 11.55 11.55 0 0 1 .26-3.11 10.54 10.54 0 0 1 1.22-2.9 11 11 0 0 1 4.59-4.06 9.77 9.77 0 0 1 2.86-.85 10.31 10.31 0 0 1 1.45-.12c.58 0 .88 0 1.36.09a9.85 9.85 0 0 1 4.82 2 10.3 10.3 0 0 1 2.71 3.29 11.94 11.94 0 0 1 1.07 3 9.5 9.5 0 0 1 .19 1.15 5.76 5.76 0 0 1 .08.85v.71zm-.2 0l-.05-.7a5.57 5.57 0 0 0-.15-.83 6 6 0 0 0-.29-1.09 8 8 0 0 0-1.46-2.61 9.93 9.93 0 0 0-2.9-2.38 11.06 11.06 0 0 0-4-1.28 10.08 10.08 0 0 0-4.69.7 9.44 9.44 0 0 0-2.17 1.27 10.19 10.19 0 0 0-1.79 1.88 11.08 11.08 0 0 0-1.26 2.35 10.19 10.19 0 0 0-.6 2.68 10.48 10.48 0 0 0 .24 2.79 9.12 9.12 0 0 0 1.14 2.57 8.23 8.23 0 0 0 4.24 3.28 9 9 0 0 0 2.46.5 10.48 10.48 0 0 0 1.26 0c.34 0 .77-.06 1.14-.11a12 12 0 0 0 4.08-1.4 10.65 10.65 0 0 0 2.89-2.41 8 8 0 0 0 1.46-2.62 5.89 5.89 0 0 0 .29-1.09 5.53 5.53 0 0 0 .11-.83v-.7z"/>
    <path class="cls-7" d="M871.5 325.93c-7.67-.37-23.67 4.5-14.67-18.25s6-38.55 6-50 17.33-6.91 16.33 10.83 27.01 59.08-7.66 57.42zm69.99-76.99l10.61-60.64 7.25 60.64-8.93-5.43-8.93 5.43z"/>
    <path class="cls-3" d="M941.39 248.92c.27-2.56.62-5.1.94-7.65s.71-5.08 1.09-7.62l1.2-7.6c.42-2.53.83-5.06 1.3-7.59s1-5 1.48-7.55l1.57-7.54c1.07-5 2-10.07 2.79-15.14l.37-2.32.3 2.33c.33 2.52.72 5 1.08 7.56l1.13 7.55 1.06 7.56 1 7.57 1 7.57c.3 2.53.62 5.05.89 7.58l.81 7.59.75 7.6.16 1.64-1.36-.86c-2.94-1.86-5.85-3.78-8.78-5.66h.53c-1.51.87-3 1.71-4.56 2.55s-3 1.69-4.58 2.52l-.17.09zm.25-.21c1.37-.93 2.76-1.85 4.14-2.77s2.9-1.93 4.37-2.87l.25-.16.28.16c3 1.73 6.07 3.43 9.08 5.18l-1.2.77-1.06-7.56-1-7.57c-.34-2.52-.62-5.05-.92-7.58l-.83-7.59-.82-7.59-.75-7.6-.68-7.61c-.24-2.53-.45-5.07-.73-7.6h.67c-1 5-1.81 10.1-2.52 15.18l-1.08 7.62c-.35 2.54-.74 5.08-1.17 7.61s-.9 5.05-1.36 7.57l-1.45 7.56c-.51 2.52-1 5-1.56 7.54s-1.07 4.9-1.66 7.31z"/>
    <path class="cls-7" d="M882.09 356.85h136.65v11.2H882.09z"/>
    <path class="cls-5" d="M893.5 289.2l57.24-45.69 57.24 45.69H893.5z"/>
    <path class="cls-3" d="M893.43 289.12c2.31-2 4.65-4 7-5.92s4.68-3.92 7-5.86l7.06-5.83c2.34-2 4.74-3.85 7.1-5.78l7.12-5.76c2.38-1.91 4.73-3.86 7.14-5.73l7.19-5.67c2.39-1.9 4.83-3.74 7.24-5.61l.45-.35.42.35 14.12 11.66 7.11 5.76c2.36 1.93 4.76 3.82 7.16 5.71l7.19 5.67 7.24 5.61 14.48 11.21 1.78 1.38h-2.27c-9.54.12-19.08.16-28.62.23q-7.16.06-14.31 0h-14.31c-4.77 0-9.54-.06-14.31-.12l-14.31-.17-14.31-.26-14.57-.38zm.37 0l14-.36 14.31-.26 14.31-.17c4.77-.05 9.54-.12 14.31-.12h28.62c9.54.06 19.08.1 28.62.23l-.49 1.41-14.14-11.64-7.07-5.81-7.12-5.75c-2.37-1.92-4.75-3.84-7.15-5.71l-7.2-5.66-14.5-11.18h.88c-2.36 1.94-4.69 3.91-7.07 5.81l-7.11 5.72c-2.36 1.93-4.78 3.8-7.17 5.69l-7.22 5.68c-2.4 1.88-4.78 3.79-7.21 5.64l-7.25 5.59q-3.62 2.8-7.27 5.56c-2.35 1.77-4.7 3.55-7.08 5.3z"/>
    <path class="cls-7" d="M892.55 302.49h115.72v50.67H892.55zm-5.64-11.63h127.66v6.65H886.91z"/>
    <path class="cls-3" d="M1019 364.06l-8.66.23-8.56.18-17.13.25-17.13.1H950.4c-2.85 0-5.71 0-8.56-.06l-8.56-.13-17.13-.26-8.56-.05c-2.85 0-5.71-.05-8.56 0-5.71 0-11.42 0-17.13.1h-.41V364l-.14-10.8v-.54h.55l17.13-.23 17.13-.15 17.13-.09h34.26l17.13.14c5.71.06 11.42.1 17.13.2s11.42.15 17.13.31h.36v.34zm-.2-.2l-.25-10.7.35.35c-5.71.15-11.42.2-17.13.31s-11.42.14-17.13.2l-17.13.14h-34.26l-17.13-.09-17.12-.13-17.13-.23.55-.55-.14 10.8-.41-.41c5.71.07 11.42.07 17.13.1h8.56l8.56-.05 17.13-.26 8.56-.13c2.85-.06 5.71 0 8.56-.06h17.12l17.13.1 17.13.25 8.56.18z"/>
    <path class="cls-5" d="M882.73 295.85h136v6.65h-136z"/>
    <path class="cls-3" d="M1018.69 295.9l-16.95.21-17 .12-17 .05h-17l-34-.23c-5.67 0-11.33-.06-17 0l-17 .07.24-.24v6.65l-.27-.27 34-.19c11.33 0 22.67-.09 34-.05h17l17 .11c11.33.09 22.67.1 34 .26l-.13.13zm.1-.1l.08 6.69v.13h-.13c-11.33.16-22.67.17-34 .26l-17 .11h-17c-11.33 0-22.67 0-34-.05l-34-.19h-.28v-7.17h.24l17 .07h17l34-.23h17l17 .05 17 .12z"/>
    <path class="cls-3" d="M884.78 302.49l6.14-.19c3.91-.09 9.49-.27 16.19-.38s14.52-.24 22.89-.31l12.91-.09h26.66l12.91.09c8.37.07 16.19.18 22.89.31s12.28.29 16.19.38l6.14.19-6.14.19c-3.91.09-9.49.27-16.19.38s-14.52.24-22.89.31l-12.91.09h-26.66l-12.91-.09c-8.37-.07-16.19-.18-22.89-.31s-12.28-.29-16.19-.38zm8.13 35.08s-.12-.51-.24-1.41-.25-2.18-.32-3.71c0-.77-.05-1.6 0-2.48s.15-1.81.25-2.77a22.92 22.92 0 0 0 .18-3c0-1-.09-2-.18-3.06s-.22-2-.25-3.06l-.11-3v-2.77c0-.88.07-1.71.11-2.48a46.31 46.31 0 0 1 .59-5.12h.15a46.31 46.31 0 0 1 .59 5.12c0 .77.09 1.6.11 2.48s0 1.81 0 2.77l-.11 3c0 1-.15 2-.25 3.06s-.19 2-.18 3.06a22.9 22.9 0 0 0 .18 3c.1 1 .23 1.89.25 2.77s0 1.71 0 2.48c-.07 1.54-.19 2.82-.32 3.71s-.24 1.41-.24 1.41zM903.34 349s-.25-2-.43-5.12c-.1-1.54-.18-3.33-.23-5.25s-.07-4-.09-6 0-4.1.09-6 .13-3.71.23-5.25c.18-3.07.43-5.12.43-5.12s.25 2 .43 5.12c.1 1.54.18 3.33.23 5.25s.07 4 .09 6 0 4.1-.09 6-.13 3.71-.23 5.25c-.18 3.12-.43 5.12-.43 5.12zm10.29-9.77s-.12-.51-.24-1.41-.25-2.18-.32-3.71c0-.77-.05-1.6 0-2.48s.15-1.81.25-2.77a22.9 22.9 0 0 0 .18-3c0-1-.09-2-.18-3.06s-.22-2-.25-3.06l-.11-3v-2.77c0-.88.07-1.71.11-2.48a46.31 46.31 0 0 1 .59-5.12h.15a46.27 46.27 0 0 1 .59 5.12c0 .77.09 1.6.11 2.48s0 1.81 0 2.77l-.11 3c0 1-.15 2-.25 3.06s-.19 2-.18 3.06a22.92 22.92 0 0 0 .18 3c.1 1 .23 1.89.25 2.77s0 1.71 0 2.48c-.07 1.54-.19 2.82-.32 3.71s-.24 1.41-.24 1.41zm10.44 9.14s-.25-2-.43-5.12c-.1-1.54-.18-3.33-.23-5.25s-.07-4-.09-6 0-4.1.09-6 .13-3.71.23-5.25c.18-3.07.43-5.12.43-5.12s.25 2 .43 5.12c.1 1.54.18 3.33.23 5.25s.07 4 .09 6 0 4.1-.09 6-.13 3.71-.23 5.25c-.18 3.07-.43 5.12-.43 5.12zm10.29 1.63s-.12-.51-.24-1.41-.25-2.18-.32-3.71c0-.77-.05-1.6 0-2.48s.15-1.81.25-2.77a22.88 22.88 0 0 0 .18-3c0-1-.09-2-.18-3.06s-.22-2-.25-3.06l-.11-3v-2.77c0-.88.07-1.71.11-2.48a46.29 46.29 0 0 1 .59-5.12h.15a46.29 46.29 0 0 1 .59 5.12c0 .77.09 1.6.11 2.48s0 1.81 0 2.77l-.11 3c0 1-.15 2-.25 3.06s-.19 2-.18 3.06a22.9 22.9 0 0 0 .18 3c.1 1 .23 1.89.25 2.77s0 1.71 0 2.48c-.07 1.54-.19 2.82-.32 3.71s-.24 1.41-.24 1.41zm10.44-12.43s-.25-2-.43-5.12c-.1-1.54-.18-3.33-.23-5.25s-.07-4-.09-6 0-4.1.09-6 .13-3.71.23-5.25c.18-3.07.43-5.12.43-5.12s.25 2 .43 5.12c.1 1.54.18 3.33.23 5.25s.07 4 .09 6 0 4.1-.09 6-.13 3.71-.23 5.25c-.23 3.07-.43 5.12-.43 5.12zm10.29 1.66s-.12-.51-.24-1.41-.25-2.18-.32-3.71c0-.77-.05-1.6 0-2.48s.15-1.81.25-2.77a22.92 22.92 0 0 0 .18-3c0-1-.09-2-.18-3.06s-.22-2-.25-3.06l-.11-3v-2.77c0-.88.07-1.71.11-2.48a46.31 46.31 0 0 1 .59-5.12h.15a46.31 46.31 0 0 1 .59 5.12c0 .77.09 1.6.11 2.48s0 1.81 0 2.77l-.11 3c0 1-.15 2-.25 3.06s-.19 2-.18 3.06a22.9 22.9 0 0 0 .18 3c.1 1 .23 1.89.25 2.77s0 1.71 0 2.48c-.07 1.54-.19 2.82-.32 3.71s-.24 1.41-.24 1.41zM965.52 350s-.25-2-.43-5.12c-.1-1.54-.18-3.33-.23-5.25s-.07-4-.09-6 0-4.1.09-6 .13-3.71.23-5.25c.18-3.07.43-5.12.43-5.12s.25 2 .43 5.12c.1 1.54.18 3.33.23 5.25s.07 4 .09 6 0 4.1-.09 6-.13 3.71-.23 5.25c-.17 3.12-.43 5.12-.43 5.12zm10.29-5.78s-.12-.51-.24-1.41-.25-2.18-.32-3.71c0-.77-.05-1.6 0-2.48s.15-1.81.25-2.77a22.9 22.9 0 0 0 .18-3c0-1-.09-2-.18-3.06s-.22-2-.25-3.06l-.11-3v-2.77c0-.88.07-1.71.11-2.48a46.31 46.31 0 0 1 .59-5.12h.16a46.31 46.31 0 0 1 .59 5.12c0 .77.09 1.6.11 2.48s0 1.81 0 2.77l-.11 3c0 1-.15 2-.25 3.06s-.19 2-.18 3.06a22.92 22.92 0 0 0 .18 3c.1 1 .23 1.89.25 2.77s0 1.71 0 2.48c-.07 1.54-.19 2.82-.32 3.71s-.24 1.41-.24 1.41zm10.44-4.99s-.25-2-.43-5.12c-.1-1.54-.18-3.33-.23-5.25s-.07-4-.09-6 0-4.1.09-6 .13-3.71.23-5.25c.18-3.07.43-5.12.43-5.12s.25 2 .43 5.12c.1 1.54.18 3.33.23 5.25s.07 4 .09 6 0 4.1-.09 6-.13 3.71-.23 5.25c-.18 3.07-.43 5.12-.43 5.12zm10.29 4.99s-.12-.51-.24-1.41-.25-2.18-.32-3.71c0-.77-.05-1.6 0-2.48s.15-1.81.25-2.77a22.9 22.9 0 0 0 .18-3c0-1-.09-2-.18-3.06s-.22-2-.25-3.06l-.11-3v-2.77c0-.88.07-1.71.11-2.48a46.29 46.29 0 0 1 .59-5.12h.15a46.29 46.29 0 0 1 .59 5.12c0 .77.09 1.6.11 2.48s0 1.81 0 2.77l-.11 3c0 1-.15 2-.25 3.06s-.19 2-.18 3.06a22.9 22.9 0 0 0 .18 3c.1 1 .23 1.89.25 2.77s0 1.71 0 2.48c-.07 1.54-.19 2.82-.32 3.71s-.24 1.41-.24 1.41zm10.46-4.99s-.25-2-.43-5.12c-.1-1.54-.18-3.33-.23-5.25s-.07-4-.09-6 0-4.1.09-6 .13-3.71.23-5.25c.18-3.07.43-5.12.43-5.12s.25 2 .43 5.12c.1 1.54.18 3.33.23 5.25s.07 4 .09 6 0 4.1-.09 6-.13 3.71-.23 5.25c-.2 3.07-.43 5.12-.43 5.12zM892.23 289.2l5.49-.19c3.49-.09 8.48-.27 14.46-.38s13-.24 20.45-.31l11.53-.09h23.82l11.53.08c7.48.07 14.46.18 20.45.31s11 .29 14.46.38l5.49.19-5.49.19c-3.49.09-8.48.27-14.46.38s-13 .24-20.45.31l-11.53.09h-23.82l-11.53-.09c-7.48-.07-14.46-.18-20.45-.31s-11-.29-14.46-.38z"/>
    <circle class="cls-7" cx="949.98" cy="268.52" r="9.99"/>
    <path class="cls-3" d="M960.07 268.53v.7a5.78 5.78 0 0 1-.08.85 9.78 9.78 0 0 1-.19 1.15 12 12 0 0 1-1.08 3 9.77 9.77 0 0 1-2.72 3.26 9.4 9.4 0 0 1-4.76 1.83h-1.42a10.62 10.62 0 0 1-1.35-.2 10.26 10.26 0 0 1-2.73-1 12.38 12.38 0 0 1-4.31-3.93 11.77 11.77 0 0 1-2-5.72 11.45 11.45 0 0 1 .26-3.09 10.54 10.54 0 0 1 1.22-2.9 11 11 0 0 1 4.59-4.06 9.77 9.77 0 0 1 2.86-.85 10.31 10.31 0 0 1 1.45-.12c.58 0 .88 0 1.36.09a9.85 9.85 0 0 1 4.82 2 10.3 10.3 0 0 1 2.71 3.29 12 12 0 0 1 1.07 3A9.52 9.52 0 0 1 960 267a5.77 5.77 0 0 1 .08.85v.71zm-.2 0l-.05-.7a5.58 5.58 0 0 0-.11-.83 6 6 0 0 0-.29-1.09 8 8 0 0 0-1.42-2.61 9.93 9.93 0 0 0-2.9-2.38 11.06 11.06 0 0 0-4-1.28 10.08 10.08 0 0 0-4.69.7 9.44 9.44 0 0 0-2.17 1.27 10.19 10.19 0 0 0-1.79 1.88 11.08 11.08 0 0 0-1.26 2.35 10.06 10.06 0 0 0-.6 2.71 10.46 10.46 0 0 0 .24 2.76 9.12 9.12 0 0 0 1.14 2.57 8.23 8.23 0 0 0 4.24 3.28 9 9 0 0 0 2.46.5 10.48 10.48 0 0 0 1.26 0c.34 0 .77-.06 1.14-.11a12 12 0 0 0 4.08-1.4 10.65 10.65 0 0 0 2.89-2.41 8 8 0 0 0 1.46-2.62 5.88 5.88 0 0 0 .29-1.09 5.54 5.54 0 0 0 .11-.83v-.7zm-84.25 27.32l6.14-.19c3.91-.09 9.49-.27 16.19-.38s14.52-.24 22.89-.31l12.91-.09h26.66l12.91.09c8.37.07 16.19.18 22.89.31s12.28.29 16.19.38l6.14.19-6.14.19c-3.91.09-9.49.27-16.19.38s-14.52.24-22.89.31l-12.91.08h-26.66l-12.91-.09c-8.37-.07-16.19-.18-22.89-.31s-12.28-.29-16.19-.38zM871.23 364s-.07-.73-.15-2-.2-3.1-.28-5.29-.18-4.74-.23-7.48-.07-5.66-.09-8.58 0-5.84.09-8.58.13-5.29.23-7.48.22-4 .28-5.29.15-2 .15-2 .07.73.15 2 .2 3.1.28 5.29.18 4.74.23 7.48.07 5.66.09 8.58 0 5.84-.09 8.58-.13 5.29-.23 7.48-.22 4-.28 5.29-.15 2-.15 2z"/>
    <path class="cls-7" d="M839.63 350.25c0-6.36 5.67-7.41 14.67-6s19-5.71 21.67 4.33a22.17 22.17 0 0 1-3 17.71H844.3s-4.67-8.38-4.67-16.04z"/>
    <path class="cls-3" d="M838.77 348.71a7.22 7.22 0 0 1 .92-3.73 6 6 0 0 1 3-2.41 14 14 0 0 1 3.84-.79 30.07 30.07 0 0 1 3.91 0c1.29.08 2.61.24 3.84.38a23 23 0 0 0 3.7 0c2.5-.2 5-.66 7.61-.9a17.22 17.22 0 0 1 3.94 0 8.28 8.28 0 0 1 1.94.54 6.29 6.29 0 0 1 1.69 1.11 7.94 7.94 0 0 1 2 3.39c.2.62.34 1.27.48 1.88A16.08 16.08 0 0 1 876 350a25.5 25.5 0 0 1 .16 3.89 23.29 23.29 0 0 1-.51 3.87 22.42 22.42 0 0 1-1.14 3.75 19.1 19.1 0 0 1-1.82 3.53l-.16.24h-.34c-2.39.06-4.78.08-7.17.1l-7.17.07h-7.17c-2.39 0-4.78-.05-7.17-.14h-.4L843 365a38.07 38.07 0 0 1-1.67-3.93q-.73-2-1.29-4c-.37-1.36-.64-2.75-.88-4.14l-.14-1c-.06-.35-.07-.7-.11-1-.13-.81-.12-1.52-.14-2.22zm.15 0c0 .7 0 1.39.14 2.09 0 .35.06.7.13 1l.19 1c.07.34.16.68.23 1s.17.68.27 1c.19.67.42 1.33.65 2q.71 2 1.6 3.85c.59 1.25 1.25 2.49 1.93 3.67l-.55-.33c2.39-.09 4.78-.12 7.17-.14s4.78 0 7.17 0l7.15.15c2.39 0 4.78 0 7.17.1l-.5.25a20.1 20.1 0 0 0 1.84-3.22 21.46 21.46 0 0 0 1.31-3.53 22.14 22.14 0 0 0 .7-3.71 19 19 0 0 0 0-3.78 15.46 15.46 0 0 0-.28-1.88 14.26 14.26 0 0 0-.45-1.84 7 7 0 0 0-1.92-3.13 5.17 5.17 0 0 0-1.56-.92 7.59 7.59 0 0 0-1.79-.37 16.63 16.63 0 0 0-3.73.24c-2.5.4-5 1-7.62 1.24a18.93 18.93 0 0 1-4 0c-1.31-.17-2.52-.41-3.79-.57a29.17 29.17 0 0 0-3.77-.28 13.22 13.22 0 0 0-3.72.45l-.88.32-.82.44c-.24.2-.5.38-.72.6a6.48 6.48 0 0 0-.59.72 6.62 6.62 0 0 0-.96 3.58z"/>
    <path class="cls-5" d="M310.35 129.59c-29.94-28 8-81.55 50.83-51.07S348 .26 412.63.26 488 85.93 464.94 129.59z"/>
    <path class="cls-3" d="M310.29 129.65a35.77 35.77 0 0 1-7.5-9.83 31.86 31.86 0 0 1-3.37-11.93A36.3 36.3 0 0 1 338.81 69a40.4 40.4 0 0 1 12.14 3.08 56.83 56.83 0 0 1 10.91 6.1A49.38 49.38 0 0 0 367 81.4a14.06 14.06 0 0 0 5.57 1.83 4.29 4.29 0 0 0 2.6-.58 5.17 5.17 0 0 0 1.75-2.07 17.24 17.24 0 0 0 1.4-5.76 102.9 102.9 0 0 0 .2-12.29c-.23-8.24-.64-16.52-.11-24.8a76 76 0 0 1 1.7-12.31 45.19 45.19 0 0 1 1.78-6 32.86 32.86 0 0 1 2.67-5.63 26.22 26.22 0 0 1 8.58-8.93A31.41 31.41 0 0 1 404.83.64c1-.15 2.05-.34 3.09-.4S410 .06 411 0h1.56l1.56.06 3.09.12c.52 0 1 0 1.55.08l1.55.19 3.09.39.77.1.76.17 1.52.33 3 .67a56 56 0 0 1 21.85 11.68 67.38 67.38 0 0 1 15 19.72A94.24 94.24 0 0 1 474.39 57a113.42 113.42 0 0 1 2.34 24.75 124.06 124.06 0 0 1-2.73 24.74 95.8 95.8 0 0 1-8.36 23.51l-.22.42h-39.13l-38.65-.17L349 130c-12.88 0-25.77-.21-38.65-.32zm.09-.13c12.87-.1 25.74-.28 38.62-.32l38.65-.19 38.65-.17h38.65l-.7.42a97.79 97.79 0 0 0 8.25-23.06 122.59 122.59 0 0 0 2.81-24.41 115.78 115.78 0 0 0-2.16-24.49 93.1 93.1 0 0 0-7.73-23.3 66.18 66.18 0 0 0-14.64-19.58 55.31 55.31 0 0 0-21.44-11.7l-3-.68-1.5-.34-.75-.17-.76-.1-3-.41-1.52-.2c-.51-.06-1-.06-1.54-.09l-3.16-.14-1.53-.07-1.58.04c-1 0-2.05.08-3.08.17s-2 .23-3.06.37-2 .4-3 .6-2 .52-2.93.91a27.05 27.05 0 0 0-5.51 2.67 25.69 25.69 0 0 0-8.37 8.8 32.28 32.28 0 0 0-2.6 5.55 42.4 42.4 0 0 0-1.69 5.91 75.26 75.26 0 0 0-1.53 12.22c-.42 8.22.09 16.46.42 24.72a95.64 95.64 0 0 1-.09 12.46 18.37 18.37 0 0 1-1.5 6.21 6.43 6.43 0 0 1-2.2 2.59 5.57 5.57 0 0 1-3.34.79 15.25 15.25 0 0 1-6.12-2 50.77 50.77 0 0 1-5.33-3.3 56.58 56.58 0 0 0-10.64-6 39.13 39.13 0 0 0-11.75-3 34.88 34.88 0 0 0-12.06 1 36.36 36.36 0 0 0-26.56 36.64 31.34 31.34 0 0 0 3.08 11.8 35.46 35.46 0 0 0 7.24 9.85z"/>
    <path class="cls-5" d="M710.6 159.68c-29.94-28 4.83-71.33 38.94-57.54s4 44.87 68.69 44.87 47 12.67 47 12.67z"/>
    <path class="cls-3" d="M710.55 159.74a37.38 37.38 0 0 1-9-12.2 30.49 30.49 0 0 1-2.58-15 34.6 34.6 0 0 1 4.7-14.54 39 39 0 0 1 10.19-11.44 38.51 38.51 0 0 1 13.83-6.65 37 37 0 0 1 7.66-1 36.09 36.09 0 0 1 15.09 2.91 39.85 39.85 0 0 1 6.81 3.63 29.45 29.45 0 0 1 10.1 11.55c2.35 4.58 3.75 9.5 6.16 13.89a23.93 23.93 0 0 0 10.56 10.31 49.42 49.42 0 0 0 14.43 4.31c2.49.41 5 .67 7.54.86s5.05.31 7.58.36c5.06.11 10.14 0 15.21 0s10.15.23 15.23.61a88 88 0 0 1 15.15 2.22 30.86 30.86 0 0 1 3.71 1.19 13 13 0 0 1 3.51 2 5.4 5.4 0 0 1 1.39 1.72 3.66 3.66 0 0 1 .3 2.35 5.09 5.09 0 0 1-1 2 7.73 7.73 0 0 1-1.51 1.51l-.19.15h-38.91l-38.65-.17-38.65-.19c-12.88 0-25.77-.21-38.65-.32zm.08-.13c12.87-.1 25.74-.28 38.62-.32l38.65-.19 38.65-.17h38.65l-.46.15a4.81 4.81 0 0 0 1.83-2.56 2.66 2.66 0 0 0-1.14-2.57 11.55 11.55 0 0 0-3.07-1.76 29.41 29.41 0 0 0-3.51-1.17 97.92 97.92 0 0 0-14.85-2.48c-5-.5-10.08-.8-15.15-1-2.53-.1-5.06-.17-7.6-.22s-5.07 0-7.61-.11a123.33 123.33 0 0 1-15.18-1.27 49.93 49.93 0 0 1-14.63-4.26 26.59 26.59 0 0 1-6.33-4.33 25.64 25.64 0 0 1-4.72-6.08c-2.56-4.47-4-9.38-6.42-13.78a31.56 31.56 0 0 0-4.21-6.14 28.3 28.3 0 0 0-5.62-4.85 38.5 38.5 0 0 0-6.61-3.48 36.67 36.67 0 0 0-7.12-2.21 35.15 35.15 0 0 0-7.42-.66 35.72 35.72 0 0 0-7.39 1 37.32 37.32 0 0 0-13.44 6.37 39 39 0 0 0-10 11 33.71 33.71 0 0 0-4.76 14.11 30.6 30.6 0 0 0 2.21 14.71 37 37 0 0 0 8.63 12.27z"/>
</svg>
