<svg width="677" height="400" viewBox="0 0 677 400" xmlns="http://www.w3.org/2000/svg">
    <title>
        tasks
    </title>
    <g fill="none" fill-rule="evenodd">
        <g transform="translate(352)">
            <path d="M2 10v380c0 4.42 3.578 8 7.993 8h305.014a7.994 7.994 0 0 0 7.993-8V10c0-4.42-3.578-8-7.993-8H9.993A7.994 7.994 0 0 0 2 10zm-2 0C0 4.477 4.47 0 9.993 0h305.014C320.526 0 325 4.475 325 10v380c0 5.523-4.47 10-9.993 10H9.993C4.474 400 0 395.525 0 390V10z" fill="#E7ECEF"/>
            <path d="M108.477 171.842c-.123 1.053-.512 1.865-1.166 2.437-.654.572-1.523.858-2.608.858-1.176 0-2.118-.422-2.827-1.265-.708-.843-1.063-1.971-1.063-3.384v-.957c0-.925.166-1.738.496-2.44.33-.702.799-1.24 1.405-1.617.606-.376 1.308-.564 2.105-.564 1.058 0 1.905.295 2.543.885.638.59 1.01 1.407 1.115 2.451h-1.32c-.114-.793-.36-1.367-.741-1.723-.381-.355-.913-.533-1.597-.533-.838 0-1.496.31-1.972.93-.476.62-.714 1.502-.714 2.645v.964c0 1.08.225 1.94.677 2.577.45.638 1.082.957 1.893.957.73 0 1.289-.165 1.678-.495.39-.33.649-.906.776-1.726h1.32zm1.397-.609c0-.724.143-1.376.428-1.955a3.187 3.187 0 0 1 1.19-1.34c.507-.314 1.087-.471 1.739-.471 1.007 0 1.822.348 2.444 1.046.622.697.933 1.624.933 2.782v.089c0 .72-.138 1.366-.414 1.938a3.14 3.14 0 0 1-1.182 1.336c-.513.32-1.102.479-1.768.479-1.002 0-1.814-.349-2.437-1.046-.622-.697-.933-1.62-.933-2.769v-.089zm1.272.15c0 .821.19 1.48.57 1.976.381.497.89.745 1.528.745.643 0 1.153-.251 1.532-.755.378-.503.567-1.209.567-2.116 0-.81-.192-1.468-.578-1.972-.385-.503-.896-.755-1.534-.755-.625 0-1.128.248-1.51.745-.384.497-.575 1.208-.575 2.133zm8.377-3.78l.034.82c.543-.637 1.274-.956 2.195-.956 1.034 0 1.738.396 2.112 1.19a2.8 2.8 0 0 1 .96-.862c.395-.219.86-.328 1.398-.328 1.623 0 2.448.859 2.475 2.577V175h-1.265v-4.88c0-.53-.12-.925-.362-1.187-.241-.262-.647-.393-1.217-.393-.47 0-.859.14-1.169.42-.31.28-.49.658-.54 1.132V175h-1.271v-4.847c0-1.075-.527-1.613-1.58-1.613-.829 0-1.396.353-1.701 1.06v5.4h-1.265v-7.396h1.196zm17.47 3.78c0 1.126-.258 2.033-.773 2.721-.515.689-1.212 1.033-2.092 1.033-.898 0-1.604-.285-2.12-.855v3.562h-1.264v-10.24h1.155l.062.82c.515-.638 1.23-.957 2.146-.957.89 0 1.592.335 2.11 1.005.517.67.775 1.602.775 2.796v.116zm-1.265-.143c0-.834-.178-1.492-.534-1.975-.355-.483-.843-.725-1.462-.725-.766 0-1.34.34-1.723 1.019v3.534c.378.674.957 1.011 1.736 1.011.606 0 1.088-.24 1.446-.72.358-.481.537-1.196.537-2.144zm4.385 3.76h-1.265v-10.5h1.265V175zm5.233.137c-1.003 0-1.819-.33-2.448-.988-.629-.659-.943-1.54-.943-2.642v-.233c0-.733.14-1.388.42-1.965a3.28 3.28 0 0 1 1.176-1.353 2.956 2.956 0 0 1 1.637-.49c.962 0 1.71.318 2.242.951.534.633.8 1.54.8 2.72v.527h-5.01c.018.73.23 1.318.639 1.767.408.449.926.673 1.555.673.446 0 .825-.09 1.135-.273.31-.182.58-.424.813-.725l.773.602c-.62.952-1.55 1.429-2.79 1.429zm-.158-6.631c-.51 0-.939.186-1.285.557-.346.371-.56.892-.642 1.562h3.705v-.096c-.037-.642-.21-1.14-.52-1.493-.31-.354-.73-.53-1.258-.53zm7.127 1.798l1.64-2.7h1.477l-2.42 3.657 2.495 3.739h-1.463l-1.709-2.769-1.709 2.769h-1.47l2.496-3.74-2.42-3.656h1.462l1.62 2.7zm5.97 4.696h-1.264v-7.396h1.265V175zm-1.367-9.358c0-.205.063-.379.188-.52.126-.141.311-.212.558-.212.246 0 .433.07.56.212a.747.747 0 0 1 .192.52.722.722 0 0 1-.192.512c-.127.137-.314.205-.56.205-.247 0-.432-.068-.558-.205a.73.73 0 0 1-.188-.512zm5.247.17v1.792h1.38v.977h-1.38v4.587c0 .296.061.518.184.666.124.149.333.223.63.223.145 0 .346-.028.601-.082V175a3.666 3.666 0 0 1-.97.137c-.566 0-.992-.171-1.28-.513-.286-.342-.43-.827-.43-1.456v-4.587h-1.346v-.977h1.346v-1.792h1.265zm5.417 7.335l1.723-5.543h1.353l-2.973 8.538c-.46 1.23-1.192 1.845-2.195 1.845l-.239-.02-.471-.09v-1.024l.341.027c.429 0 .763-.087 1.002-.26.24-.173.436-.49.591-.95l.28-.752-2.638-7.314h1.38l1.846 5.543zm-61.368 49.29c0-.438-.154-.775-.462-1.012-.307-.237-.862-.476-1.664-.718-.802-.242-1.44-.51-1.914-.807-.907-.57-1.36-1.312-1.36-2.228 0-.802.326-1.463.98-1.983.654-.52 1.503-.779 2.547-.779.693 0 1.31.128 1.852.383a3.04 3.04 0 0 1 1.279 1.09c.31.472.465.995.465 1.57h-1.723c0-.52-.163-.927-.489-1.221-.326-.294-.792-.441-1.398-.441-.565 0-1.004.12-1.316.362-.312.242-.468.58-.468 1.012 0 .365.169.669.506.913.337.243.893.48 1.668.71.775.23 1.397.493 1.866.787.47.294.813.63 1.032 1.011.219.381.328.826.328 1.337 0 .83-.318 1.489-.953 1.979-.636.49-1.498.735-2.588.735-.72 0-1.382-.134-1.985-.4-.604-.267-1.074-.635-1.409-1.104-.335-.47-.502-1.016-.502-1.64h1.73c0 .564.186 1.002.56 1.312.374.31.91.465 1.606.465.602 0 1.054-.122 1.357-.366a1.18 1.18 0 0 0 .455-.967zm4.993 2.563h-1.66v-7.396h1.66V225zm-1.763-9.317c0-.256.08-.468.242-.636.162-.169.393-.253.694-.253.301 0 .533.084.698.253.164.168.246.38.246.636 0 .25-.082.459-.246.625-.165.166-.397.25-.698.25-.3 0-.532-.084-.694-.25a.861.861 0 0 1-.242-.625zm5.253 1.92l.048.855c.547-.66 1.264-.991 2.153-.991 1.54 0 2.324.882 2.352 2.645V225h-1.661v-4.792c0-.47-.102-.817-.305-1.042-.202-.226-.534-.339-.994-.339-.67 0-1.17.303-1.497.91V225h-1.661v-7.396h1.565zm6.094 3.644c0-1.148.27-2.066.81-2.751.54-.686 1.257-1.03 2.15-1.03.843 0 1.506.295 1.99.883l.075-.745h1.497v7.17c0 .971-.302 1.737-.906 2.297-.604.56-1.419.841-2.444.841a3.939 3.939 0 0 1-1.59-.338c-.517-.226-.91-.52-1.179-.886l.787-.998c.51.607 1.139.91 1.886.91.552 0 .987-.15 1.306-.448.319-.299.478-.737.478-1.316v-.5c-.478.534-1.116.8-1.914.8-.866 0-1.573-.343-2.122-1.032-.55-.688-.824-1.64-.824-2.857zm1.654.144c0 .742.152 1.327.455 1.753.303.426.723.64 1.261.64.67 0 1.167-.288 1.49-.862v-3.254c-.314-.56-.806-.84-1.476-.84-.547 0-.972.216-1.275.649-.303.433-.455 1.07-.455 1.914zm11.194 2.884c-.488.575-1.18.862-2.078.862-.802 0-1.41-.235-1.822-.704-.412-.47-.618-1.149-.618-2.037v-4.792h1.66v4.771c0 .939.39 1.408 1.17 1.408.806 0 1.35-.29 1.633-.868v-5.311h1.662V225h-1.566l-.04-.725zm5.206.725h-1.662v-10.5h1.662V225zm6.367 0c-.073-.141-.137-.371-.191-.69a2.586 2.586 0 0 1-1.942.827c-.743 0-1.349-.212-1.818-.636a2.034 2.034 0 0 1-.704-1.572c0-.789.293-1.394.878-1.815.586-.422 1.423-.633 2.512-.633h1.019v-.485c0-.383-.107-.69-.321-.92-.215-.23-.54-.345-.978-.345-.378 0-.688.095-.93.284a.878.878 0 0 0-.362.721h-1.661c0-.405.134-.785.403-1.138a2.69 2.69 0 0 1 1.098-.83c.462-.2.978-.301 1.548-.301.866 0 1.556.217 2.071.653.515.435.78 1.047.793 1.835v3.336c0 .665.094 1.196.28 1.593V225h-1.695zm-1.825-1.196c.328 0 .637-.08.926-.24.29-.16.507-.373.653-.642v-1.395h-.896c-.615 0-1.077.107-1.387.322-.31.214-.465.517-.465.909 0 .319.106.573.318.762.212.19.495.284.85.284zm8.992-4.683a4.11 4.11 0 0 0-.676-.055c-.761 0-1.274.292-1.538.875V225h-1.662v-7.396h1.586l.041.827c.401-.643.957-.964 1.668-.964.237 0 .433.032.588.095l-.007 1.56zm2.957 5.879h-1.661v-7.396h1.66V225zm-1.764-9.317a.88.88 0 0 1 .243-.636c.162-.169.393-.253.694-.253.3 0 .533.084.697.253.164.168.246.38.246.636 0 .25-.082.459-.246.625-.164.166-.397.25-.697.25-.301 0-.532-.084-.694-.25a.861.861 0 0 1-.243-.625zm5.793.123v1.798h1.306v1.23h-1.306v4.129c0 .282.056.486.168.612.112.125.311.188.598.188.192 0 .385-.023.581-.069v1.285a4.091 4.091 0 0 1-1.094.158c-1.276 0-1.914-.704-1.914-2.113v-4.19h-1.216v-1.23h1.216v-1.798h1.661zm5.302 6.815l1.504-5.017h1.77l-2.94 8.517c-.45 1.244-1.216 1.866-2.296 1.866-.242 0-.508-.04-.8-.123v-1.285l.314.02c.42 0 .735-.076.947-.228.212-.153.38-.41.503-.77l.239-.635-2.598-7.362h1.791l1.566 5.017zm-56.026 51.087c-.36.47-.86.825-1.497 1.066-.638.242-1.363.363-2.174.363-.834 0-1.573-.19-2.215-.568a3.78 3.78 0 0 1-1.487-1.623c-.349-.704-.53-1.526-.543-2.465v-.779c0-1.504.36-2.678 1.08-3.524.72-.845 1.725-1.268 3.014-1.268 1.108 0 1.987.274 2.639.82.652.547 1.044 1.336 1.176 2.366h-1.696c-.19-1.199-.886-1.798-2.084-1.798-.775 0-1.364.279-1.768.837-.403.559-.611 1.378-.625 2.458v.765c0 1.076.227 1.911.68 2.506.454.594 1.084.892 1.89.892.884 0 1.513-.2 1.887-.602v-1.948h-2.05v-1.312h3.773v3.814zm5.752-4.587a4.11 4.11 0 0 0-.677-.055c-.76 0-1.274.292-1.538.875V275h-1.661v-7.396h1.586l.04.827c.402-.643.958-.964 1.669-.964.237 0 .433.032.588.096l-.007 1.558zm4.317 6.016c-1.053 0-1.906-.332-2.56-.995-.654-.663-.981-1.546-.981-2.649v-.205c0-.738.142-1.398.427-1.979a3.252 3.252 0 0 1 1.2-1.357 3.172 3.172 0 0 1 1.722-.485c1.007 0 1.786.321 2.335.964.549.642.823 1.551.823 2.727v.67h-4.833c.05.61.255 1.094.612 1.45.358.355.808.533 1.35.533.761 0 1.381-.308 1.86-.923l.895.854a2.99 2.99 0 0 1-1.186 1.029 3.713 3.713 0 0 1-1.664.366zm-.199-6.337c-.455 0-.823.16-1.104.478-.28.32-.459.764-.536 1.333h3.165v-.123c-.037-.556-.185-.976-.444-1.26-.26-.286-.62-.428-1.08-.428zm9.013 6.2c-.072-.141-.136-.371-.19-.69a2.586 2.586 0 0 1-1.942.827c-.743 0-1.35-.212-1.819-.636a2.034 2.034 0 0 1-.704-1.572c0-.789.293-1.394.879-1.815.585-.422 1.423-.633 2.512-.633h1.018v-.485c0-.383-.107-.69-.32-.92-.215-.23-.54-.345-.978-.345-.379 0-.689.095-.93.284a.878.878 0 0 0-.362.721h-1.662c0-.405.135-.785.404-1.138a2.68 2.68 0 0 1 1.097-.83c.463-.2.979-.301 1.548-.301.866 0 1.557.217 2.072.653.515.435.779 1.047.793 1.835v3.336c0 .665.093 1.196.28 1.593V275h-1.696zm-1.825-1.196c.328 0 .637-.08.927-.24.289-.16.507-.373.652-.642v-1.395h-.895c-.615 0-1.078.107-1.388.322-.31.214-.465.517-.465.909 0 .319.106.573.318.762.212.19.496.284.851.284zm7.202-7.998v1.798h1.305v1.23h-1.305v4.129c0 .282.056.486.167.612.112.125.311.188.598.188.192 0 .386-.023.582-.069v1.285a4.091 4.091 0 0 1-1.094.158c-1.276 0-1.914-.704-1.914-2.113v-4.19h-1.217v-1.23h1.217v-1.798h1.66zm6.029 5.441c0-1.14.264-2.054.793-2.745.528-.69 1.237-1.035 2.126-1.035.784 0 1.417.273 1.9.82V264.5h1.661V275h-1.504l-.082-.766c-.496.602-1.16.903-1.989.903-.866 0-1.566-.349-2.102-1.046-.535-.697-.803-1.645-.803-2.844zm1.661.144c0 .752.145 1.338.434 1.76.29.421.7.632 1.234.632.679 0 1.176-.303 1.49-.909v-3.158c-.305-.593-.797-.889-1.476-.889-.538 0-.953.213-1.245.64-.291.425-.437 1.067-.437 1.924zm9.95 3.746c-1.053 0-1.907-.332-2.56-.995-.654-.663-.981-1.546-.981-2.649v-.205c0-.738.142-1.398.427-1.979a3.252 3.252 0 0 1 1.2-1.357 3.172 3.172 0 0 1 1.722-.485c1.007 0 1.785.321 2.335.964.549.642.823 1.551.823 2.727v.67h-4.833c.05.61.254 1.094.612 1.45.358.355.808.533 1.35.533.761 0 1.381-.308 1.86-.923l.895.854a2.99 2.99 0 0 1-1.186 1.029 3.713 3.713 0 0 1-1.664.366zm-.199-6.337c-.455 0-.823.16-1.104.478-.28.32-.459.764-.536 1.333h3.165v-.123c-.037-.556-.185-.976-.445-1.26-.26-.286-.62-.428-1.08-.428zm8.74 4.19a.753.753 0 0 0-.366-.677c-.244-.154-.648-.291-1.213-.41-.565-.118-1.037-.269-1.415-.45-.83-.402-1.244-.983-1.244-1.744 0-.638.269-1.171.806-1.6.538-.428 1.222-.642 2.051-.642.884 0 1.599.219 2.143.656.545.438.817 1.005.817 1.702H159c0-.319-.119-.584-.356-.796-.237-.212-.551-.318-.943-.318-.365 0-.662.084-.892.253a.797.797 0 0 0-.345.677c0 .255.107.453.321.594.214.142.647.284 1.299.428.652.143 1.163.314 1.535.512.371.199.647.437.827.715.18.278.27.615.27 1.011 0 .666-.276 1.205-.827 1.617-.552.413-1.274.619-2.167.619-.607 0-1.147-.11-1.62-.328-.475-.22-.844-.52-1.108-.903a2.136 2.136 0 0 1-.396-1.237h1.613c.023.392.17.694.444.906.274.212.636.318 1.087.318.438 0 .77-.084.998-.25a.772.772 0 0 0 .342-.653zm4.987 2.01h-1.662v-7.396h1.662V275zm-1.764-9.317c0-.256.08-.468.243-.636.161-.169.393-.253.693-.253.301 0 .534.084.698.253.164.168.246.38.246.636 0 .25-.082.459-.246.625-.164.166-.397.25-.698.25-.3 0-.532-.084-.693-.25a.861.861 0 0 1-.243-.625zm3.421 5.564c0-1.148.27-2.066.81-2.751.54-.686 1.257-1.03 2.15-1.03.843 0 1.506.295 1.99.883l.075-.745h1.497v7.17c0 .971-.302 1.737-.906 2.297-.604.56-1.419.841-2.444.841a3.939 3.939 0 0 1-1.59-.338c-.517-.226-.91-.52-1.179-.886l.787-.998c.51.607 1.139.91 1.886.91.552 0 .987-.15 1.306-.448.319-.299.479-.737.479-1.316v-.5c-.479.534-1.117.8-1.915.8-.865 0-1.573-.343-2.122-1.032-.55-.688-.824-1.64-.824-2.857zm1.654.144c0 .742.152 1.327.455 1.753.303.426.724.64 1.261.64.67 0 1.167-.288 1.49-.862v-3.254c-.314-.56-.806-.84-1.476-.84-.547 0-.972.216-1.275.649-.303.433-.455 1.07-.455 1.914zm8.255-3.787l.048.854c.546-.66 1.264-.991 2.153-.991 1.54 0 2.324.882 2.351 2.645V275h-1.66v-4.792c0-.47-.102-.817-.305-1.042-.203-.226-.534-.339-.995-.339-.67 0-1.168.303-1.497.91V275h-1.66v-7.396h1.565zm-72.784 47.443l3.253 8.121 3.254-8.121h1.703V325h-1.313v-3.876l.123-4.184-3.267 8.06h-1.005l-3.261-8.04.13 4.164V325h-1.313v-9.953h1.696zm15.035 9.222c-.492.578-1.214.868-2.167.868-.788 0-1.389-.23-1.801-.687-.413-.458-.621-1.136-.626-2.034v-4.812h1.265v4.778c0 1.12.456 1.681 1.367 1.681.966 0 1.609-.36 1.928-1.08v-5.38h1.265V325h-1.204l-.027-.731zm4.665.731h-1.264v-10.5h1.264V325zm3.88-9.188v1.792h1.38v.977h-1.38v4.587c0 .296.061.518.184.666.123.149.333.223.63.223.145 0 .346-.028.6-.082V325a3.666 3.666 0 0 1-.97.137c-.565 0-.991-.171-1.278-.513-.287-.342-.43-.827-.43-1.456v-4.587h-1.348v-.977h1.347v-1.791h1.265zm4.371 9.188h-1.264v-7.396h1.264V325zm-1.367-9.358c0-.205.063-.379.188-.52.125-.141.311-.212.557-.212.246 0 .433.07.56.212a.747.747 0 0 1 .192.52.722.722 0 0 1-.191.512c-.128.137-.315.205-.56.205-.247 0-.433-.068-.558-.205a.73.73 0 0 1-.188-.512zm9.779 5.742c0 1.125-.258 2.032-.773 2.72-.515.689-1.212 1.033-2.092 1.033-.897 0-1.604-.285-2.119-.855v3.562h-1.264v-10.24h1.155l.061.82c.515-.638 1.23-.957 2.147-.957.889 0 1.592.335 2.109 1.005.517.67.776 1.602.776 2.796v.116zm-1.265-.144c0-.834-.178-1.492-.533-1.975-.356-.483-.843-.725-1.463-.725-.766 0-1.34.34-1.723 1.019v3.534c.379.674.957 1.011 1.737 1.011.606 0 1.088-.24 1.445-.72.358-.481.537-1.196.537-2.144zm4.385 3.76h-1.265v-10.5h1.265V325zm5.233.137c-1.003 0-1.818-.33-2.447-.988-.63-.659-.944-1.54-.944-2.642v-.233c0-.733.14-1.388.42-1.965a3.28 3.28 0 0 1 1.176-1.353 2.956 2.956 0 0 1 1.638-.49c.961 0 1.709.318 2.242.951.533.633.8 1.54.8 2.72v.527h-5.011c.018.73.231 1.318.64 1.767.407.449.925.673 1.554.673.447 0 .825-.09 1.135-.273.31-.182.581-.424.814-.725l.772.602c-.62.952-1.55 1.429-2.79 1.429zm-.157-6.631c-.51 0-.94.186-1.285.557-.347.371-.561.892-.643 1.562h3.705v-.096c-.036-.642-.21-1.14-.52-1.493-.31-.354-.729-.53-1.257-.53zm9.624 6.494h-1.264v-10.5h1.264V325zm1.829-3.767c0-.724.142-1.376.427-1.955a3.187 3.187 0 0 1 1.19-1.34c.508-.314 1.088-.471 1.74-.471 1.007 0 1.821.348 2.443 1.046.622.697.933 1.624.933 2.782v.089c0 .72-.138 1.366-.413 1.938a3.14 3.14 0 0 1-1.183 1.336c-.513.32-1.102.479-1.767.479-1.003 0-1.815-.349-2.437-1.046-.622-.697-.933-1.62-.933-2.769v-.089zm1.271.15c0 .821.19 1.48.571 1.976.38.497.89.745 1.528.745.643 0 1.153-.251 1.531-.755.379-.503.568-1.209.568-2.116 0-.81-.193-1.468-.578-1.972-.385-.503-.897-.755-1.535-.755-.624 0-1.128.248-1.51.745-.383.497-.575 1.208-.575 2.133zm6.887-.143c0-1.153.267-2.07.8-2.751.533-.682 1.24-1.022 2.12-1.022.902 0 1.606.319 2.112.957l.061-.82h1.155v7.218c0 .957-.283 1.712-.85 2.263-.568.551-1.33.827-2.287.827a3.804 3.804 0 0 1-1.566-.342c-.51-.228-.9-.54-1.169-.936l.657-.759c.542.67 1.205 1.005 1.989 1.005.615 0 1.095-.173 1.439-.52.344-.346.516-.834.516-1.463v-.635c-.506.583-1.196.875-2.071.875-.866 0-1.567-.349-2.102-1.046-.536-.697-.804-1.648-.804-2.85zm1.272.144c0 .834.17 1.489.513 1.965.341.476.82.714 1.435.714.798 0 1.383-.362 1.757-1.086V319.6c-.387-.707-.968-1.06-1.743-1.06-.615 0-1.096.24-1.443.718-.346.478-.52 1.187-.52 2.126zM176.69 325h-1.265v-7.396h1.265V325zm-1.367-9.358c0-.205.062-.379.188-.52.125-.141.31-.212.557-.212.246 0 .433.07.56.212a.747.747 0 0 1 .192.52.722.722 0 0 1-.192.512c-.127.137-.314.205-.56.205-.246 0-.432-.068-.557-.205a.73.73 0 0 1-.188-.512zm4.726 1.962l.041.93c.566-.712 1.304-1.067 2.215-1.067 1.563 0 2.352.882 2.366 2.645V325h-1.265v-4.895c-.005-.533-.127-.927-.366-1.182-.24-.255-.612-.383-1.117-.383-.41 0-.77.11-1.08.328a2.23 2.23 0 0 0-.725.861V325h-1.265v-7.396h1.196zm10.975 5.434c0-.342-.128-.607-.386-.796-.257-.19-.706-.352-1.346-.49-.64-.136-1.149-.3-1.525-.491-.376-.192-.654-.42-.834-.684a1.635 1.635 0 0 1-.27-.943c0-.606.256-1.119.77-1.538.512-.42 1.167-.63 1.964-.63.839 0 1.52.217 2.041.65.522.433.783.987.783 1.661h-1.272c0-.346-.147-.645-.44-.895-.295-.25-.665-.376-1.112-.376-.46 0-.82.1-1.08.3a.948.948 0 0 0-.39.787c0 .305.122.535.363.69.242.155.678.303 1.31.445.63.14 1.142.31 1.534.505.392.196.682.432.871.708.19.276.284.612.284 1.008 0 .661-.264 1.19-.793 1.59-.529.398-1.214.598-2.058.598-.592 0-1.116-.105-1.572-.315a2.557 2.557 0 0 1-1.07-.878 2.117 2.117 0 0 1-.386-1.22h1.265c.023.423.192.76.51 1.008.316.248.734.372 1.253.372.479 0 .863-.096 1.152-.29.29-.194.434-.452.434-.776z" fill="#74838B"/>
            <path d="M75 333c7.18 0 13-5.82 13-13s-5.82-13-13-13-13 5.82-13 13 5.82 13 13 13zm0 2c-8.284 0-15-6.716-15-15 0-8.284 6.716-15 15-15 8.284 0 15 6.716 15 15 0 8.284-6.716 15-15 15z" fill="#E7ECEE"/>
            <circle fill="#88CAA0" cx="75" cy="270" r="15"/>
            <path d="M70.698 269.397a1 1 0 1 0-1.396 1.433l3.444 3.357a1 1 0 0 0 1.4-.005l6.556-6.47a1 1 0 1 0-1.404-1.424l-5.858 5.782-2.742-2.673z" fill="#FFF"/>
            <circle fill="#88CAA0" cx="75" cy="220" r="15"/>
            <path d="M70.698 219.397a1 1 0 1 0-1.396 1.433l3.444 3.357a1 1 0 0 0 1.4-.005l6.556-6.47a1 1 0 1 0-1.404-1.424l-5.858 5.782-2.742-2.673z" fill="#FFF"/>
            <path d="M75 183c7.18 0 13-5.82 13-13s-5.82-13-13-13-13 5.82-13 13 5.82 13 13 13zm0 2c-8.284 0-15-6.716-15-15 0-8.284 6.716-15 15-15 8.284 0 15 6.716 15 15 0 8.284-6.716 15-15 15z" fill="#E7ECEE"/>
            <path d="M62.115 120.66V124H60.99v-8.531h3.147c.933 0 1.665.238 2.194.715.53.476.794 1.107.794 1.892 0 .828-.259 1.466-.776 1.913-.518.448-1.26.671-2.224.671h-2.01zm0-.92h2.022c.601 0 1.062-.141 1.383-.425.32-.283.48-.692.48-1.227 0-.508-.16-.914-.48-1.219-.32-.305-.76-.463-1.319-.474h-2.086v3.345zm7.573 4.26h-1.084v-6.34h1.084V124zm-1.172-8.021c0-.176.054-.325.162-.446.107-.12.266-.181.477-.181.211 0 .371.06.48.181a.64.64 0 0 1 .165.446.62.62 0 0 1-.164.439c-.11.117-.27.176-.48.176-.212 0-.371-.059-.478-.176a.626.626 0 0 1-.162-.44zm5.57 7.253c.386 0 .724-.117 1.013-.351.29-.235.45-.527.48-.879h1.026c-.02.363-.144.709-.375 1.037a2.47 2.47 0 0 1-.923.785 2.663 2.663 0 0 1-1.221.293c-.864 0-1.55-.288-2.06-.864-.51-.576-.765-1.364-.765-2.364v-.182c0-.617.114-1.166.34-1.646.227-.48.552-.854.976-1.12.424-.265.925-.398 1.503-.398.71 0 1.302.213 1.772.639.471.425.722.978.753 1.658H75.58a1.494 1.494 0 0 0-.466-1.01 1.45 1.45 0 0 0-1.034-.396c-.55 0-.978.198-1.28.594-.303.397-.455.97-.455 1.72v.205c0 .73.15 1.293.452 1.688.3.394.73.591 1.289.591zm5.628-2.168l-.68.71V124H77.95v-9h1.084v5.443l.58-.697 1.975-2.086h1.318l-2.467 2.649L83.194 124h-1.272l-2.208-2.936zm8.993-4.939v1.535h1.184v.838h-1.184v3.932c0 .254.053.444.159.571.105.127.285.19.539.19.125 0 .297-.023.515-.07V124a3.143 3.143 0 0 1-.832.117c-.484 0-.85-.146-1.095-.44-.247-.292-.37-.708-.37-1.247v-3.932H86.47v-.838h1.154v-1.535h1.084zm8.183 6.38l1.219-4.845h1.084L97.347 124h-.879l-1.541-4.805-1.5 4.805h-.879l-1.84-6.34h1.078l1.248 4.746 1.477-4.746h.873l1.506 4.846zm3.237-1.734c0-.62.122-1.18.366-1.675a2.732 2.732 0 0 1 1.02-1.149c.435-.27.932-.404 1.491-.404.863 0 1.562.299 2.095.896.533.598.8 1.393.8 2.385v.076c0 .618-.119 1.171-.355 1.662-.236.49-.574.872-1.014 1.145-.439.273-.944.41-1.514.41-.86 0-1.556-.299-2.09-.896-.532-.598-.799-1.389-.799-2.373v-.077zm1.09.13c0 .703.163 1.267.49 1.693.325.426.762.638 1.309.638.55 0 .988-.215 1.312-.647.325-.432.487-1.036.487-1.814 0-.695-.165-1.258-.496-1.69a1.574 1.574 0 0 0-1.315-.647c-.535 0-.967.212-1.295.638-.328.426-.492 1.035-.492 1.828zm10.722-4.776v1.535h1.184v.838h-1.184v3.932c0 .254.053.444.159.571.105.127.285.19.539.19.125 0 .297-.023.515-.07V124a3.143 3.143 0 0 1-.832.117c-.484 0-.85-.146-1.095-.44-.247-.292-.37-.708-.37-1.247v-3.932h-1.154v-.838h1.154v-1.535h1.084zm2.165 4.646c0-.62.122-1.18.367-1.675a2.732 2.732 0 0 1 1.019-1.149c.436-.27.933-.404 1.491-.404.864 0 1.562.299 2.095.896.533.598.8 1.393.8 2.385v.076c0 .618-.118 1.171-.355 1.662-.236.49-.574.872-1.013 1.145-.44.273-.945.41-1.515.41-.86 0-1.556-.299-2.089-.896-.533-.598-.8-1.389-.8-2.373v-.077zm1.09.13c0 .703.163 1.267.49 1.693.326.426.762.638 1.309.638.55 0 .988-.215 1.312-.647.325-.432.487-1.036.487-1.814 0-.695-.165-1.258-.495-1.69a1.574 1.574 0 0 0-1.316-.647c-.535 0-.967.212-1.295.638-.328.426-.492 1.035-.492 1.828zM128.36 124c-.063-.125-.113-.348-.152-.668-.504.523-1.106.785-1.805.785-.625 0-1.138-.177-1.538-.53-.4-.354-.6-.802-.6-1.345 0-.66.25-1.173.752-1.538s1.208-.548 2.118-.548h1.055v-.498c0-.379-.113-.68-.34-.905-.226-.225-.56-.337-1.002-.337-.387 0-.71.098-.972.293-.262.195-.393.432-.393.709h-1.09c0-.316.112-.622.337-.917a2.3 2.3 0 0 1 .914-.7 3.075 3.075 0 0 1 1.269-.258c.73 0 1.302.183 1.716.548.415.365.63.868.645 1.509v2.918c0 .582.074 1.044.223 1.388V124h-1.137zm-1.799-.826c.34 0 .662-.088.967-.264.305-.176.525-.404.662-.685v-1.301h-.85c-1.328 0-1.992.388-1.992 1.166 0 .34.113.605.34.797.227.191.518.287.873.287zm5.558-5.514l.035.797c.484-.61 1.117-.914 1.898-.914 1.34 0 2.016.756 2.028 2.268V124h-1.084v-4.195c-.004-.457-.109-.795-.314-1.014-.205-.219-.524-.328-.958-.328-.352 0-.66.094-.926.281a1.91 1.91 0 0 0-.62.738V124h-1.085v-6.34h1.026zm9.407 4.658c0-.293-.11-.52-.331-.682-.221-.162-.606-.302-1.155-.42-.548-.116-.984-.257-1.306-.421-.323-.164-.56-.36-.715-.586a1.402 1.402 0 0 1-.232-.809c0-.52.22-.959.66-1.318.44-.36 1-.539 1.684-.539.719 0 1.302.186 1.75.557.446.37.67.845.67 1.423h-1.09c0-.296-.126-.552-.378-.767-.252-.215-.569-.322-.952-.322-.394 0-.703.086-.926.257a.812.812 0 0 0-.334.674c0 .262.104.46.311.592.207.133.581.26 1.122.38.541.122.98.267 1.315.434.336.168.585.37.748.607.162.236.243.524.243.864 0 .567-.227 1.02-.68 1.362-.453.342-1.041.513-1.764.513-.507 0-.957-.09-1.347-.27a2.18 2.18 0 0 1-.917-.752 1.815 1.815 0 0 1-.331-1.046h1.084c.02.363.165.651.436.864.272.213.63.32 1.075.32.41 0 .74-.084.988-.25.248-.166.372-.387.372-.665zm8.23.188l1.218-4.846h1.084l-1.846 6.34h-.879l-1.54-4.805-1.5 4.805h-.88l-1.84-6.34h1.079l1.248 4.746 1.476-4.746h.873l1.506 4.846zm6.154 1.611c-.86 0-1.558-.282-2.097-.846-.54-.565-.809-1.32-.809-2.265v-.2c0-.628.12-1.19.36-1.684s.577-.88 1.008-1.16c.432-.28.9-.419 1.403-.419.825 0 1.465.271 1.922.814.457.543.686 1.32.686 2.332v.452h-4.295c.016.625.198 1.13.548 1.514.35.385.794.577 1.333.577.383 0 .707-.078.972-.234.266-.156.499-.363.698-.621l.662.516c-.531.816-1.328 1.224-2.39 1.224zm-.135-5.683c-.437 0-.804.159-1.101.477-.297.318-.48.765-.55 1.339h3.175v-.082c-.031-.55-.18-.978-.445-1.28-.266-.303-.625-.454-1.079-.454zm7.046.199a3.248 3.248 0 0 0-.533-.041c-.71 0-1.193.303-1.447.908v4.5h-1.084v-6.34h1.054l.018.733c.356-.567.86-.85 1.512-.85.21 0 .37.027.48.082v1.008zm.42 4.799c0-.188.055-.344.166-.47.111-.124.278-.187.501-.187.223 0 .392.063.507.188a.665.665 0 0 1 .173.469.63.63 0 0 1-.173.45c-.115.122-.284.182-.507.182-.223 0-.39-.06-.5-.181a.641.641 0 0 1-.168-.451z" fill="#74838B"/>
            <path d="M64.953 69.293l.287 1.97.42-1.775 2.953-10.418h1.661l2.882 10.418.41 1.805.318-2.01L76.2 59.07h1.98L74.56 74h-1.795L69.69 63.12l-.236-1.138-.236 1.139L66.03 74h-1.794l-3.61-14.93h1.97l2.358 10.223zM82.15 64.25c.84-1.033 1.934-1.549 3.28-1.549 2.346 0 3.528 1.323 3.549 3.968V74h-1.897v-7.342c-.007-.8-.19-1.39-.549-1.774-.359-.383-.918-.574-1.676-.574-.616 0-1.156.164-1.62.492a3.342 3.342 0 0 0-1.087 1.292V74h-1.897V58.25h1.897v5.999zM98.856 74c-.11-.219-.198-.608-.266-1.169-.882.916-1.935 1.374-3.159 1.374-1.093 0-1.99-.31-2.691-.928-.7-.619-1.051-1.403-1.051-2.353 0-1.155.439-2.053 1.317-2.692.879-.639 2.114-.959 3.707-.959h1.846v-.871c0-.663-.198-1.191-.595-1.584-.396-.393-.98-.59-1.753-.59-.677 0-1.244.17-1.702.513-.458.342-.687.755-.687 1.24h-1.908c0-.553.197-1.088.59-1.604.393-.516.926-.925 1.6-1.226a5.381 5.381 0 0 1 2.22-.45c1.278 0 2.28.319 3.004.958.725.64 1.1 1.52 1.128 2.64v5.107c0 1.018.13 1.828.39 2.43V74h-1.99zm-3.148-1.446c.595 0 1.159-.154 1.692-.461.533-.308.92-.708 1.159-1.2v-2.276h-1.487c-2.324 0-3.486.68-3.486 2.04 0 .595.198 1.06.594 1.395.397.335.906.502 1.528.502zM106.19 60.22v2.686h2.071v1.467h-2.071v6.88c0 .444.092.778.277 1 .184.222.499.333.943.333.219 0 .52-.041.902-.123V74a5.5 5.5 0 0 1-1.456.205c-.847 0-1.486-.256-1.917-.769-.43-.513-.646-1.24-.646-2.184v-6.88h-2.02v-1.467h2.02V60.22h1.897zm11.642 2.686l.052 1.23c.813-.956 1.91-1.435 3.291-1.435 1.552 0 2.608.595 3.168 1.784.37-.533.85-.963 1.441-1.292.591-.328 1.29-.492 2.097-.492 2.434 0 3.671 1.289 3.712 3.866V74h-1.897v-7.321c0-.793-.181-1.386-.543-1.78-.363-.392-.971-.589-1.826-.589-.704 0-1.288.21-1.753.63-.465.421-.735.987-.81 1.698V74h-1.907v-7.27c0-1.613-.79-2.42-2.369-2.42-1.244 0-2.095.53-2.553 1.59V74h-1.897V62.905h1.794zM141.49 74c-.11-.219-.198-.608-.266-1.169-.882.916-1.935 1.374-3.159 1.374-1.093 0-1.99-.31-2.691-.928-.701-.619-1.051-1.403-1.051-2.353 0-1.155.439-2.053 1.317-2.692.879-.639 2.114-.959 3.707-.959h1.846v-.871c0-.663-.198-1.191-.595-1.584-.396-.393-.98-.59-1.753-.59-.677 0-1.245.17-1.703.513-.458.342-.687.755-.687 1.24h-1.907c0-.553.197-1.088.59-1.604.393-.516.926-.925 1.6-1.226a5.381 5.381 0 0 1 2.22-.45c1.278 0 2.28.319 3.004.958.724.64 1.1 1.52 1.128 2.64v5.107c0 1.018.13 1.828.39 2.43V74h-1.99zm-3.148-1.446c.595 0 1.159-.154 1.692-.461.533-.308.92-.708 1.159-1.2v-2.276h-1.487c-2.324 0-3.486.68-3.486 2.04 0 .595.198 1.06.594 1.395.397.335.906.502 1.528.502zm11.005-3.691l-1.19 1.24V74h-1.897V58.25h1.897v9.526l1.015-1.22 3.456-3.65h2.307l-4.317 4.634 4.82 6.46h-2.226l-3.865-5.137zm12.132 5.342c-1.504 0-2.727-.494-3.67-1.482-.944-.987-1.416-2.308-1.416-3.963v-.348c0-1.101.21-2.084.63-2.948.421-.865 1.01-1.542 1.765-2.03a4.434 4.434 0 0 1 2.455-.734c1.443 0 2.564.475 3.364 1.425.8.95 1.2 2.311 1.2 4.082v.79h-7.517c.028 1.093.347 1.976.959 2.65.612.673 1.39 1.01 2.333 1.01.67 0 1.237-.137 1.702-.41a4.277 4.277 0 0 0 1.22-1.087l1.159.902c-.93 1.429-2.324 2.143-4.184 2.143zm-.236-9.946a2.53 2.53 0 0 0-1.927.835c-.52.558-.841 1.339-.964 2.344h5.557v-.144c-.054-.964-.314-1.71-.779-2.24-.465-.53-1.094-.795-1.887-.795zm13.404 6.798c0-.513-.193-.91-.58-1.194-.385-.284-1.059-.529-2.02-.734-.96-.205-1.722-.45-2.286-.738-.564-.287-.98-.629-1.25-1.025-.27-.397-.406-.868-.406-1.415 0-.91.385-1.679 1.154-2.307.769-.63 1.752-.944 2.948-.944 1.258 0 2.278.325 3.06.974.783.65 1.175 1.48 1.175 2.492h-1.908c0-.52-.22-.967-.66-1.343-.442-.376-.997-.564-1.667-.564-.69 0-1.23.15-1.62.451-.39.3-.585.694-.585 1.18 0 .457.181.802.544 1.035.362.232 1.017.454 1.963.666.947.212 1.714.465 2.302.76.588.293 1.024.647 1.308 1.06.283.414.425.918.425 1.513 0 .991-.396 1.786-1.19 2.384-.792.598-1.821.897-3.086.897-.888 0-1.674-.157-2.358-.472-.684-.314-1.219-.753-1.605-1.317a3.176 3.176 0 0 1-.58-1.83h1.898c.034.635.289 1.14.764 1.512.475.372 1.102.559 1.881.559.718 0 1.294-.146 1.728-.436.434-.29.651-.679.651-1.164zm14.637-3.712c-1.689-.485-2.917-1.082-3.686-1.79-.77-.707-1.154-1.58-1.154-2.619 0-1.176.47-2.148 1.41-2.917.94-.77 2.162-1.154 3.666-1.154 1.025 0 1.94.198 2.743.595.803.396 1.425.943 1.866 1.64.44.698.661 1.46.661 2.287h-1.979c0-.902-.287-1.611-.861-2.127-.574-.517-1.384-.775-2.43-.775-.971 0-1.728.214-2.272.641-.543.427-.815 1.02-.815 1.78 0 .608.258 1.122.774 1.542.517.42 1.395.805 2.636 1.154 1.24.349 2.211.733 2.912 1.154.7.42 1.22.91 1.558 1.471.339.56.508 1.22.508 1.98 0 1.209-.472 2.178-1.415 2.906-.943.728-2.205 1.092-3.784 1.092a7.017 7.017 0 0 1-2.87-.59c-.89-.393-1.575-.93-2.057-1.615a3.941 3.941 0 0 1-.723-2.327h1.98c0 .902.333 1.615.999 2.138.667.523 1.557.784 2.671.784 1.04 0 1.836-.212 2.39-.636.553-.423.83-1.001.83-1.732 0-.732-.256-1.298-.77-1.697-.512-.4-1.442-.795-2.788-1.185zm11.579 3.876l2.584-8.316h2.03l-4.46 12.807c-.691 1.846-1.788 2.769-3.292 2.769l-.359-.03-.708-.134v-1.538l.513.04c.643 0 1.143-.13 1.502-.389.36-.26.655-.735.887-1.425l.42-1.128-3.957-10.972h2.071l2.769 8.316zM209.416 74h-1.897V58.25h1.897V74zm5.283 0h-1.897V58.25h1.897V74zm10.072 0c-.11-.219-.199-.608-.267-1.169-.882.916-1.934 1.374-3.158 1.374-1.094 0-1.991-.31-2.692-.928-.7-.619-1.05-1.403-1.05-2.353 0-1.155.438-2.053 1.317-2.692.878-.639 2.114-.959 3.707-.959h1.845v-.871c0-.663-.198-1.191-.594-1.584-.397-.393-.981-.59-1.754-.59-.677 0-1.244.17-1.702.513-.458.342-.687.755-.687 1.24h-1.907c0-.553.196-1.088.59-1.604.392-.516.926-.925 1.599-1.226a5.381 5.381 0 0 1 2.22-.45c1.278 0 2.28.319 3.004.958.725.64 1.101 1.52 1.128 2.64v5.107c0 1.018.13 1.828.39 2.43V74h-1.99zm-3.148-1.446c.594 0 1.158-.154 1.692-.461.533-.308.92-.708 1.158-1.2v-2.276h-1.486c-2.325 0-3.487.68-3.487 2.04 0 .595.198 1.06.595 1.395.396.335.906.502 1.528.502zm17.3-3.978c0 1.695-.39 3.057-1.169 4.086-.78 1.029-1.825 1.543-3.137 1.543-1.402 0-2.485-.496-3.25-1.487L231.273 74h-1.743V58.25h1.897v5.875c.765-.95 1.821-1.425 3.168-1.425 1.347 0 2.405.51 3.174 1.528.769 1.019 1.153 2.413 1.153 4.184v.164zm-1.897-.216c0-1.292-.25-2.29-.748-2.994-.5-.704-1.217-1.056-2.154-1.056-1.25 0-2.15.581-2.696 1.743v4.8c.58 1.161 1.486 1.742 2.717 1.742.91 0 1.617-.352 2.122-1.056.506-.704.76-1.764.76-3.179zm11.323 4.543c-.739.868-1.822 1.302-3.25 1.302-1.183 0-2.084-.343-2.703-1.03-.618-.687-.931-1.704-.938-3.051v-7.219h1.897v7.168c0 1.681.684 2.522 2.05 2.522 1.45 0 2.414-.54 2.892-1.62v-8.07h1.897V74h-1.804l-.041-1.097zm11.373-1.846c0-.513-.193-.91-.579-1.194-.386-.284-1.06-.529-2.02-.734-.96-.205-1.723-.45-2.287-.738-.564-.287-.98-.629-1.25-1.025-.27-.397-.406-.868-.406-1.415 0-.91.385-1.679 1.154-2.307.769-.63 1.752-.944 2.948-.944 1.258 0 2.278.325 3.06.974.783.65 1.175 1.48 1.175 2.492h-1.907c0-.52-.22-.967-.662-1.343-.44-.376-.996-.564-1.666-.564-.69 0-1.23.15-1.62.451-.39.3-.585.694-.585 1.18 0 .457.181.802.544 1.035.362.232 1.017.454 1.963.666.947.212 1.714.465 2.302.76.588.293 1.024.647 1.308 1.06.283.414.425.918.425 1.513 0 .991-.396 1.786-1.19 2.384-.792.598-1.82.897-3.086.897-.888 0-1.674-.157-2.358-.472-.684-.314-1.219-.753-1.605-1.317a3.176 3.176 0 0 1-.58-1.83h1.898c.034.635.289 1.14.764 1.512.475.372 1.102.559 1.881.559.718 0 1.294-.146 1.728-.436.434-.29.651-.679.651-1.164zm-191.826 24c0-.513-.194-.91-.58-1.194-.386-.284-1.06-.529-2.02-.734-.96-.205-1.723-.45-2.286-.738-.564-.287-.981-.629-1.251-1.025-.27-.397-.405-.868-.405-1.415 0-.91.384-1.679 1.153-2.307.77-.63 1.752-.944 2.948-.944 1.258 0 2.278.325 3.06.974.784.65 1.175 1.48 1.175 2.492h-1.907c0-.52-.22-.967-.662-1.343-.44-.376-.996-.564-1.666-.564-.69 0-1.23.15-1.62.451-.39.3-.585.694-.585 1.18 0 .457.182.802.544 1.035.362.232 1.017.454 1.964.666.946.212 1.714.465 2.302.76.587.293 1.023.647 1.307 1.06.284.414.425.918.425 1.513 0 .991-.396 1.786-1.189 2.384-.793.598-1.822.897-3.086.897-.89 0-1.675-.157-2.359-.472-.683-.314-1.218-.753-1.605-1.317a3.176 3.176 0 0 1-.579-1.83h1.897c.034.635.289 1.14.764 1.512.475.372 1.102.559 1.882.559.717 0 1.293-.146 1.727-.436.434-.29.652-.679.652-1.164zm4.052-2.707c0-1.087.214-2.064.64-2.933.428-.868 1.023-1.538 1.785-2.01.762-.471 1.632-.707 2.61-.707 1.51 0 2.732.523 3.665 1.569.933 1.046 1.4 2.437 1.4 4.173v.134c0 1.08-.207 2.049-.62 2.907-.414.858-1.005 1.526-1.774 2.004-.77.479-1.653.718-2.65.718-1.505 0-2.723-.523-3.656-1.569-.934-1.046-1.4-2.43-1.4-4.153v-.133zm1.907.226c0 1.23.286 2.218.856 2.963.571.745 1.335 1.118 2.292 1.118.964 0 1.73-.378 2.297-1.133.567-.756.851-1.814.851-3.174 0-1.217-.289-2.203-.866-2.958-.578-.756-1.345-1.133-2.302-1.133-.937 0-1.692.372-2.267 1.117-.574.746-.86 1.812-.86 3.2zm20.748 5.63c-1.504 0-2.728-.495-3.67-1.483-.944-.987-1.416-2.308-1.416-3.963v-.348c0-1.101.21-2.084.63-2.948.421-.865 1.009-1.542 1.764-2.03a4.434 4.434 0 0 1 2.456-.734c1.443 0 2.564.475 3.363 1.425.8.95 1.2 2.311 1.2 4.082v.79h-7.516c.027 1.093.347 1.976.959 2.65.612.673 1.39 1.01 2.333 1.01.67 0 1.237-.137 1.702-.41a4.277 4.277 0 0 0 1.22-1.087l1.159.902c-.93 1.429-2.325 2.143-4.184 2.143zm-.236-9.947a2.53 2.53 0 0 0-1.928.835c-.52.558-.84 1.339-.963 2.344h5.557v-.144c-.055-.964-.314-1.71-.78-2.24-.464-.53-1.093-.795-1.886-.795zM108.161 98c-.11-.219-.199-.608-.267-1.169-.882.916-1.934 1.374-3.158 1.374-1.094 0-1.991-.31-2.692-.928-.7-.619-1.05-1.403-1.05-2.353 0-1.155.438-2.053 1.317-2.692.878-.639 2.114-.959 3.707-.959h1.845v-.871c0-.663-.198-1.191-.594-1.584-.397-.393-.981-.59-1.754-.59-.677 0-1.244.17-1.702.513-.458.342-.687.755-.687 1.24h-1.907c0-.553.196-1.088.59-1.604.393-.516.926-.925 1.599-1.226a5.381 5.381 0 0 1 2.22-.45c1.278 0 2.28.319 3.004.958.725.64 1.101 1.52 1.128 2.64v5.107c0 1.018.13 1.828.39 2.43V98h-1.99zm-3.148-1.446c.595 0 1.158-.154 1.692-.461.533-.308.92-.708 1.158-1.2v-2.276h-1.486c-2.325 0-3.487.68-3.487 2.04 0 .595.198 1.06.595 1.395.396.335.906.502 1.528.502zm14.368-1.497c0-.513-.194-.91-.58-1.194-.386-.284-1.06-.529-2.02-.734-.96-.205-1.722-.45-2.286-.738-.564-.287-.981-.629-1.251-1.025-.27-.397-.405-.868-.405-1.415 0-.91.384-1.679 1.153-2.307.77-.63 1.752-.944 2.948-.944 1.258 0 2.278.325 3.061.974.783.65 1.174 1.48 1.174 2.492h-1.907c0-.52-.22-.967-.662-1.343-.44-.376-.996-.564-1.666-.564-.69 0-1.23.15-1.62.451-.39.3-.584.694-.584 1.18 0 .457.18.802.543 1.035.362.232 1.017.454 1.964.666.946.212 1.714.465 2.302.76.588.293 1.023.647 1.307 1.06.284.414.426.918.426 1.513 0 .991-.397 1.786-1.19 2.384-.793.598-1.822.897-3.086.897-.889 0-1.675-.157-2.359-.472-.683-.314-1.218-.753-1.604-1.317a3.176 3.176 0 0 1-.58-1.83h1.897c.034.635.289 1.14.764 1.512.475.372 1.102.559 1.882.559.717 0 1.293-.146 1.727-.436.435-.29.652-.679.652-1.164zm8.184.164l2.584-8.316h2.03l-4.46 12.807c-.69 1.846-1.787 2.769-3.291 2.769l-.36-.03-.707-.134v-1.538l.513.04c.642 0 1.143-.13 1.502-.389.359-.26.655-.735.887-1.425l.42-1.128-3.958-10.972h2.072l2.768 8.316zm14.452-11.002v2.686h2.072v1.467h-2.072v6.88c0 .444.093.778.277 1 .185.222.5.333.943.333.22 0 .52-.041.903-.123V98a5.5 5.5 0 0 1-1.456.205c-.848 0-1.487-.256-1.918-.769-.43-.513-.646-1.24-.646-2.184v-6.88h-2.02v-1.467h2.02V84.22h1.897zm3.766 8.131c0-1.087.213-2.064.64-2.933.428-.868 1.022-1.538 1.785-2.01.762-.471 1.632-.707 2.61-.707 1.51 0 2.732.523 3.665 1.569.933 1.046 1.4 2.437 1.4 4.173v.134c0 1.08-.207 2.049-.62 2.907-.414.858-1.006 1.526-1.775 2.004-.769.479-1.652.718-2.65.718-1.504 0-2.723-.523-3.656-1.569-.933-1.046-1.4-2.43-1.4-4.153v-.133zm1.907.226c0 1.23.285 2.218.856 2.963.57.745 1.335 1.118 2.292 1.118.964 0 1.73-.378 2.297-1.133.567-.756.85-1.814.85-3.174 0-1.217-.288-2.203-.866-2.958-.577-.756-1.345-1.133-2.302-1.133-.936 0-1.692.372-2.266 1.117-.574.746-.861 1.812-.861 3.2zm22.993 4.327c-.738.868-1.822 1.302-3.25 1.302-1.183 0-2.084-.343-2.702-1.03-.619-.687-.932-1.704-.938-3.051v-7.219h1.897v7.168c0 1.681.683 2.522 2.05 2.522 1.45 0 2.413-.54 2.892-1.62v-8.07h1.897V98h-1.805l-.04-1.097zm11.374-1.846c0-.513-.193-.91-.58-1.194-.386-.284-1.059-.529-2.02-.734-.96-.205-1.722-.45-2.286-.738-.564-.287-.981-.629-1.251-1.025-.27-.397-.405-.868-.405-1.415 0-.91.384-1.679 1.153-2.307.77-.63 1.752-.944 2.948-.944 1.258 0 2.279.325 3.061.974.783.65 1.174 1.48 1.174 2.492h-1.907c0-.52-.22-.967-.661-1.343-.441-.376-.997-.564-1.667-.564-.69 0-1.23.15-1.62.451-.39.3-.584.694-.584 1.18 0 .457.181.802.543 1.035.363.232 1.017.454 1.964.666.947.212 1.714.465 2.302.76.588.293 1.024.647 1.307 1.06.284.414.426.918.426 1.513 0 .991-.397 1.786-1.19 2.384-.793.598-1.821.897-3.086.897-.889 0-1.675-.157-2.358-.472-.684-.314-1.219-.753-1.605-1.317a3.176 3.176 0 0 1-.58-1.83h1.897c.035.635.29 1.14.764 1.512.475.372 1.103.559 1.882.559.718 0 1.294-.146 1.728-.436.434-.29.65-.679.65-1.164zm9.159 3.148c-1.504 0-2.728-.494-3.671-1.482-.944-.987-1.415-2.308-1.415-3.963v-.348c0-1.101.21-2.084.63-2.948.42-.865 1.009-1.542 1.764-2.03a4.434 4.434 0 0 1 2.456-.734c1.442 0 2.563.475 3.363 1.425.8.95 1.2 2.311 1.2 4.082v.79h-7.516c.027 1.093.347 1.976.959 2.65.611.673 1.389 1.01 2.332 1.01.67 0 1.238-.137 1.702-.41a4.277 4.277 0 0 0 1.22-1.087l1.16.902c-.93 1.429-2.325 2.143-4.184 2.143zm-.236-9.946a2.53 2.53 0 0 0-1.928.835c-.52.558-.84 1.339-.964 2.344h5.558v-.144c-.055-.964-.315-1.71-.78-2.24-.464-.53-1.093-.795-1.886-.795zm9.169 5.537c.014-.814.106-1.456.277-1.928.17-.472.52-.994 1.046-1.569l1.343-1.384c.574-.65.861-1.347.861-2.092 0-.718-.188-1.28-.564-1.687-.376-.406-.922-.61-1.64-.61-.698 0-1.258.185-1.682.554-.424.37-.636.865-.636 1.487h-1.897c.014-1.108.409-2.001 1.185-2.682.776-.68 1.786-1.02 3.03-1.02 1.292 0 2.298.347 3.02 1.041.72.694 1.081 1.646 1.081 2.856 0 1.196-.553 2.375-1.66 3.537l-1.119 1.108c-.499.553-.748 1.35-.748 2.389h-1.897zm-.082 3.25c0-.307.094-.565.282-.774.188-.208.466-.313.836-.313.369 0 .649.105.84.313.192.209.288.467.288.774 0 .308-.096.563-.288.764-.191.202-.471.303-.84.303-.37 0-.648-.101-.836-.303a1.076 1.076 0 0 1-.282-.764z" fill="#344551"/>
        </g>
        <path d="M2 30.004v339.992C2 374.412 5.582 378 9.993 378h305.014c4.416 0 7.993-3.582 7.993-8.004V30.004c0-4.416-3.582-8.004-7.993-8.004H9.993C5.577 22 2 25.582 2 30.004zm-2 0C0 24.48 4.47 20 9.993 20h305.014c5.519 0 9.993 4.487 9.993 10.004v339.992c0 5.525-4.47 10.004-9.993 10.004H9.993C4.474 380 0 375.513 0 369.996V30.004z" fill="#E7ECEF"/>
        <path d="M51 186.999V321a3.997 3.997 0 0 0 4.002 4h214.996a4.004 4.004 0 0 0 4.002-3.999V187a3.997 3.997 0 0 0-4.002-3.999H55.002A4.004 4.004 0 0 0 51 186.999zm-1 0A5.004 5.004 0 0 1 55.002 182h214.996a4.997 4.997 0 0 1 5.002 4.999V321a5.004 5.004 0 0 1-5.002 4.999H55.002A4.997 4.997 0 0 1 50 321.001V187z" fill="#F1F1F1"/>
        <path d="M81.5 289h161.911v-1H81.5zm7.141-10.177c-.086.91-.421 1.62-1.007 2.13-.586.51-1.366.764-2.338.764-.68 0-1.279-.16-1.796-.483-.518-.322-.917-.78-1.198-1.374-.282-.594-.428-1.283-.44-2.069v-.796c0-.805.143-1.514.428-2.127.285-.614.694-1.086 1.227-1.418.534-.332 1.15-.498 1.849-.498.941 0 1.7.255 2.273.767.575.512.909 1.235 1.002 2.168h-1.476c-.07-.613-.25-1.056-.536-1.327-.287-.272-.708-.407-1.263-.407-.645 0-1.14.235-1.485.706-.346.47-.523 1.16-.53 2.071v.756c0 .922.164 1.625.495 2.11.33.484.813.726 1.45.726.582 0 1.02-.131 1.312-.393.293-.261.479-.697.557-1.306h1.476zm2.822 2.777h-1.424v-9h1.424v9zm3.184 0h-1.424v-6.34h1.424v6.34zm-1.512-7.986c0-.22.07-.4.208-.545.139-.145.337-.217.595-.217.258 0 .457.072.598.217a.75.75 0 0 1 .21.545c0 .215-.07.393-.21.536-.14.142-.34.214-.598.214-.258 0-.456-.072-.595-.214a.738.738 0 0 1-.208-.536zm5.786 6.966c.356 0 .65-.103.885-.31a1.06 1.06 0 0 0 .375-.768h1.342a2.091 2.091 0 0 1-.37 1.105c-.23.342-.542.612-.937.811-.394.2-.82.3-1.277.3-.887 0-1.59-.288-2.11-.862-.519-.574-.779-1.367-.779-2.379v-.147c0-.964.258-1.737.774-2.317.515-.58 1.218-.87 2.109-.87.754 0 1.368.22 1.843.66.474.439.723 1.016.747 1.73h-1.342c-.016-.363-.14-.662-.372-.896-.232-.234-.528-.351-.888-.351-.46 0-.816.167-1.066.5-.25.335-.377.841-.38 1.521v.229c0 .687.123 1.2.371 1.538.248.338.607.506 1.075.506zm5.857-1.699l-.633.65v2.069h-1.424v-9h1.424v5.191l.445-.556 1.752-1.975h1.711l-2.355 2.643 2.607 3.697h-1.646l-1.881-2.719zm7.165-.51c0-.62.123-1.18.37-1.678a2.695 2.695 0 0 1 1.037-1.149c.445-.267.957-.401 1.535-.401.855 0 1.55.275 2.083.826.533.55.821 1.281.864 2.192l.006.334c0 .625-.12 1.183-.36 1.675-.24.493-.584.873-1.032 1.143-.447.27-.963.404-1.55.404-.894 0-1.61-.298-2.147-.893-.537-.596-.806-1.39-.806-2.382v-.07zm1.424.124c0 .652.135 1.163.405 1.532s.644.553 1.125.553c.48 0 .854-.187 1.122-.562.267-.375.401-.924.401-1.647 0-.64-.138-1.148-.413-1.523a1.319 1.319 0 0 0-1.122-.562c-.465 0-.834.184-1.108.553-.273.37-.41.921-.41 1.656zm9.114-1.934a3.523 3.523 0 0 0-.58-.047c-.652 0-1.091.25-1.318.75v4.336h-1.424v-6.34h1.36l.035.71c.343-.552.82-.827 1.43-.827.202 0 .37.027.503.082l-.006 1.336zm3.862 1.822c0-.976.226-1.76.68-2.352.452-.592 1.06-.888 1.821-.888.672 0 1.215.234 1.63.703V272.6h1.423v9h-1.289l-.07-.656c-.426.515-.994.773-1.705.773-.742 0-1.343-.299-1.802-.896-.459-.598-.688-1.41-.688-2.438zm1.423.123c0 .645.124 1.148.372 1.509s.601.542 1.058.542c.582 0 1.008-.26 1.277-.78v-2.706c-.261-.508-.683-.762-1.265-.762-.461 0-.817.183-1.067.548-.25.365-.375.915-.375 1.65zm9.056-1.945a3.523 3.523 0 0 0-.58-.047c-.653 0-1.092.25-1.319.75v4.336H133.5v-6.34h1.359l.035.71c.344-.552.82-.827 1.43-.827.203 0 .37.027.504.082l-.006 1.336zm4.632 5.039c-.063-.121-.118-.318-.164-.592a2.216 2.216 0 0 1-1.665.71c-.636 0-1.156-.182-1.558-.546a1.743 1.743 0 0 1-.604-1.347c0-.676.251-1.195.753-1.556s1.22-.542 2.154-.542h.873v-.416c0-.328-.092-.59-.276-.788-.183-.197-.463-.296-.838-.296-.324 0-.59.081-.796.243a.753.753 0 0 0-.311.618h-1.424c0-.347.115-.673.346-.975a2.3 2.3 0 0 1 .94-.712 3.303 3.303 0 0 1 1.327-.258c.743 0 1.334.186 1.776.56.441.373.668.897.68 1.573v2.86c0 .57.08 1.025.24 1.364v.1h-1.453zm-1.565-1.025c.281 0 .546-.069.794-.205a1.37 1.37 0 0 0 .56-.551v-1.196h-.768c-.527 0-.924.092-1.19.276a.892.892 0 0 0-.398.78c0 .273.091.49.273.652.181.163.424.244.73.244zm4.14-2.192c0-.984.231-1.77.694-2.358.463-.588 1.077-.882 1.843-.882.722 0 1.29.252 1.705.756l.064-.639h1.284v6.147c0 .832-.26 1.488-.777 1.968s-1.216.721-2.095.721c-.464 0-.919-.097-1.362-.29-.443-.193-.78-.446-1.01-.759l.673-.855c.438.52.977.78 1.617.78.473 0 .846-.129 1.12-.385.273-.256.41-.632.41-1.128v-.427c-.41.457-.957.685-1.64.685-.743 0-1.35-.295-1.82-.885-.471-.59-.706-1.406-.706-2.449zm1.418.123c0 .637.13 1.138.39 1.503s.62.548 1.08.548c.575 0 1-.246 1.278-.738v-2.79c-.27-.48-.692-.72-1.266-.72-.469 0-.833.186-1.093.557-.26.37-.39.918-.39 1.64zm8.636.791c0-.394.108-.757.322-1.087.215-.33.64-.721 1.272-1.174-.332-.418-.564-.774-.694-1.067a2.078 2.078 0 0 1-.197-.85c0-.667.203-1.196.61-1.584.406-.39.953-.583 1.64-.583.621 0 1.13.182 1.527.547.396.366.594.818.594 1.357 0 .355-.09.682-.27.981-.179.3-.474.597-.884.894l-.58.422 1.646 1.945c.239-.469.358-.99.358-1.564h1.236c0 1.05-.246 1.912-.738 2.584l1.254 1.482h-1.653l-.48-.568c-.61.457-1.336.685-2.18.685-.843 0-1.518-.223-2.024-.67-.506-.448-.759-1.031-.759-1.75zm2.824 1.283c.48 0 .93-.16 1.348-.48l-1.863-2.197-.182.129c-.469.355-.703.761-.703 1.218 0 .395.127.715.38.961.255.246.595.37 1.02.37zm-.785-5.496c0 .329.201.74.604 1.237l.65-.446.182-.146c.242-.215.363-.49.363-.826a.757.757 0 0 0-.252-.572.894.894 0 0 0-.639-.237c-.277 0-.498.094-.662.281a1.038 1.038 0 0 0-.246.71zm8.818 3.3c0-.977.227-1.762.68-2.353.453-.592 1.06-.888 1.822-.888.672 0 1.215.234 1.63.703V272.6h1.423v9h-1.29l-.07-.656c-.425.515-.994.773-1.704.773-.743 0-1.343-.299-1.802-.896-.46-.598-.689-1.41-.689-2.438zm1.424.122c0 .645.124 1.148.372 1.509s.6.542 1.058.542c.582 0 1.008-.26 1.277-.78v-2.706c-.262-.508-.683-.762-1.265-.762-.461 0-.817.183-1.067.548-.25.365-.375.915-.375 1.65zm9.056-1.945a3.523 3.523 0 0 0-.58-.047c-.653 0-1.092.25-1.319.75v4.336h-1.424v-6.34h1.36l.035.71c.344-.552.82-.827 1.43-.827.203 0 .37.027.504.082l-.006 1.336zm.542 1.81c0-.62.123-1.18.369-1.678s.591-.881 1.037-1.149c.445-.267.957-.401 1.535-.401.855 0 1.55.275 2.083.826.533.55.821 1.281.864 2.192l.006.334c0 .625-.12 1.183-.36 1.675-.24.493-.584.873-1.032 1.143-.447.27-.963.404-1.55.404-.894 0-1.61-.298-2.147-.893-.537-.596-.805-1.39-.805-2.382v-.07zm1.423.124c0 .652.135 1.163.405 1.532s.644.553 1.125.553c.48 0 .854-.187 1.122-.562.267-.375.401-.924.401-1.647 0-.64-.138-1.148-.413-1.523a1.319 1.319 0 0 0-1.122-.562c-.465 0-.834.184-1.107.553-.274.37-.41.921-.41 1.656zm11.347 0c0 .98-.223 1.762-.668 2.346-.445.584-1.043.876-1.793.876-.695 0-1.252-.228-1.67-.685v3.006h-1.424v-8.778h1.313l.058.645c.418-.508.987-.762 1.705-.762.774 0 1.38.288 1.82.864.44.576.659 1.376.659 2.4v.088zm-1.418-.124c0-.632-.126-1.134-.378-1.505s-.612-.557-1.081-.557c-.582 0-1 .24-1.254.72v2.813c.258.492.68.738 1.266.738.453 0 .807-.182 1.063-.547.256-.366.384-.92.384-1.662zm7.635-4.652v1.541h1.119v1.055h-1.12v3.539c0 .242.048.417.144.524.096.108.267.161.513.161.164 0 .33-.02.498-.058v1.101c-.324.09-.637.135-.938.135-1.093 0-1.64-.603-1.64-1.81v-3.592h-1.043v-1.055h1.043v-1.54h1.424zm1.883 4.652c0-.62.123-1.18.37-1.678a2.693 2.693 0 0 1 1.036-1.149c.446-.267.957-.401 1.536-.401.855 0 1.55.275 2.083.826.533.55.82 1.281.864 2.192l.006.334c0 .625-.12 1.183-.36 1.675-.24.493-.585.873-1.032 1.143-.447.27-.964.404-1.55.404-.894 0-1.61-.298-2.147-.893-.537-.596-.806-1.39-.806-2.382v-.07zm1.424.124c0 .652.135 1.163.404 1.532.27.369.645.553 1.125.553s.855-.187 1.122-.562c.268-.375.402-.924.402-1.647 0-.64-.138-1.148-.413-1.523a1.319 1.319 0 0 0-1.122-.562c-.465 0-.834.184-1.108.553-.273.37-.41.921-.41 1.656zM211 280.979c-.418.492-1.012.738-1.781.738-.688 0-1.208-.201-1.562-.603-.353-.403-.53-.985-.53-1.746v-4.108h1.424v4.09c0 .805.334 1.207 1.002 1.207.691 0 1.158-.248 1.4-.744v-4.553h1.424v6.34h-1.342l-.035-.621zm8.499-2.484c0 .98-.223 1.762-.668 2.346-.445.584-1.043.876-1.793.876-.695 0-1.252-.228-1.67-.685v3.006h-1.424v-8.778h1.313l.058.645c.418-.508.987-.762 1.705-.762.774 0 1.38.288 1.82.864.44.576.659 1.376.659 2.4v.088zm-1.418-.124c0-.632-.126-1.134-.378-1.505s-.612-.557-1.081-.557c-.582 0-1 .24-1.254.72v2.813c.258.492.68.738 1.266.738.453 0 .807-.182 1.063-.547.256-.366.384-.92.384-1.662zm4.257 3.229h-1.424v-9h1.424v9zm1.403-3.229c0-.62.123-1.18.369-1.678s.592-.881 1.037-1.149c.445-.267.957-.401 1.535-.401.856 0 1.55.275 2.083.826.533.55.821 1.281.864 2.192l.006.334c0 .625-.12 1.183-.36 1.675-.24.493-.584.873-1.031 1.143-.448.27-.964.404-1.55.404-.895 0-1.61-.298-2.148-.893-.537-.596-.805-1.39-.805-2.382v-.07zm1.424.124c0 .652.134 1.163.404 1.532s.644.553 1.125.553c.48 0 .854-.187 1.122-.562.268-.375.401-.924.401-1.647 0-.64-.137-1.148-.413-1.523a1.319 1.319 0 0 0-1.122-.562c-.465 0-.834.184-1.107.553-.274.37-.41.921-.41 1.656zm9.582 3.105c-.062-.121-.117-.318-.164-.592a2.216 2.216 0 0 1-1.664.71c-.636 0-1.156-.182-1.558-.546a1.743 1.743 0 0 1-.604-1.347c0-.676.251-1.195.753-1.556s1.22-.542 2.154-.542h.873v-.416c0-.328-.092-.59-.276-.788-.183-.197-.463-.296-.838-.296-.324 0-.59.081-.797.243a.753.753 0 0 0-.31.618h-1.424c0-.347.115-.673.346-.975a2.3 2.3 0 0 1 .94-.712 3.303 3.303 0 0 1 1.327-.258c.743 0 1.334.186 1.776.56.441.373.668.897.68 1.573v2.86c0 .57.08 1.025.24 1.364v.1h-1.454zm-1.564-1.025c.281 0 .546-.069.794-.205a1.37 1.37 0 0 0 .56-.551v-1.196h-.768c-.527 0-.924.092-1.19.276a.892.892 0 0 0-.398.78c0 .273.09.49.273.652.181.163.424.244.729.244zm4.122-2.192c0-.976.227-1.76.68-2.352.453-.592 1.06-.888 1.822-.888.672 0 1.215.234 1.629.703V272.6h1.424v9h-1.29l-.07-.656c-.425.515-.994.773-1.705.773-.742 0-1.343-.299-1.802-.896-.459-.598-.688-1.41-.688-2.438zm1.424.123c0 .645.124 1.148.372 1.509s.6.542 1.058.542c.582 0 1.007-.26 1.277-.78v-2.706c-.262-.508-.684-.762-1.266-.762-.46 0-.816.183-1.066.548-.25.365-.375.915-.375 1.65z" fill="#52AACA"/>
        <g transform="translate(143 220)">
            <rect fill="#52AACA" width="40" height="40" rx="3"/>
            <path d="M26.087 28a.332.332 0 0 0 .333-.333v-2a.332.332 0 0 0-.333-.334H12.753a.332.332 0 0 0-.333.334v2c0 .185.148.333.333.333h13.334zm-13.574-9.24c-.093.092-.112.24-.074.37a.34.34 0 0 0 .314.203h3.667v4.334c0 .185.148.333.333.333h5.334a.332.332 0 0 0 .333-.333v-4.334h3.667c.13 0 .259-.074.315-.203.037-.13.018-.278-.075-.37l-6.666-6.667A.39.39 0 0 0 19.42 12a.39.39 0 0 0-.24.093l-6.667 6.666z" fill="#FFF"/>
        </g>
        <path d="M52.115 134.26v3.34H50.99v-8.531h3.147c.933 0 1.665.238 2.194.715.53.476.794 1.107.794 1.892 0 .828-.259 1.466-.776 1.913-.518.448-1.26.671-2.224.671h-2.01zm0-.92h2.022c.601 0 1.062-.141 1.383-.425.32-.283.48-.692.48-1.227 0-.508-.16-.914-.48-1.219-.32-.305-.76-.463-1.319-.474h-2.086v3.345zm7.573 4.26h-1.084v-9h1.084v9zm4.486.117c-.86 0-1.559-.282-2.098-.846-.54-.565-.809-1.32-.809-2.265v-.2c0-.628.12-1.19.36-1.684s.577-.88 1.009-1.16c.431-.28.899-.419 1.403-.419.824 0 1.465.271 1.922.814.457.543.685 1.32.685 2.332v.452h-4.295c.016.625.199 1.13.548 1.514.35.385.794.577 1.333.577.383 0 .707-.078.973-.234.265-.156.498-.363.697-.621l.662.516c-.531.816-1.328 1.224-2.39 1.224zm-.135-5.683c-.438 0-.805.159-1.102.477-.297.318-.48.765-.55 1.339h3.175v-.082c-.031-.55-.18-.978-.445-1.28-.266-.303-.625-.454-1.078-.454zm7.895 5.566c-.062-.125-.113-.348-.152-.668-.504.523-1.106.785-1.805.785-.625 0-1.138-.177-1.538-.53-.4-.354-.6-.802-.6-1.345 0-.66.25-1.173.752-1.538s1.208-.548 2.119-.548h1.054v-.498c0-.379-.113-.68-.34-.905-.226-.225-.56-.337-1.002-.337-.386 0-.71.098-.972.293-.262.195-.393.432-.393.709h-1.09c0-.316.113-.622.337-.917a2.3 2.3 0 0 1 .914-.7 3.075 3.075 0 0 1 1.269-.258c.73 0 1.303.183 1.717.548.414.365.629.868.644 1.509v2.918c0 .582.074 1.044.223 1.388v.094h-1.137zm-1.799-.826c.34 0 .662-.088.967-.264a1.59 1.59 0 0 0 .662-.685v-1.301h-.85c-1.327 0-1.991.388-1.991 1.166 0 .34.113.605.34.797.226.191.517.287.872.287zm8.224-.856c0-.293-.11-.52-.331-.682-.22-.162-.606-.302-1.154-.42-.55-.116-.985-.257-1.307-.421-.322-.164-.56-.36-.715-.586a1.402 1.402 0 0 1-.231-.809c0-.52.22-.959.659-1.318.44-.36 1-.539 1.684-.539.72 0 1.302.186 1.75.557.447.37.67.845.67 1.423h-1.09c0-.296-.126-.552-.377-.767-.252-.215-.57-.322-.953-.322-.394 0-.703.086-.925.257a.812.812 0 0 0-.334.674c0 .262.103.46.31.592.207.133.581.26 1.122.38.541.122.98.267 1.316.434.336.168.585.37.747.607.162.236.243.524.243.864 0 .567-.227 1.02-.68 1.362-.453.342-1.04.513-1.763.513-.508 0-.957-.09-1.348-.27a2.193 2.193 0 0 1-.917-.752 1.815 1.815 0 0 1-.331-1.046h1.084c.02.363.165.651.436.864.272.213.63.32 1.076.32.41 0 .739-.084.987-.25.248-.166.372-.387.372-.665zm5.247 1.8c-.86 0-1.559-.283-2.098-.847-.539-.565-.808-1.32-.808-2.265v-.2c0-.628.12-1.19.36-1.684s.576-.88 1.008-1.16c.431-.28.9-.419 1.403-.419.824 0 1.465.271 1.922.814.457.543.686 1.32.686 2.332v.452h-4.295c.015.625.198 1.13.547 1.514.35.385.794.577 1.333.577.383 0 .707-.078.973-.234.266-.156.498-.363.697-.621l.662.516c-.53.816-1.328 1.224-2.39 1.224zm-.135-5.684c-.437 0-.805.159-1.101.477-.297.318-.48.765-.551 1.339h3.176v-.082c-.032-.55-.18-.978-.446-1.28-.265-.303-.625-.454-1.078-.454zm10.986 4.939c-.422.496-1.04.744-1.857.744-.676 0-1.19-.196-1.544-.589-.354-.392-.532-.973-.536-1.743v-4.125h1.084v4.096c0 .96.39 1.441 1.172 1.441.828 0 1.378-.308 1.652-.926v-4.61h1.084v6.339H94.48l-.024-.627zm8.177-2.473c0 .965-.22 1.743-.662 2.332-.442.59-1.04.885-1.793.885-.77 0-1.375-.244-1.817-.732v3.053h-1.084v-8.778h.99l.053.703c.442-.547 1.055-.82 1.84-.82.762 0 1.364.287 1.808.861.443.575.665 1.373.665 2.397v.1zm-1.084-.123c0-.715-.152-1.279-.457-1.693-.305-.414-.723-.621-1.254-.621-.656 0-1.149.29-1.477.873v3.03c.325.577.82.866 1.489.866.52 0 .932-.206 1.239-.618.307-.412.46-1.024.46-1.837zm3.759 3.223h-1.084v-9h1.084v9zm1.567-3.229c0-.62.122-1.18.366-1.675a2.732 2.732 0 0 1 1.02-1.149c.435-.27.932-.404 1.49-.404.864 0 1.562.299 2.095.896.534.598.8 1.393.8 2.385v.076c0 .618-.118 1.171-.354 1.662a2.69 2.69 0 0 1-1.014 1.145c-.44.273-.944.41-1.515.41-.859 0-1.555-.299-2.088-.896-.534-.598-.8-1.389-.8-2.373v-.077zm1.09.13c0 .703.163 1.267.489 1.693.326.426.763.638 1.31.638.55 0 .988-.215 1.312-.647.324-.432.486-1.036.486-1.814 0-.695-.165-1.258-.495-1.69a1.574 1.574 0 0 0-1.315-.647c-.535 0-.967.212-1.295.638-.328.426-.492 1.035-.492 1.828zm10.075 3.099c-.063-.125-.114-.348-.153-.668-.504.523-1.105.785-1.804.785-.625 0-1.138-.177-1.538-.53a1.718 1.718 0 0 1-.601-1.345c0-.66.251-1.173.753-1.538s1.208-.548 2.118-.548h1.055v-.498c0-.379-.113-.68-.34-.905-.227-.225-.56-.337-1.002-.337-.387 0-.711.098-.973.293-.261.195-.392.432-.392.709h-1.09c0-.316.112-.622.337-.917a2.3 2.3 0 0 1 .914-.7 3.075 3.075 0 0 1 1.268-.258c.73 0 1.303.183 1.717.548.414.365.63.868.645 1.509v2.918c0 .582.074 1.044.222 1.388v.094h-1.136zm-1.8-.826c.34 0 .663-.088.968-.264.304-.176.525-.404.662-.685v-1.301h-.85c-1.328 0-1.992.388-1.992 1.166 0 .34.113.605.34.797.226.191.517.287.873.287zm4.27-2.397c0-.972.23-1.755.69-2.346.462-.592 1.065-.888 1.811-.888.742 0 1.33.254 1.764.762V128.6h1.084v9h-.996l-.053-.68c-.434.532-1.037.797-1.81.797-.735 0-1.333-.3-1.796-.902-.463-.602-.695-1.387-.695-2.356v-.082zm1.083.123c0 .72.149 1.282.446 1.688.296.406.707.61 1.23.61.688 0 1.19-.31 1.506-.927v-2.912c-.324-.597-.822-.896-1.494-.896-.531 0-.946.205-1.242.615-.297.41-.446 1.018-.446 1.822zm13.072 3.1c-.062-.125-.113-.348-.152-.668-.504.523-1.105.785-1.805.785-.625 0-1.137-.177-1.538-.53-.4-.354-.6-.802-.6-1.345 0-.66.25-1.173.753-1.538.502-.365 1.208-.548 2.118-.548h1.054v-.498c0-.379-.113-.68-.34-.905-.226-.225-.56-.337-1.001-.337-.387 0-.711.098-.973.293-.262.195-.393.432-.393.709h-1.09c0-.316.113-.622.337-.917a2.3 2.3 0 0 1 .915-.7 3.075 3.075 0 0 1 1.268-.258c.73 0 1.303.183 1.717.548.414.365.629.868.644 1.509v2.918c0 .582.075 1.044.223 1.388v.094h-1.137zm-1.798-.826c.34 0 .662-.088.966-.264a1.59 1.59 0 0 0 .662-.685v-1.301h-.85c-1.327 0-1.991.388-1.991 1.166 0 .34.113.605.34.797.226.191.517.287.872.287zm8.917-2.514v3.34h-1.125v-8.531h3.147c.933 0 1.665.238 2.194.715.53.476.794 1.107.794 1.892 0 .828-.259 1.466-.776 1.913-.518.448-1.26.671-2.224.671h-2.01zm0-.92h2.022c.601 0 1.062-.141 1.383-.425.32-.283.48-.692.48-1.227 0-.508-.16-.914-.48-1.219-.32-.305-.76-.463-1.319-.474h-2.086v3.345zm6.566 4.26v-8.531h2.408c.742 0 1.398.164 1.969.492.57.328 1.01.795 1.32 1.4.311.606.469 1.301.472 2.086v.545c0 .805-.155 1.51-.465 2.115a3.277 3.277 0 0 1-1.33 1.395c-.577.324-1.247.49-2.013.498h-2.361zm1.125-7.605v6.685h1.183c.867 0 1.542-.27 2.025-.809.482-.539.723-1.306.723-2.302v-.498c0-.97-.227-1.722-.682-2.26-.456-.536-1.101-.809-1.937-.816h-1.312zm11.569 3.837h-3.58v3.768h-1.125v-8.531h5.285v.926h-4.16v2.918h3.58v.92zm4.681.54c0-.622.122-1.18.366-1.676a2.732 2.732 0 0 1 1.02-1.149 2.77 2.77 0 0 1 1.491-.404c.863 0 1.562.299 2.095.896.533.598.8 1.393.8 2.385v.076c0 .618-.119 1.171-.355 1.662-.236.49-.574.872-1.014 1.145-.439.273-.944.41-1.514.41-.86 0-1.556-.299-2.089-.896-.533-.598-.8-1.389-.8-2.373v-.077zm1.09.128c0 .704.163 1.268.49 1.694.325.426.762.638 1.309.638.55 0 .988-.215 1.312-.647.325-.432.487-1.036.487-1.814 0-.695-.165-1.258-.495-1.69a1.574 1.574 0 0 0-1.316-.647c-.535 0-.967.212-1.295.638-.328.426-.492 1.035-.492 1.828zm9.225-2.267a3.248 3.248 0 0 0-.533-.041c-.71 0-1.193.303-1.447.908v4.5h-1.084v-6.34h1.055l.017.733c.356-.567.86-.85 1.512-.85.211 0 .371.027.48.082v1.008zm5.502 2.027v3.34h-1.125v-8.531h3.147c.933 0 1.665.238 2.194.715.53.476.794 1.107.794 1.892 0 .828-.259 1.466-.776 1.913-.518.448-1.26.671-2.224.671h-2.01zm0-.92h2.022c.601 0 1.062-.141 1.383-.425.32-.283.48-.692.48-1.227 0-.508-.16-.914-.48-1.219-.32-.305-.76-.463-1.319-.474h-2.086v3.345zm9.08.457c-.966-.277-1.668-.618-2.107-1.022a1.954 1.954 0 0 1-.66-1.497c0-.672.27-1.228.806-1.667.537-.44 1.236-.66 2.095-.66.586 0 1.108.114 1.567.34.46.227.815.54 1.067.938.252.398.378.834.378 1.307h-1.131c0-.516-.164-.921-.492-1.216-.329-.295-.791-.443-1.389-.443-.555 0-.987.122-1.298.367-.31.244-.466.583-.466 1.016 0 .348.148.642.443.882.295.24.797.46 1.506.66.709.198 1.263.418 1.664.658.4.24.697.52.89.841.194.32.29.697.29 1.131 0 .691-.27 1.245-.808 1.661-.54.416-1.26.624-2.162.624a4.01 4.01 0 0 1-1.641-.337c-.508-.224-.9-.532-1.175-.923a2.252 2.252 0 0 1-.413-1.33h1.13c0 .516.191.923.572 1.222.381.299.89.448 1.527.448.593 0 1.048-.12 1.365-.363.316-.242.474-.572.474-.99 0-.418-.146-.741-.44-.97-.292-.228-.823-.454-1.593-.677zm4.725 3.803v-8.531h2.408c.742 0 1.398.164 1.969.492.57.328 1.01.795 1.32 1.4.311.606.469 1.301.473 2.086v.545c0 .805-.156 1.51-.466 2.115a3.277 3.277 0 0 1-1.33 1.395c-.576.324-1.247.49-2.013.498h-2.361zm1.125-7.605v6.685h1.183c.867 0 1.542-.27 2.025-.809.482-.539.723-1.306.723-2.302v-.498c0-.97-.227-1.722-.682-2.26-.455-.536-1.1-.809-1.937-.816h-1.312zm9.52 4.382c0-.972.231-1.755.692-2.346.461-.592 1.065-.888 1.81-.888.743 0 1.33.254 1.765.762V128.6h1.084v9h-.997l-.052-.68c-.434.532-1.037.797-1.81.797-.735 0-1.334-.3-1.797-.902-.463-.602-.694-1.387-.694-2.356v-.082zm1.085.123c0 .72.148 1.282.445 1.688.297.406.707.61 1.23.61.688 0 1.19-.31 1.507-.927v-2.912c-.325-.597-.823-.896-1.495-.896-.53 0-.945.205-1.242.615-.297.41-.445 1.018-.445 1.822zm5.78-.129c0-.62.122-1.18.366-1.675a2.732 2.732 0 0 1 1.02-1.149c.435-.27.932-.404 1.491-.404.863 0 1.562.299 2.095.896.533.598.8 1.393.8 2.385v.076c0 .618-.119 1.171-.355 1.662-.236.49-.574.872-1.014 1.145a2.81 2.81 0 0 1-1.514.41c-.86 0-1.556-.299-2.09-.896-.532-.598-.799-1.389-.799-2.373v-.077zm1.09.13c0 .703.163 1.267.49 1.693.325.426.762.638 1.309.638.55 0 .988-.215 1.312-.647.324-.432.487-1.036.487-1.814 0-.695-.165-1.258-.496-1.69a1.574 1.574 0 0 0-1.315-.647c-.535 0-.967.212-1.295.638-.328.426-.492 1.035-.492 1.828zm8.704 2.331c.387 0 .724-.117 1.014-.351.289-.235.449-.527.48-.879h1.025c-.02.363-.144.709-.375 1.037a2.47 2.47 0 0 1-.922.785 2.663 2.663 0 0 1-1.222.293c-.863 0-1.55-.288-2.06-.864-.51-.576-.764-1.364-.764-2.364v-.182c0-.617.113-1.166.34-1.646a2.59 2.59 0 0 1 .975-1.12c.424-.265.925-.398 1.503-.398.711 0 1.302.213 1.772.639.471.425.722.978.753 1.658h-1.025a1.494 1.494 0 0 0-.466-1.01 1.45 1.45 0 0 0-1.034-.396c-.55 0-.978.198-1.28.594-.303.397-.454.97-.454 1.72v.205c0 .73.15 1.293.45 1.688.302.394.731.591 1.29.591zm7.772.141c-.422.496-1.04.744-1.857.744-.676 0-1.19-.196-1.544-.589-.354-.392-.532-.973-.536-1.743v-4.125h1.084v4.096c0 .96.39 1.441 1.172 1.441.828 0 1.378-.308 1.652-.926v-4.61h1.084v6.339h-1.031l-.024-.627zm3.84-5.713l.03.703c.465-.547 1.092-.82 1.881-.82.887 0 1.49.34 1.81 1.02.212-.305.486-.551.824-.739.338-.187.737-.281 1.198-.281 1.39 0 2.098.736 2.121 2.209v4.248h-1.084v-4.184c0-.453-.103-.792-.31-1.016-.207-.225-.555-.337-1.043-.337-.403 0-.737.12-1.002.36-.266.24-.42.564-.463.97v4.207h-1.09v-4.154c0-.922-.451-1.383-1.353-1.383-.711 0-1.198.303-1.46.908v4.629h-1.083v-6.34h1.025zm12.25 6.457c-.86 0-1.559-.282-2.098-.846-.539-.565-.808-1.32-.808-2.265v-.2c0-.628.12-1.19.36-1.684s.576-.88 1.008-1.16c.431-.28.9-.419 1.403-.419.824 0 1.465.271 1.922.814.457.543.685 1.32.685 2.332v.452h-4.294c.015.625.198 1.13.547 1.514.35.385.794.577 1.333.577.383 0 .707-.078.973-.234.266-.156.498-.363.697-.621l.662.516c-.53.816-1.328 1.224-2.39 1.224zm-.135-5.683c-.437 0-.805.159-1.101.477-.297.318-.481.765-.551 1.339h3.176v-.082c-.032-.55-.18-.978-.446-1.28-.265-.303-.625-.454-1.078-.454zm5.007-.774l.035.797c.484-.61 1.117-.914 1.898-.914 1.34 0 2.016.756 2.028 2.268v4.189h-1.084v-4.195c-.004-.457-.109-.795-.314-1.014-.205-.219-.524-.328-.958-.328-.351 0-.66.094-.926.281a1.91 1.91 0 0 0-.62.738v4.518h-1.085v-6.34h1.026zm7.186-1.535v1.535h1.184v.838h-1.184v3.932c0 .254.053.444.158.571.106.127.286.19.54.19.124 0 .296-.023.515-.07v.879a3.143 3.143 0 0 1-.832.117c-.484 0-.85-.146-1.096-.44-.246-.292-.369-.708-.369-1.247v-3.932h-1.154v-.838h1.154v-1.535h1.084zm2.593 7.307c0-.188.056-.344.167-.47.111-.124.278-.187.5-.187.223 0 .392.063.508.188a.665.665 0 0 1 .173.469.63.63 0 0 1-.173.45c-.116.122-.285.182-.507.182-.223 0-.39-.06-.501-.181a.641.641 0 0 1-.167-.451zm-205.47 12.4h-3.58v3.768H50.99v-8.531h5.285v.926h-4.16v2.918h3.58v.92zm3.056 3.768h-1.084v-6.34h1.084v6.34zm-1.172-8.021a.65.65 0 0 1 .161-.446c.108-.12.267-.181.478-.181.21 0 .37.06.48.181a.64.64 0 0 1 .164.446.62.62 0 0 1-.164.439c-.11.117-.27.176-.48.176-.211 0-.37-.059-.478-.176a.626.626 0 0 1-.161-.44zm4.204 8.021h-1.084v-9h1.084v9zm4.485.117c-.86 0-1.558-.282-2.097-.846-.54-.565-.809-1.32-.809-2.265v-.2c0-.628.12-1.19.36-1.684s.576-.88 1.008-1.16c.432-.28.9-.419 1.403-.419.825 0 1.465.271 1.922.814.457.543.686 1.32.686 2.332v.452h-4.295c.016.625.198 1.13.548 1.514.35.385.794.577 1.333.577.383 0 .707-.078.972-.234.266-.156.498-.363.698-.621l.662.516c-.531.816-1.328 1.224-2.39 1.224zm-.135-5.683c-.437 0-.804.159-1.101.477-.297.318-.48.765-.55 1.339h3.175v-.082c-.031-.55-.18-.978-.445-1.28-.266-.303-.625-.454-1.079-.454zm10.764 3.884c0-.293-.11-.52-.331-.682-.22-.162-.606-.302-1.154-.42-.55-.116-.985-.257-1.307-.421-.322-.164-.56-.36-.715-.586a1.402 1.402 0 0 1-.231-.809c0-.52.22-.959.659-1.318.44-.36 1-.539 1.684-.539.72 0 1.302.186 1.75.557.447.37.67.845.67 1.423h-1.09c0-.296-.126-.552-.378-.767-.251-.215-.569-.322-.952-.322-.394 0-.703.086-.925.257a.812.812 0 0 0-.334.674c0 .262.103.46.31.592.207.133.581.26 1.122.38.541.122.98.267 1.316.434.336.168.585.37.747.607.162.236.243.524.243.864 0 .567-.227 1.02-.68 1.362-.453.342-1.04.513-1.763.513-.508 0-.958-.09-1.348-.27a2.193 2.193 0 0 1-.917-.752 1.815 1.815 0 0 1-.331-1.046h1.084c.02.363.165.651.436.864.272.213.63.32 1.076.32.41 0 .739-.084.987-.25.248-.166.372-.387.372-.665zm3.794 1.682h-1.084v-6.34h1.084v6.34zm-1.172-8.021a.65.65 0 0 1 .161-.446c.107-.12.267-.181.478-.181.21 0 .37.06.48.181a.64.64 0 0 1 .164.446.62.62 0 0 1-.164.439c-.11.117-.27.176-.48.176-.211 0-.37-.059-.478-.176a.626.626 0 0 1-.161-.44zm4.046 7.136h3.709v.885H82.24v-.797l3.498-4.646h-3.445v-.897h4.805v.768l-3.533 4.687zm7.584 1.002c-.859 0-1.558-.282-2.097-.846-.54-.565-.809-1.32-.809-2.265v-.2c0-.628.12-1.19.36-1.684s.577-.88 1.008-1.16c.432-.28.9-.419 1.404-.419.824 0 1.465.271 1.922.814.457.543.685 1.32.685 2.332v.452h-4.295c.016.625.198 1.13.548 1.514.35.385.794.577 1.333.577.383 0 .707-.078.973-.234.265-.156.498-.363.697-.621l.662.516c-.531.816-1.328 1.224-2.39 1.224zm-.134-5.683c-.438 0-.805.159-1.102.477-.297.318-.48.765-.55 1.339h3.175v-.082c-.031-.55-.18-.978-.445-1.28-.266-.303-.625-.454-1.078-.454zm8.091-.774l.03.703c.464-.547 1.091-.82 1.88-.82.887 0 1.49.34 1.811 1.02.21-.305.485-.551.823-.739.338-.187.737-.281 1.198-.281 1.391 0 2.098.736 2.122 2.209v4.248h-1.084v-4.184c0-.453-.104-.792-.311-1.016-.207-.225-.555-.337-1.043-.337-.402 0-.736.12-1.002.36s-.42.564-.463.97v4.207h-1.09v-4.154c0-.922-.45-1.383-1.353-1.383-.711 0-1.197.303-1.46.908v4.629h-1.083v-6.34h1.025zm13.532 5.713c-.422.496-1.04.744-1.857.744-.676 0-1.19-.196-1.544-.589-.354-.392-.532-.973-.536-1.743v-4.125h1.084v4.096c0 .96.39 1.441 1.172 1.441.828 0 1.379-.308 1.652-.926v-4.61h1.084v6.339h-1.031l-.024-.627zm6.513-1.055c0-.293-.11-.52-.331-.682-.22-.162-.606-.302-1.154-.42-.55-.116-.985-.257-1.307-.421-.322-.164-.56-.36-.715-.586a1.402 1.402 0 0 1-.231-.809c0-.52.22-.959.659-1.318.44-.36 1-.539 1.684-.539.72 0 1.302.186 1.75.557.447.37.67.845.67 1.423h-1.09c0-.296-.125-.552-.377-.767-.252-.215-.57-.322-.953-.322-.394 0-.703.086-.925.257a.812.812 0 0 0-.334.674c0 .262.103.46.31.592.207.133.581.26 1.122.38.541.122.98.267 1.316.434.336.168.585.37.747.607.162.236.243.524.243.864 0 .567-.227 1.02-.68 1.362-.453.342-1.04.513-1.763.513-.508 0-.957-.09-1.348-.27a2.193 2.193 0 0 1-.917-.752 1.815 1.815 0 0 1-.331-1.046h1.084c.02.363.165.651.436.864.272.213.63.32 1.076.32.41 0 .739-.084.987-.25.248-.166.372-.387.372-.665zm4.087-6.193v1.535h1.183v.838h-1.183v3.932c0 .254.052.444.158.571.105.127.285.19.539.19.125 0 .297-.023.516-.07v.879a3.143 3.143 0 0 1-.832.117c-.485 0-.85-.146-1.096-.44-.246-.292-.37-.708-.37-1.247v-3.932H121v-.838h1.155v-1.535h1.084zm6.685 1.535l.035.797c.485-.61 1.117-.914 1.899-.914 1.34 0 2.015.756 2.027 2.268v4.189H132.8v-4.195c-.004-.457-.108-.795-.313-1.014-.206-.219-.525-.328-.958-.328-.352 0-.66.094-.926.281a1.91 1.91 0 0 0-.621.738v4.518h-1.084v-6.34h1.025zm5.429 3.111c0-.62.122-1.18.366-1.675a2.732 2.732 0 0 1 1.02-1.149c.435-.27.932-.404 1.49-.404.864 0 1.562.299 2.095.896.534.598.8 1.393.8 2.385v.076c0 .618-.118 1.171-.354 1.662-.237.49-.575.872-1.014 1.145-.44.273-.944.41-1.515.41-.86 0-1.555-.299-2.089-.896-.533-.598-.8-1.389-.8-2.373v-.077zm1.09.13c0 .703.163 1.267.489 1.693.326.426.762.638 1.31.638.55 0 .988-.215 1.312-.647.324-.432.486-1.036.486-1.814 0-.695-.165-1.258-.495-1.69a1.574 1.574 0 0 0-1.315-.647c-.536 0-.967.212-1.295.638-.328.426-.493 1.035-.493 1.828zm7.631-4.776v1.535h1.184v.838h-1.184v3.932c0 .254.053.444.158.571.106.127.286.19.54.19.124 0 .296-.023.515-.07v.879a3.143 3.143 0 0 1-.832.117c-.484 0-.85-.146-1.096-.44-.246-.292-.369-.708-.369-1.247v-3.932h-1.154v-.838h1.154v-1.535h1.084zm8.291 7.992c-.86 0-1.559-.282-2.098-.846-.539-.565-.808-1.32-.808-2.265v-.2c0-.628.12-1.19.36-1.684s.576-.88 1.008-1.16c.432-.28.9-.419 1.403-.419.824 0 1.465.271 1.922.814.457.543.686 1.32.686 2.332v.452h-4.295c.015.625.198 1.13.548 1.514.35.385.794.577 1.333.577.382 0 .707-.078.972-.234.266-.156.498-.363.698-.621l.662.516c-.532.816-1.329 1.224-2.391 1.224zm-.135-5.683c-.437 0-.804.159-1.101.477-.297.318-.48.765-.551 1.339h3.176v-.082c-.032-.55-.18-.978-.446-1.28-.265-.303-.625-.454-1.078-.454zm6.108 1.54l1.407-2.314h1.265l-2.074 3.135 2.139 3.205h-1.254l-1.465-2.373-1.465 2.373h-1.26l2.14-3.205-2.075-3.135h1.254l1.388 2.315zm6.367 3.258c.386 0 .724-.117 1.013-.351.29-.235.45-.527.48-.879h1.026c-.02.363-.144.709-.375 1.037a2.47 2.47 0 0 1-.923.785 2.663 2.663 0 0 1-1.221.293c-.864 0-1.55-.288-2.06-.864-.51-.576-.765-1.364-.765-2.364v-.182c0-.617.114-1.166.34-1.646.227-.48.552-.854.976-1.12.424-.265.925-.398 1.503-.398.71 0 1.301.213 1.772.639.47.425.722.978.753 1.658h-1.025a1.494 1.494 0 0 0-.466-1.01 1.45 1.45 0 0 0-1.034-.396c-.551 0-.978.198-1.28.594-.303.397-.455.97-.455 1.72v.205c0 .73.15 1.293.452 1.688.3.394.73.591 1.289.591zm6.489.885c-.86 0-1.559-.282-2.098-.846-.539-.565-.809-1.32-.809-2.265v-.2c0-.628.12-1.19.36-1.684.241-.494.577-.88 1.009-1.16.431-.28.9-.419 1.403-.419.824 0 1.465.271 1.922.814.457.543.685 1.32.685 2.332v.452h-4.295c.016.625.199 1.13.548 1.514.35.385.794.577 1.333.577.383 0 .707-.078.973-.234.266-.156.498-.363.697-.621l.662.516c-.53.816-1.328 1.224-2.39 1.224zm-.135-5.683c-.438 0-.805.159-1.102.477-.296.318-.48.765-.55 1.339h3.175v-.082c-.03-.55-.18-.978-.445-1.28-.266-.303-.625-.454-1.078-.454zm6.612 5.683c-.86 0-1.558-.282-2.097-.846-.54-.565-.81-1.32-.81-2.265v-.2c0-.628.121-1.19.361-1.684s.576-.88 1.008-1.16c.432-.28.9-.419 1.403-.419.825 0 1.465.271 1.922.814.457.543.686 1.32.686 2.332v.452h-4.295c.016.625.198 1.13.548 1.514.35.385.794.577 1.333.577.383 0 .707-.078.972-.234.266-.156.498-.363.698-.621l.662.516c-.531.816-1.328 1.224-2.39 1.224zm-.135-5.683c-.437 0-.804.159-1.101.477-.297.318-.48.765-.551 1.339h3.176v-.082c-.031-.55-.18-.978-.445-1.28-.266-.303-.625-.454-1.079-.454zm3.718 2.343c0-.972.23-1.755.691-2.346.461-.592 1.065-.888 1.811-.888.742 0 1.33.254 1.764.762V144.2h1.084v9h-.996l-.053-.68c-.434.532-1.037.797-1.81.797-.735 0-1.334-.3-1.797-.902-.463-.602-.694-1.387-.694-2.356v-.082zm1.084.123c0 .72.148 1.282.445 1.688.297.406.707.61 1.23.61.688 0 1.19-.31 1.507-.927v-2.912c-.325-.597-.823-.896-1.494-.896-.532 0-.946.205-1.243.615-.297.41-.445 1.018-.445 1.822zm14.22-3.205c0 .426-.112.805-.336 1.137a2.292 2.292 0 0 1-.912.78c.446.19.798.47 1.058.837s.39.783.39 1.248c0 .739-.25 1.326-.747 1.764-.498.437-1.154.656-1.966.656-.82 0-1.478-.22-1.972-.659-.494-.44-.741-1.026-.741-1.76 0-.462.126-.878.378-1.249.252-.37.6-.652 1.046-.844a2.236 2.236 0 0 1-.897-.779 2.01 2.01 0 0 1-.328-1.13c0-.72.23-1.29.692-1.712.46-.422 1.068-.632 1.822-.632.75 0 1.356.21 1.82.632.462.422.694.993.694 1.711zm-.884 3.979c0-.477-.152-.865-.454-1.166-.303-.301-.699-.451-1.187-.451-.488 0-.88.148-1.175.445-.295.297-.442.687-.442 1.172 0 .484.143.865.43 1.142.288.278.687.416 1.199.416.508 0 .906-.14 1.195-.419.29-.279.434-.659.434-1.14zm-1.63-5.432c-.425 0-.77.132-1.033.396-.264.263-.396.622-.396 1.075 0 .433.13.784.39 1.052.26.267.606.401 1.04.401.433 0 .78-.134 1.04-.401.26-.268.39-.619.39-1.052 0-.434-.135-.787-.405-1.06-.27-.274-.611-.41-1.025-.41zm5.33 1.418l.03.703c.464-.547 1.09-.82 1.88-.82.887 0 1.49.34 1.81 1.02.211-.305.486-.551.824-.739.338-.187.737-.281 1.198-.281 1.39 0 2.098.736 2.121 2.209v4.248h-1.084v-4.184c0-.453-.103-.792-.31-1.016-.207-.225-.555-.337-1.043-.337-.403 0-.737.12-1.002.36-.266.24-.42.564-.463.97v4.207h-1.09v-4.154c0-.922-.451-1.383-1.354-1.383-.71 0-1.197.303-1.459.908v4.629h-1.084v-6.34h1.026zm14.985 3.24c0 .97-.223 1.747-.668 2.335-.445.588-1.043.882-1.793.882-.8 0-1.42-.283-1.857-.85l-.053.733h-.996v-9h1.084v3.357c.437-.543 1.04-.814 1.81-.814s1.374.291 1.814.873c.44.582.659 1.379.659 2.39v.094zm-1.084-.123c0-.738-.143-1.308-.428-1.71-.285-.403-.695-.604-1.23-.604-.715 0-1.229.332-1.541.996v2.742c.332.664.85.996 1.553.996.52 0 .923-.2 1.212-.603.29-.403.434-1.008.434-1.817zm2.593 2.655a.68.68 0 0 1 .167-.47c.111-.124.278-.187.5-.187.223 0 .392.063.508.188a.665.665 0 0 1 .172.469.63.63 0 0 1-.172.45c-.116.122-.285.182-.507.182-.223 0-.39-.06-.501-.181a.641.641 0 0 1-.167-.451z" fill="#74838B"/>
        <g transform="translate(50 104)">
            <rect fill="#EBA460" width="67" height="17" rx="3"/>
            <path d="M11.09 9.412H9.585V12h-.848V5.602h2.118c.721 0 1.276.164 1.664.492.388.328.582.805.582 1.432 0 .399-.108.746-.323 1.042a1.928 1.928 0 0 1-.899.663l1.503 2.716V12h-.905l-1.389-2.588zm-1.504-.69h1.297c.419 0 .752-.109 1-.326.247-.216.37-.506.37-.87 0-.395-.117-.698-.353-.91-.236-.21-.576-.317-1.022-.32H9.586v2.426zm9.315.32h-2.773v2.268h3.221V12h-4.065V5.602h4.021v.694h-3.177v2.057H18.9v.69zm3.588-3.44l2.092 5.22 2.092-5.22h1.094V12h-.844V9.508l.08-2.69L24.901 12h-.646L22.16 6.832l.083 2.676V12H21.4V5.602h1.09zM31.162 12h-.844V5.602h.844V12zm7.46 0h-.848l-3.221-4.93V12h-.848V5.602h.848l3.23 4.952V5.602h.84V12zm2.499 0V5.602h1.806c.556 0 1.049.123 1.476.369.428.246.758.596.991 1.05.233.454.351.976.354 1.564v.41c0 .603-.116 1.131-.35 1.586a2.457 2.457 0 0 1-.997 1.045c-.432.244-.935.368-1.51.374h-1.77zm.843-5.704v5.014h.888c.65 0 1.157-.202 1.518-.606.362-.405.543-.98.543-1.727v-.374c0-.727-.17-1.291-.512-1.694-.341-.403-.825-.607-1.452-.613h-.985zm9.675 2.746h-2.773v2.268h3.221V12h-4.065V5.602h4.021v.694h-3.177v2.057h2.773v.69zm4.845.37h-1.503V12h-.848V5.602h2.118c.721 0 1.276.164 1.664.492.388.328.582.805.582 1.432 0 .399-.108.746-.323 1.042a1.928 1.928 0 0 1-.899.663l1.503 2.716V12h-.905l-1.389-2.588zm-1.503-.69h1.297c.419 0 .752-.109 1-.326.247-.216.37-.506.37-.87 0-.395-.117-.698-.353-.91-.236-.21-.576-.317-1.022-.32h-1.292v2.426z" fill="#FFF"/>
        </g>
        <path d="M62.243 74.07v10.152c-.007 1.408-.45 2.56-1.328 3.455-.878.896-2.07 1.398-3.573 1.508l-.523.02c-1.634 0-2.936-.44-3.907-1.323-.97-.882-1.463-2.095-1.476-3.64V74.07h1.948v10.11c0 1.08.297 1.92.892 2.518.595.598 1.442.897 2.543.897 1.114 0 1.967-.297 2.558-.892.592-.595.887-1.432.887-2.512V74.07h1.98zm12.368 9.506c0 1.688-.386 3.049-1.158 4.08-.773 1.033-1.819 1.55-3.138 1.55-1.347 0-2.406-.428-3.179-1.283v5.343H65.24v-15.36h1.733l.093 1.23c.772-.957 1.845-1.436 3.22-1.436 1.332 0 2.387.503 3.163 1.508.776 1.004 1.163 2.402 1.163 4.193v.175zm-1.897-.216c0-1.25-.266-2.238-.8-2.963-.533-.725-1.264-1.087-2.194-1.087-1.148 0-2.01.51-2.584 1.528v5.301c.568 1.012 1.436 1.518 2.605 1.518.91 0 1.632-.36 2.169-1.082.536-.721.804-1.793.804-3.215zM79.27 89h-1.897V73.25h1.897V89zm2.72-5.65c0-1.087.213-2.064.64-2.933.427-.868 1.022-1.538 1.784-2.01.762-.471 1.632-.707 2.61-.707 1.51 0 2.733.523 3.666 1.569.933 1.046 1.4 2.437 1.4 4.173v.134c0 1.08-.207 2.049-.621 2.907-.414.858-1.005 1.526-1.774 2.004-.769.479-1.653.718-2.65.718-1.505 0-2.723-.523-3.656-1.569-.933-1.046-1.4-2.43-1.4-4.153v-.133zm1.906.226c0 1.23.286 2.218.857 2.963.57.745 1.334 1.118 2.291 1.118.964 0 1.73-.378 2.297-1.133.568-.756.851-1.814.851-3.174 0-1.217-.288-2.203-.866-2.958-.578-.756-1.345-1.133-2.302-1.133-.937 0-1.692.372-2.266 1.117-.574.746-.862 1.812-.862 3.2zM101.504 89c-.11-.219-.199-.608-.267-1.169-.882.916-1.935 1.374-3.158 1.374-1.094 0-1.991-.31-2.692-.928-.7-.619-1.051-1.403-1.051-2.353 0-1.155.44-2.053 1.318-2.692.878-.639 2.114-.959 3.706-.959h1.846v-.871c0-.663-.198-1.191-.595-1.584-.396-.393-.98-.59-1.753-.59-.677 0-1.244.17-1.702.513-.458.342-.687.755-.687 1.24h-1.907c0-.553.196-1.088.59-1.604.392-.516.925-.925 1.599-1.226a5.381 5.381 0 0 1 2.22-.45c1.278 0 2.28.319 3.004.958.725.64 1.1 1.52 1.128 2.64v5.107c0 1.018.13 1.828.39 2.43V89h-1.99zm-3.148-1.446c.594 0 1.158-.154 1.691-.461.534-.308.92-.708 1.16-1.2v-2.276h-1.488c-2.324 0-3.486.68-3.486 2.04 0 .595.198 1.06.595 1.395.396.335.905.502 1.528.502zm7.446-4.194c0-1.702.403-3.07 1.21-4.106.807-1.036 1.863-1.554 3.168-1.554 1.3 0 2.328.445 3.087 1.333V73.25h1.897V89h-1.743l-.093-1.19c-.758.93-1.815 1.395-3.168 1.395-1.285 0-2.333-.526-3.143-1.579-.81-1.053-1.215-2.427-1.215-4.122v-.144zm1.897.216c0 1.258.26 2.242.78 2.953.519.71 1.237 1.066 2.153 1.066 1.203 0 2.081-.54 2.635-1.62V80.88c-.568-1.046-1.44-1.569-2.615-1.569-.93 0-1.654.359-2.174 1.077-.52.717-.779 1.78-.779 3.189z" fill="#344551"/>
    </g>
</svg>
